<?xml version="1.0" encoding="utf-8"?>
<!-- Generator: Adobe Illustrator 23.0.1, SVG Export Plug-In . SVG Version: 6.00 Build 0)  -->
<svg version="1.1" xmlns="http://www.w3.org/2000/svg" xmlns:xlink="http://www.w3.org/1999/xlink" x="0px" y="0px"
	 viewBox="0 0 1093 1255.37" style="enable-background:new 0 0 1093 1255.37;" xml:space="preserve">
<style type="text/css">
	.st0{fill:#FFFFFF;}
	.st1{fill:#2A2B2D;}
	.st2{fill:#A6AAB0;}
	.st3{fill:#E09C8E;}
	.st4{fill:#FFD0BA;}
	.st5{fill:#7D7A77;}
	.st6{fill:#8C8782;}
	.st7{fill:#C13A4F;}
	.st8{fill:#D8CCC2;}
	.st9{fill:#B8BCC1;}
	.st10{fill:#333843;}
	.st11{fill:#D03A4B;}
	.st12{fill:none;stroke:#000000;stroke-linecap:round;stroke-miterlimit:10;}
	.st13{fill:none;stroke:#040000;stroke-width:3;stroke-linecap:round;stroke-miterlimit:10;}
	.st14{fill:none;stroke:#040000;stroke-linecap:round;stroke-miterlimit:10;}
	.st15{fill:#040000;}
</style>
<g id="레이어_1">
</g>
<g id="레이어_3">
	<g>
		<path class="st0" d="M715.15,812.26l10.36-23.39l15.76,6.38l0.04-0.1c-0.09,0.26-0.21,0.69-0.37,1.25
			c-2.44,8.38-5.98,18.8-11.75,25.06L715.15,812.26z"/>
		<path class="st0" d="M725.32,789.35c0.24-0.64,0.66-1.62,1.5-2.63l14.33,8.85l-0.08,0.18L725.32,789.35z"/>
		<path class="st0" d="M687.31,914.98l30.14-142.3l16.82,1.85c-0.01,0.7-0.2,16.23-2.56,38.32l39.62,24.66l-5.3,15.68
			c-14.89-1.42-28.12-10.04-37.25-17.79c-4.23,27.23-11.87,59.87-25.67,85.37L687.31,914.98z"/>
		<polygon class="st0" points="729.85,763.56 733.91,748.93 748.91,763.69 745.81,769.33 745.61,769.72 		"/>
		<path class="st0" d="M813.77,875.35c-10.27,0-35.55-1.84-48.65-18.9c-7.68-9.99-15.61-20.74-21.19-32.76
			c-7.54-8.2-9.22-17.96-9.22-20.04v-6.67c-2.31-1.76-4.22-3.95-5.63-6.47c-2.78-4.97-3.56-10.88-2.33-17.63
			c-2.84-1.12-5.32-2.59-7.43-4.39l-10.64,43.26l1.3,10.31l-5.17-0.85l-8.75,14.39l9.77,14.66l-16.03-4.36l-14.38,23.63l-16.46-3.29
			l-3.17-53.14l-4.24-0.7l3.66-9.08l-0.06-0.96l8.33-37.35c-3.99-5.71-6.43-13.91-3.65-23.26c1.96-6.58,6.94-12.29,12.93-18.37
			l16.99-76.15l-24.32-13.83l7.38-15.28c3.77,1.52,13.05,5.43,21.16,10.16l4.13-18.52l0.5-0.97c0.94-1.82,6.51-10.93,24.4-10.93
			c1.05,0,2.14,0.03,3.23,0.09c17.3,1,25.62,13.97,27.81,21.49l0.63,2.15l-8.89,37.67c3.6,3.27,7.31,6.71,10.23,9.57
			c3.28-1.24,6.64-1.86,10.06-1.86c18.09,0,30.68,17.05,35.16,24.2c4.85,2.51,11.56,6.58,14.9,11.28c0.83,1.17,3.25,4.28,6.07,7.88
			c11.34,14.56,20.93,27.05,23.35,32.48c0.42,0.93,0.99,2.12,1.66,3.54c4.23,8.85,13.02,27.26,15.39,47.24
			c2.43,20.54-0.37,54.46-11.96,64.74c-2.04,1.81-2.64,2.81-3.4,4.08c-2.58,4.32-5.17,6.9-12.88,9.93
			C829.49,874.26,821.99,875.35,813.77,875.35C813.77,875.35,813.77,875.35,813.77,875.35z"/>
		<path class="st0" d="M524.86,1136.21c-0.3-0.29-0.6-0.58-0.91-0.87h-1.67v-1.53c-42.86-38.36-132.26-41.66-182.38-40.15l-0.51-17
			c53.84-1.63,151.07,2.36,197.33,47.36l2.57,2.5v8.82h-13.59L524.86,1136.21z"/>
		<path class="st0" d="M267.17,1101.89c-2.03,0-5.02-0.25-7.52-2.4c-5.42-4.64-3.93-10.59-3.43-12.57
			c-0.65-0.72-1.31-1.58-1.95-2.61c-2.1-3.42-2.17-6.31-1.51-8.53c-4.46-4.26-4.54-11.14-0.16-16.87l3.44-4.5l85.78,22.52
			l-1.9,16.73c-28.43,0.86-47.9,3.37-50.96,4.03C283.51,1099.62,272.82,1101.89,267.17,1101.89
			C267.17,1101.89,267.17,1101.89,267.17,1101.89z"/>
		<path class="st0" d="M533.8,1150.25c-6.35,0-11.52-5.17-11.52-11.52v-14.42l34.28,9l-2.07,16.73L533.8,1150.25z"/>
		<path class="st0" d="M742.82,404.39c0.88-14.77,1.38-33,1.33-47.56l-0.02-2.47c-0.16-18.23-1.19-22.14-1.3-22.53
			c-1.73-5.72-6.16-6.49-7.03-6.58l-2-16.47c9.02-3.21,17.01-6.17,24.4-9.07l12.99-5.09l-11.42,111.15L742.82,404.39z"/>
		<path class="st0" d="M297.17,388.61l8.41-1.87c17.75-3.95,34.36-8.99,49.37-14.98l0.54,0.91c6.51-2.97,18.78-7.6,31.92-7.6
			c12.09,0,22.32,3.8,30.39,11.3c21.9,20.35,34.54,28.19,50.07,31.09c1.67,0.31,3.39,0.47,5.11,0.47c0.24,0,0.49,0,0.73-0.01
			l-22.38-9.64l25.17-5.87c18.67-4.35,183.46-58.32,242.08-78.34c5.17-1.77,10.18-3.51,14.88-5.18l10.07-3.57l6.2,53.88l-10.56-2.64
			c-1.18,0.2-3.14,0.58-4.92,0.96l-0.37,0.08l-0.38,0.05c-22.83,2.81-101.25,29.35-209.77,70.99l-1.58,0.61l-204.14-5.64
			l-10.37,9.18L297.17,388.61z"/>
		<path class="st0" d="M710.15,529.67c1.74-5.44,3.43-9.52,5.31-12.83l2.54-4.46l4.64,0.15l27.92-61.67
			c1.57-3.46,4.51-6.18,8.08-7.47l19.48-7.04l-12.57,26.97l-0.69,0.14l-0.48,2.37l-33.53,71.94l-4.91,0.42
			c-0.89,0.08-2.32,0.73-3.02,1.18L703,552.2L710.15,529.67z"/>
		<path class="st0" d="M540.84,939.06c-52.09-90.44-73.26-175.83-81.85-231.55l15.58-5.86c4.49,7.06,10.95,15,16.95,19.66
			c2.18-4.73,5.33-10.84,9.56-17.27l14.34-21.85l1.26,26.1c0.55,11.49,4.24,25.56,9.99,29.03l0.01,0.01
			c0.26,0.16,0.49,0.28,0.69,0.37c1.2,0.34,7.11,1.9,15.41,1.9c6.04,0,11.98-0.8,17.7-2.39c6.75-6.42,9.39-19.46,9.88-26.45
			l1.63-23.16l13.72,18.73c4.54,6.2,8.09,12.15,10.62,17.78c1.79-0.63,3.89-1.51,6.17-2.76l17.8-9.75l-27.69,97.72l-2.34-0.06
			l1.13,4.32L550.9,956.52L540.84,939.06z"/>
		<path class="st0" d="M324.27,510.83l-6.91-26.84l-4.09,8.01l-27.1-46.41l11.56-2.41c6.68-1.4,13.33-2.97,19.77-4.67l1.95,7.38
			l8.11-2.46l21.23,57.14l7.6,0.24l2.28,4.5c1.52,3,5.32,11.16,7.78,22.16l2.14,9.57l-9.78,0.76c-0.25,0.02-2.5,0.23-3.26,1.52
			l-7.36,12.52L324.27,510.83z"/>
		<path class="st0" d="M345.44,373.17l13.03-3.96l7.73,14.82c-0.7,0.55-1.34,1.06-1.92,1.54l-1.61,1.32l-13.01,2.74L345.44,373.17z"
			/>
		<path class="st0" d="M474.68,408.33c-4.65-2.02-9.25-4.22-13.65-6.55c-7.34-3.89-14.29-9.77-21.01-15.46
			c-8.45-7.16-17.19-14.56-26.42-17.82l-24.42-8.62l69.12-21.01l0.21,0.65c15.69-5.04,34.5-11.03,54.25-17.2l68.31-20.77
			c29.29-8.58,51.57-14.57,66.31-17.8l6.38,15.49L478.81,410.12L474.68,408.33z"/>
		<path class="st0" d="M309.66,817.46l40.73,4.75l-1.94,16.9c-1.35-0.15-2.71-0.23-4.02-0.23c-2.05,0-3.29,0.19-3.31,0.19
			l-0.72,0.13l-0.17,0c-2.27,0.38-15.95,2.96-29.13,10.81l-24.6,14.64L309.66,817.46z"/>
		<path class="st0" d="M375.47,904.87c-1.49-3.03-3.33-4.28-3.85-4.59l4.72-15.82c0.16,0.01,0.32,0.01,0.47,0.01
			c1.12,0,2.14-0.18,3.12-0.56l11.4-4.38l0.27,21.48L375.47,904.87z"/>
		<path class="st0" d="M354.27,928.83l5.27-0.61c0.99-0.12,1.95-0.22,2.87-0.32c4.39-0.47,8.18-0.88,9.33-2.08
			c1.07-1.12,2.63-3.31,3.81-6.09l10.75-25.35l5.19,25.86l11.19,6.13l-34.75,23.43l-0.54-1.13l-27.76,21.74L354.27,928.83z"/>
		<path class="st0" d="M545.9,1150.04v-12.9l-0.32-14.42c-14.71-11.31-71.1-52.1-132.89-63.05c-13.18-2.33-27.63-3.52-42.95-3.52
			c-49.54,0-94.65,12.12-107.3,15.84c-0.91,0.27-1.84,0.4-2.78,0.4c-3.44,0-6.67-1.84-8.44-4.81c-1.79-3.01-1.86-6.64-0.19-9.71
			l36.58-67.33c-24.93-11.85-29.59-41.77-31.48-53.87c-0.18-1.14-0.34-2.31-0.48-3.47c-1.91-2.85-5.58-8.61-7.99-14.09l-0.11-0.25
			c-22.85-56.96,25.28-148.74,28.88-155.46c36.62-80.25,92.29-119.21,117.74-133.64c-24.5-19.93-34.57-43.6-39.05-62.63
			c-22.63-0.83-40.69-8.2-53.73-21.94c-10.57-11.14-17.58-26.51-20.26-44.45c-2.19-14.68-0.03-27.86,3.16-37.73
			c-20.43,3.38-33.73,3.95-34.42,3.97l-0.31,0.01l-0.57,0c-67,0-91.6-38.99-92.54-56.78c-0.93-17.65,26.66-26.33,72.22-38.52
			c24.46-6.54,49.97-17.63,60.52-22.44c0.1-7.01-0.17-13.7-0.79-19.96c-1.61-16.29-3.06-54.62,1.76-94.99
			c5.83-48.8,18.57-81.9,37.89-98.37c27.57-23.51,54.09-25.45,82.17-27.5c16.54-1.21,33.65-2.46,52.92-8.05
			c25.96-7.53,52.44-26.27,75.81-42.81c24.13-17.08,44.98-31.83,62.12-32.2c0.34-0.01,0.68-0.01,1.03-0.01
			c16.31,0,36.56,8.38,57.04,23.6c20.02,14.87,38.96,35.29,53.35,57.5c16.93,26.13,29.42,65.41,39.45,96.97
			c1.65,5.18,3.23,10.16,4.75,14.83c9.28-1.98,27.32-7.25,49.97-20.97c11.67-7.07,19.41-11.99,25.05-15.58
			c11.16-7.1,14.53-9.24,20.49-9.24c0.52,0,1.06,0.02,1.64,0.06c4.53,0.29,8.75,2.79,11.88,7.04c5.18,7.03,6.85,17.77,4.37,28.01
			c-0.55,2.29-0.79,5.25-1.07,8.67c-1,12.42-2.5,31.2-22.89,51.76c-16.48,16.62-38.92,30.12-74.21,44.52
			c1.46,5.58,2.87,13.54,2.6,22.87c-1.07,37.79-5.53,65.78-13.28,83.43l3.32,0.09c3.54,0.1,6.89,1.5,9.44,3.96
			c1.13,1.09,2.06,2.34,2.75,3.68c5.26,1.2,12.48,4.04,18.74,10.75c9.19,9.84,13.17,24.61,11.83,43.88
			c-2.98,42.97-37.58,91.03-79.44,91.03c-3.97,0-7.9-0.45-11.78-1.33c-7.24,22.44-18.87,46.98-43.67,63.38l-0.27,0.18l-0.28,0.16
			c-1.68,0.93-3.34,1.85-5,2.75c-1.7,1.7-3.49,3.32-5.34,4.85c6.75,11.84,19.62,37.83,22.69,68.32l0.36,3.54l-2.27,2.74
			c-0.6,0.72-12.9,15.51-26.6,26.38c6.81,11.62,18.44,33.36,17.89,45.63c-0.5,11.35-17.93,41.92-34.89,66.25
			c-16.07,23.06-40.94,54.42-72.01,79.71c23.33-11.37,64.55-26.71,117.09-26.71c17.08,0,34.32,1.66,51.25,4.95l2.15,0.42l1.68,1.4
			c3.17,2.64,78.13,65.74,118.69,151.45c1.38,2.91,1.17,6.27-0.55,8.99c-0.9,1.42-2.13,2.54-3.56,3.29
			c-0.46,0.82-1.04,1.66-1.75,2.51c0.8,5.2-0.52,9.46-3.94,12.71c-0.03,1.89-0.44,4.17-1.23,6.97c-1.26,4.42-5.34,7.5-9.93,7.5
			c-1.72,0-3.43-0.44-4.95-1.26c-5.28-2.88-26.29-12.26-74.92-12.26c-15.37,0-32.24,0.96-50.13,2.85
			c-78.3,8.26-110.24,30.55-117.82,36.82l-0.55,4.49c-0.78,6.36-6.2,11.16-12.61,11.16H545.9z M416.29,904.1
			c15.73,0.8,52.35,3.85,87.46,15.55c-21.13-17.87-39.02-40.71-52.18-60.19c-10.39-15.38-20.25-32.32-27.77-47.7
			c-11.16-22.84-10.32-27.5-9.95-29.49c1.33-7.29,11.33-24.08,18.35-35.21c-15.17-8.37-27.92-23.04-28.57-23.79l-1.63-1.89
			l-0.35-2.47c-3.95-28.18,8.36-59.69,15.12-74.32c-0.88-0.47-1.75-0.94-2.62-1.42l-44.32,90.29l9.37-0.5l12.33,110.18
			c4.17,1.32,9.04,4.15,13.35,9.97c8.26,11.14,10.16,22.92,10.54,38.31c0.11,4.29,0.47,8.35,0.83,12.28
			C416.27,903.83,416.28,903.96,416.29,904.1z M354.18,822.77c4.24,0.78,9.01,2.18,13.91,4.59c-1.19-7.11-2.21-15.35-3.06-24.76
			c-7.49-8.11-11.08-21.64-12.79-33.28l-15.37,31.32C341.71,803.8,350.01,810.7,354.18,822.77z M605.14,702.68l10.67-37.65
			c-6.33,2.07-12.66,3.94-18.78,5.75c-10.64,3.14-20.73,6.12-29.31,9.67L605.14,702.68z M559.6,701.63
			c-6.4-6.82-12.36-12.21-15.46-14.92c-0.09,0-0.18,0.01-0.27,0.01c-6.57,3.08-12.74,7.68-18.47,13.73L559.6,701.63z M471.45,668.32
			c0.53,6.64,1.38,15.24,2.75,25.47l36.8-13.33c-0.85-0.25-1.72-0.5-2.6-0.76c-3.82-1.11-8.02-2.33-12.69-3.65
			C487.76,673.83,479.65,671.24,471.45,668.32z M739.42,418.22l-1.23-10.65l-3.67-2.36c-3.49-2.25-8.16-3.39-13.87-3.39
			c-12.03,0-28.23,4.76-49.28,14.52L739.42,418.22z M716.63,375.93c4.16,0.57,8.3,1.32,12.38,2.27l0.31,0.07l0.3,0.09
			c2.02,0.63,3.84,1.44,5.48,2.37l-1.12-9.76L716.63,375.93z"/>
		<g id="XMLID_2_">
			<g>
				<path class="st0" d="M853.32,181c6.29,0.4,11.57,11.98,8.53,24.57c-3.05,12.58,2.03,32.48-21.73,56.44
					c-17.73,17.89-43.05,31.59-78.73,45.57v0.01l-0.08,0.03c-7.73,3.02-15.94,6.07-24.66,9.17l-0.33,0.11
					c-4.84,1.72-9.82,3.45-14.98,5.21c-56.59,19.33-223.43,74.04-242.9,78.58c11.61,5,19.79,7.14,19.79,7.14s-11.07,8.92-26.04,8.59
					c-1.9-0.04-3.86-0.23-5.87-0.61c-17.86-3.33-32.08-12.58-54.3-33.22c-21.56-20.03-56.42-0.53-57.14-0.13
					c0.14-0.13,1.3-1.2,3.23-2.81c-16.9,6.74-34.15,11.71-50.67,15.39l5.2,21.96l0.58-0.51c1.07-0.95,2.47-1.46,3.9-1.42
					l154.99,4.28l48.58,1.34c2.08-0.8,4.28-1.64,6.58-2.52l1.04,2.73l64.74,1.79c-6.16-4.3-12.59-10.31-12.59-10.31
					s8.18,3.58,27.09-2.94c18.91-6.52,63.26-35.99,119.54-22.96c9.83,3.07,12.03,11.57,12.03,11.57
					c-16.98-10.92-47.28-2.02-84.84,17.17c-7.47,3.82-13.79,6.6-19.21,8.63L748.99,427l15.36,0.42c1.41,0.03,2.76,0.6,3.77,1.58
					c1.4,1.34,2,3.31,1.61,5.2c0,0,32.4-0.72,29.14,46.4c-3.27,47.11-46.42,96.56-87.94,79.77l10.55-22.64l-3.23-5.44
					c-2.51,7.86-4.77,17.57-7.77,27.95c-6.57,22.77-16.71,48.78-40.9,65.7c-0.59,0.42-1.2,0.84-1.81,1.24
					c-2.59,1.44-5.14,2.83-7.66,4.19c0.63-0.19,1.01-0.32,1.09-0.34c-3.29,3.35-6.96,6.33-10.9,9.01
					c-6.73,4.59-14.28,8.32-22.21,11.52c-22.01,8.91-46.95,13.78-65.48,21.83c-5.79,2.51-10.63,3.97-15.34,4.55
					c-1.88,0.24-3.73,0.33-5.61,0.3c-10.62-0.16-22.14-4.33-43.66-10.37c-13.43-3.77-25.75-8.15-35.83-12.11
					c0.27,7.17,1.29,24.68,5.09,49.59l0.14,0.86c5.14,33.35,15.25,79.7,35.14,132.11c11.58,30.56,26.49,63.18,45.67,96.49l0.07,0.04
					c-0.01,0.01-0.01,0.03-0.02,0.04c0.45,0.78,0.88,1.55,1.33,2.33c-71.16-24.16-128.94-144.76-127.36-153.43
					c1.57-8.67,22.54-40.52,22.54-40.52c-17.03-5.05-34.69-25.54-34.69-25.54c-4.74-33.86,16.85-74.71,18.08-77
					c-6.46-2.98-12.29-6.2-17.56-9.59l-0.04,0.08l-0.33-0.16c0.06-0.02,0.1-0.04,0.15-0.06c-33.87-21.92-44.45-51.25-48.31-72.35
					c-1.99-10.88-2.19-19.57-2.87-23.91c-0.26-1.63-0.56-3.21-0.89-4.74l-0.1,0.13l-0.9-0.71c0.33-0.05,0.61-0.08,0.85-0.1
					c-2.29-10.23-5.86-17.81-7.06-20.17l-4.68-0.15c-2.21-0.15-4.14-1.59-4.91-3.67l-21.9-58.94l0.08,0.34
					c-7.08,1.87-13.85,3.44-20.21,4.77l-0.36,0.07c-29.2,6.07-49.57,6.89-49.57,6.89c-64.68,0.21-83.96-36.9-84.58-48.72
					c-0.63-11.81,33.37-21.14,65.92-29.85c30.92-8.27,63.5-23.64,66.69-25.16c0.31-8.35,0.2-17.31-0.69-26.29
					c-3.48-35.12-4.11-151.24,36.7-186.04c40.82-34.81,78.47-18.35,131.94-33.86c53.48-15.5,106-74.04,135.74-74.67
					c29.74-0.63,74.99,32.27,104.1,77.2c20.44,31.55,34.57,84.29,45.55,116.75c3.43-0.34,27.31-3.37,60.16-23.27
					C846.62,183.03,847.02,180.59,853.32,181z M759.65,455.84l2.12-4.54l-0.24,0.08c-1.43,0.52-2.59,1.6-3.22,2.99l-28.71,63.41
					c-0.89,1.97-2.82,3.26-4.98,3.32l-1.76-0.05c-1.73,3.03-3.2,6.83-4.6,11.21c0.29-0.2,3.48-2.25,6.96-2.55l31.02-66.56l1.35-6.69
					C757.59,456.46,758.37,456.1,759.65,455.84z M478.06,400.53L649.2,292.05c-16.02,3.52-39.61,10-65.66,17.64l-68.25,20.74
					c-48.49,15.15-90.81,29.05-95.91,30.73l41.39-14.15l-44.34,13.47c0.81,0.29,1.61,0.6,2.4,0.93v0.01
					c17.4,7.25,31.4,25.02,46.18,32.84C469.63,396.71,474.05,398.79,478.06,400.53z M360.95,377.35l-13.03,3.96L358.9,379
					C359.52,378.49,360.21,377.94,360.95,377.35z"/>
				<path class="st0" d="M854.14,794.61c2.58,21.75-1.57,50.66-9.15,57.38c-7.59,6.73-3.15,8.3-13.74,12.45
					c-10.59,4.15-45.65,4.72-59.38-13.16c-1.68-2.19-3.34-4.38-4.97-6.59c-6.16-8.32-11.8-16.8-15.82-25.84
					c-6.63-6.53-7.85-14.75-7.85-15.2l2.92-0.03c-0.69-3.5-1.1-7.1-1.18-10.82l0.04-0.06c-6.89-1.93-12.94-8.23-9.11-21.64
					c0.42-1.46,0.99-2.91,1.68-4.34c-15.04-1.57-18.53-10.56-18.15-19.77c-1.85,1.96-3.64,3.74-5.37,5.36l0.51-0.13l-14.56,59.17
					c0.05,0.13,0.09,0.28,0.11,0.43l-0.21-0.03l-0.46,1.87l-13.48,22.16c0.07,0.1,0.14,0.19,0.2,0.29l-0.32-0.09l-14.61,24.01
					l-4.19-0.84l-3.18-53.37l-0.48-0.08c0,0,0.15-0.36,0.42-0.9l-0.11-1.79l2.64-11.84l6.31-28.28l0.16-0.04
					c-4.2-3.94-7.18-10.83-4.83-18.71c1.52-5.13,6.31-10.32,12.46-16.47c0.03-0.03,0.06-0.06,0.08-0.08l18.89-84.69l-0.01-0.01
					l0.02-0.03l6.75-30.23c0,0,3.66-7.13,19.58-6.22c15.92,0.92,20.13,15.37,20.13,15.37l-9.53,40.39l-6.36,26.96
					c12.31-5.54,23.25-9.28,24.19-9.9c19-12.39,35.61,8.78,41.03,18.41c1.57,0.75,10.88,5.34,13.99,9.71
					c3.4,4.78,25.55,32.1,28.57,38.89C840.79,753.08,851.57,772.86,854.14,794.61z M738.05,765.84c0.1-0.2,0.2-0.4,0.31-0.6
					l-0.12-0.12L738.05,765.84z"/>
				<path class="st0" d="M348.71,830.58l-34.06-3.98l-7.9,16.09c15.84-9.43,32.34-12.01,32.98-12.01
					C339.73,830.68,343.31,830.05,348.71,830.58z M849.9,1069.92c0.31,0.65-0.3,1.36-0.98,1.16c-0.93-0.29-2.23-0.66-3.89-1.1
					l0.59,0.23c2.54,3-0.56,5.77-2.17,7.16c-1.62,1.38-0.7,2.08-0.23,4.38c0.46,2.31,0.69,4.62-2.31,6.7
					c-3,2.08-1.62,2.54-1.62,5.08c0,1.38-0.47,3.37-0.91,4.9c-0.32,1.13-1.6,1.66-2.63,1.1c-8.1-4.41-43.17-19.57-130.01-10.4
					c-96.47,10.18-124.98,41.1-124.98,41.1l-0.94,7.62c-0.25,2.11-2.04,3.69-4.16,3.69h-21.25v-4.48l-0.41-18.54
					c-7-5.62-69.87-54.82-139.82-67.22c-65.79-11.65-138.46,7.94-154.13,12.54c-0.23,0.07-0.45,0.07-0.65,0.03
					c-0.8-0.17-1.33-1.11-0.88-1.94l41.37-76.14c-25.34-5.64-32.17-30.13-35.34-50.44c-0.28-1.8-0.5-3.58-0.67-5.32l-0.03,0.06
					c0,0-5.39-7.59-8.39-14.41c-22-54.86,28.61-148.51,28.61-148.51c44.73-98.24,119.35-133.09,126.16-136.11l0.33,0.16
					L319.1,817.53c8.08,1.32,17.28,4.54,27.21,10.98l0.66-0.17c0.07,0.24,0.13,0.48,0.19,0.73c0.78,0.51,1.56,1.04,2.35,1.6
					c8.49,0.98,21.02,4.84,31.32,17.88c0.6,0.75,1.16,1.48,1.72,2.19c0.15-0.03,0.5-0.1,1.02-0.14l0.26-0.02
					c2.68-0.17,8.88,0.36,14.24,7.59c7.07,9.54,8.53,19.87,8.87,33.45c0.19,7.88,1.21,15.07,1.45,20.71
					c2.98,0.03,95.14,1.46,141.99,41.39c0,0,58.78-40.83,145.25-36.87c12.09,0.55,24.73,1.98,37.82,4.52
					C733.45,921.37,809.67,984.92,849.9,1069.92z M371.36,937.24l15-10.11c-1.5-0.82-2.58-2.13-2.97-4.08
					c-1.59,3.74-3.71,6.77-5.49,8.64c-3.75,3.93-9.49,4.06-17.36,4.97l-3.2,9.09l13.1-10.26
					C370.44,935.49,370.85,936.15,371.36,937.24z M383.1,901.12l-0.11-9.27c-2.26,0.87-4.63,1.22-7.04,1.11
					C377.39,893.81,380.67,896.17,383.1,901.12z"/>
				<path class="st0" d="M766.9,844.69l-0.06,0.05l-44.16-27.48l-0.01-0.01c2.91-24.76,3.1-42.81,3.1-42.81l-30.14,142.3v0.11
					c-86.47-3.96-145.25,36.87-145.25,36.87c-46.85-39.93-139.01-41.36-141.99-41.39c-0.24-5.64-1.26-12.83-1.45-20.71
					c-0.34-13.58-1.8-23.91-8.87-33.45c-5.36-7.23-11.56-7.76-14.24-7.59l-13.06-116.67c0,0-0.2,32.91,2.44,64.54l-14.01-49.89
					c0,0,0,38.85,13.92,50c0.03,0.03,0.07,0.05,0.1,0.08c1.81,21.58,4.94,42.52,10.35,51.96c-0.52,0.04-0.87,0.11-1.02,0.14
					c-0.56-0.71-1.12-1.44-1.72-2.19c-10.3-13.04-22.83-16.9-31.32-17.88c-0.79-0.56-1.57-1.09-2.35-1.6
					c-0.06-0.25-0.12-0.49-0.19-0.73c-4.13-16.12-17.33-22.07-17.33-22.07l16.67,22.24c-9.93-6.44-19.13-9.66-27.21-10.98
					l91.46-186.31l0.04-0.08c5.27,3.39,11.1,6.61,17.56,9.59c-1.23,2.29-22.82,43.14-18.08,77c0,0,17.66,20.49,34.69,25.54
					c0,0-20.97,31.85-22.54,40.52c-1.58,8.67,56.2,129.27,127.36,153.43c62.6-45.15,110.29-126.94,115.14-146.37l1.61,0.36
					l-2.64,11.84l0.11,1.79c-0.27,0.54-0.42,0.9-0.42,0.9l0.48,0.08l3.18,53.37l4.19,0.84l14.61-24.01l0.32,0.09
					c-0.06-0.1-0.13-0.19-0.2-0.29l13.48-22.16l0.46-1.87l0.21,0.03c-0.02-0.15-0.06-0.3-0.11-0.43l14.56-59.17l-0.51,0.13
					c1.73-1.62,3.52-3.4,5.37-5.36c-0.38,9.21,3.11,18.2,18.15,19.77c-0.69,1.43-1.26,2.88-1.68,4.34
					c-3.83,13.41,2.22,19.71,9.11,21.64l-0.04,0.06c0.08,3.72,0.49,7.32,1.18,10.82l-2.92,0.03c0,0.45,1.22,8.67,7.85,15.2
					C755.1,827.89,760.74,836.37,766.9,844.69z M733.3,792.32l0.08-0.18C733.36,792.16,733.33,792.23,733.3,792.32l-10.37,23.39
					C729.04,809.08,732.62,794.15,733.3,792.32z"/>
				<path class="st0" d="M722.68,817.26l44.16,27.48c-23.36-2.23-43.18-26.24-44.17-27.47L722.68,817.26z"/>
				<path class="st0" d="M761.39,307.59c0.61,1.42,5.08,12.5,4.66,27.56c-0.45,15.99-2.26,64.99-16.21,87.23
					c-0.27,2.12-0.56,3.7-0.85,4.6l-7.71-66.94L528.31,420.9l-1.04-2.73c55.89-21.36,172.75-64.96,205.2-68.97
					c0,0,5.91-1.27,7.22-1.27c0.05,0,0.12,0.01,0.2,0.03l-3.57-31.06l0.33-0.11c1.98,0.19,11.09,1.89,14.32,12.57
					c1.06,3.52,1.57,13.07,1.67,24.92c1.8,0.96,3.05,1.64,3.05,1.64l-3.04,0.87c0.06,15.29-0.49,33.81-1.34,48.1l5.03-48.9
					l4.97-48.37L761.39,307.59z"/>
				<path class="st0" d="M761.77,451.3l-2.12,4.54c-1.28,0.26-2.06,0.62-2.06,0.62l-1.35,6.69l-31.02,66.56
					c-3.48,0.3-6.67,2.35-6.96,2.55c1.4-4.38,2.87-8.18,4.6-11.21l1.76,0.05c2.16-0.06,4.09-1.35,4.98-3.32l28.71-63.41
					c0.63-1.39,1.79-2.47,3.22-2.99L761.77,451.3z"/>
				<path class="st0" d="M761.31,307.62l-4.97,48.37l-0.65-0.07c0,0-1.25-0.68-3.05-1.64c-0.1-11.85-0.61-21.4-1.67-24.92
					c-3.23-10.68-12.34-12.38-14.32-12.57C745.37,313.69,753.58,310.64,761.31,307.62z"/>
				<path class="st0" d="M756.34,355.99l-5.03,48.9c0.85-14.29,1.4-32.81,1.34-48.1l3.04-0.87L756.34,355.99z"/>
				<path class="st0" d="M754.18,679.27l-17.65-16.89C738.28,663.95,752.03,676.31,754.18,679.27z"/>
				<path class="st0" d="M736.53,662.38l17.65,16.89c-0.94,0.62-11.88,4.36-24.19,9.9l6.36-26.96l0.05,0.05c0.01,0,0.01,0,0.02,0.01
					L736.53,662.38z"/>
				<path class="st0" d="M748.99,426.98V427l-113.92-3.15c5.42-2.03,11.74-4.81,19.21-8.63c37.56-19.19,67.86-28.09,84.84-17.17
					c0,0-2.2-8.5-12.03-11.57c-56.28-13.03-100.63,16.44-119.54,22.96c-18.91,6.52-27.09,2.94-27.09,2.94s6.43,6.01,12.59,10.31
					l-64.74-1.79l212.97-60.86L748.99,426.98z"/>
				<path class="st0" d="M736.32,316.9l3.57,31.06c-0.08-0.02-0.15-0.03-0.2-0.03c-1.31,0-7.22,1.27-7.22,1.27
					c-32.45,4.01-149.31,47.61-205.2,68.97c-2.3,0.88-4.5,1.72-6.58,2.52l-48.58-1.34l0.08-2.93c14.97,0.33,26.04-8.59,26.04-8.59
					s-8.18-2.14-19.79-7.14c19.47-4.54,186.31-59.25,242.9-78.58C726.5,320.35,731.48,318.62,736.32,316.9z"/>
				<path class="st0" d="M733.38,792.14l-0.08,0.18C733.33,792.23,733.36,792.16,733.38,792.14z"/>
				<path class="st0" d="M722.93,815.71l10.37-23.39C732.62,794.15,729.04,809.08,722.93,815.71z"/>
				<path class="st0" d="M695.63,916.74l30.14-142.3c0,0-0.19,18.05-3.1,42.81l0.01,0.01l-0.01,0.01
					C719.14,847.29,711.62,887.17,695.63,916.74z"/>
				<path class="st0" d="M718.25,532.29l3.23,5.44l-10.55,22.64l-0.45-0.13C713.48,549.86,715.74,540.15,718.25,532.29z"/>
				<path class="st0" d="M699.42,642.9l-0.02,0.03l-29.75-16.91C670.37,626.31,693.63,635.75,699.42,642.9z"/>
				<path class="st0" d="M661.2,631.03c-0.08,0.02-0.46,0.15-1.09,0.34c2.52-1.36,5.07-2.75,7.66-4.19c0.61-0.4,1.22-0.82,1.81-1.24
					l0.05,0.07l0.02,0.01l29.75,16.91l0.01,0.01l-18.89,84.69c-0.02,0.02-0.05,0.05-0.08,0.08c-6.15,6.15-10.94,11.34-12.46,16.47
					c-2.35,7.88,0.63,14.77,4.83,18.71l-0.16,0.04l-6.31,28.28l-1.61-0.36c0.24-0.96,0.37-1.77,0.4-2.41
					c0.61-13.7-20.71-47.51-20.71-47.51c15.23-10.05,31.37-29.54,31.37-29.54c-3.95-39.29-25.42-71.24-25.42-71.24l-0.07-0.11
					C654.24,637.36,657.91,634.38,661.2,631.03z"/>
				<path class="st0" d="M675.79,711.39c0,0-16.14,19.49-31.37,29.54c0,0,21.32,33.81,20.71,47.51c-0.03,0.64-0.16,1.45-0.4,2.41
					c-4.85,19.43-52.54,101.22-115.14,146.37l4.5-13.26c-1.89,3.68-3.83,7.31-5.81,10.89l-0.07-0.04l34.37-121.31l-17.94-68.62
					c0.39,0.98,13,32.57,19.78,62.13l22.16-78.2c-8.82,4.83-15.59,5.25-15.59,5.25c-2.24-7.57-6.8-15.39-12.15-22.7l-0.42-0.57
					c-13.05-17.62-30.55-32.1-31.1-32.55l62.99,37.4l18-63.53c0,0-2.73,27.65-10.21,68.16l0.09,0.05c-0.04,0.03-0.08,0.07-0.11,0.1
					c-2.12,11.46-4.62,23.95-7.53,37.12l39.82-117.39C650.37,640.15,671.84,672.1,675.79,711.39z"/>
				<path class="st0" d="M650.3,640.04l0.07,0.11l-39.82,117.39c2.91-13.17,5.41-25.66,7.53-37.12c0.03-0.03,0.07-0.07,0.11-0.1
					l-0.09-0.05c7.48-40.51,10.21-68.16,10.21-68.16l-0.22-0.55C636.02,648.36,643.57,644.63,650.3,640.04z"/>
				<path class="st0" d="M649.2,292.05L478.06,400.53c-4.01-1.74-8.43-3.82-13.05-6.27c-14.78-7.82-28.78-25.59-46.18-32.84v-0.01
					l0.04-0.08c0,0,0.09-0.03,0.26-0.09l0.07-0.02c0.05-0.02,0.11-0.04,0.18-0.06c5.1-1.68,47.42-15.58,95.91-30.73l68.25-20.74
					C609.59,302.05,633.18,295.57,649.2,292.05z"/>
				<path class="st0" d="M628.09,651.56l0.22,0.55l-18,63.53l-62.99-37.4l-0.01-0.01l-0.04-0.29c4.71-0.58,9.55-2.04,15.34-4.55
					C581.14,665.34,606.08,660.47,628.09,651.56z"/>
				<path class="st0" d="M606.58,728.81l-22.16,78.2c-6.78-29.56-19.39-61.15-19.78-62.13c-0.01-0.01-0.01-0.02-0.01-0.02
					c12.02-9.49,13.96-29.91,14.21-33.5c5.35,7.31,9.91,15.13,12.15,22.7C590.99,734.06,597.76,733.64,606.58,728.81z"/>
				<path class="st0" d="M564.64,744.88l17.94,68.62l-34.37,121.31c-19.18-33.31-34.09-65.93-45.67-96.49l0.14-0.05l19.63-93.64
					c0.7,0.42,1.42,0.8,2.19,1.1c0,0,18.07,5.9,40.13-0.87C564.63,744.86,564.63,744.87,564.64,744.88z"/>
				<path class="st0" d="M578.42,710.79l0.42,0.57c-0.25,3.59-2.19,24.01-14.21,33.5c-22.06,6.77-40.13,0.87-40.13,0.87
					c-0.77-0.3-1.49-0.68-2.19-1.1h-0.01c-12.35-7.43-13.96-32.74-14.12-35.92l0.22-0.33L578.42,710.79z"/>
				<path class="st0" d="M578.42,710.79l-70.02-2.41c7.44-11.24,18.36-23.45,33.26-29.98v-0.16c1.88,0.03,3.73-0.06,5.61-0.3
					l0.04,0.29l0.01,0.01C547.87,678.69,565.37,693.17,578.42,710.79z"/>
				<path class="st0" d="M554.41,1137.06v4.48l-23.61-6.2v-5.23c-42.52-41.36-132.96-46.71-191.14-44.95l-80.31-21.08l0.05-0.21
					c0.2,0.04,0.42,0.04,0.65-0.03c15.67-4.6,88.34-24.19,154.13-12.54c69.95,12.4,132.82,61.6,139.82,67.22L554.41,1137.06z"/>
				<path class="st0" d="M554.41,1141.54l-20.57,0.21c-1.68,0.02-3.04-1.33-3.04-3.01v-3.4L554.41,1141.54z"/>
				<path class="st0" d="M554.09,923.96l-4.5,13.26c-0.45-0.78-0.88-1.55-1.33-2.33c0.01-0.01,0.01-0.03,0.02-0.04
					C550.26,931.27,552.2,927.64,554.09,923.96z"/>
				<path class="st0" d="M541.66,678.24v0.16l-74.4,26.95c-3.8-24.91-4.82-42.42-5.09-49.59c10.08,3.96,22.4,8.34,35.83,12.11
					C519.52,673.91,531.04,678.08,541.66,678.24z"/>
				<path class="st0" d="M467.26,705.35l74.4-26.95c-14.9,6.53-25.82,18.74-33.26,29.98l-0.22,0.33
					c-8.49,12.93-12.36,24.49-12.36,24.49c-13.07-3.71-25.87-22.97-28.42-26.99L467.26,705.35z"/>
				<path class="st0" d="M522.31,744.63l-19.63,93.64c4.44-60.9,19.18-92.72,19.62-93.64H522.31z"/>
				<path class="st0" d="M522.3,744.63c-0.44,0.92-15.18,32.74-19.62,93.64l-0.14,0.05c-19.89-52.41-30-98.76-35.14-132.11
					c2.55,4.02,15.35,23.28,28.42,26.99c0,0,3.87-11.56,12.36-24.49C508.34,711.89,509.95,737.2,522.3,744.63z"/>
				<path class="st0" d="M354.88,382.46c0.72-0.4,35.58-19.9,57.14,0.13c22.22,20.64,36.44,29.89,54.3,33.22
					c2.01,0.38,3.97,0.57,5.87,0.61l-0.08,2.93l-154.99-4.28c-1.43-0.04-2.83,0.47-3.9,1.42l-0.58,0.51l-5.2-21.96
					c16.52-3.68,33.77-8.65,50.67-15.39C356.18,381.26,355.02,382.33,354.88,382.46z"/>
				<path class="st0" d="M460.77,347.01l-41.39,14.15c-0.07,0.02-0.13,0.04-0.18,0.06l-0.07,0.02c-0.17,0.06-0.26,0.09-0.26,0.09
					l-0.04,0.08c-0.79-0.33-1.59-0.64-2.4-0.93L460.77,347.01z"/>
				<path class="st0" d="M386.36,927.13l-15,10.11c-0.51-1.09-0.92-1.75-0.92-1.75l-13.1,10.26l3.2-9.09
					c7.87-0.91,13.61-1.04,17.36-4.97c1.78-1.87,3.9-4.9,5.49-8.64C383.78,925,384.86,926.31,386.36,927.13z"/>
				<path class="st0" d="M370.77,733.91l13.06,116.67l-0.26,0.02c-5.41-9.44-8.54-30.38-10.35-51.96c-0.03-0.03-0.07-0.05-0.1-0.08
					l0.09-0.11C370.57,766.82,370.77,733.91,370.77,733.91z"/>
				<path class="st0" d="M382.99,891.85l0.11,9.27c-2.43-4.95-5.71-7.31-7.15-8.16C378.36,893.07,380.73,892.72,382.99,891.85z"/>
				<path class="st0" d="M359.2,748.56l14.01,49.89l-0.09,0.11C359.2,787.41,359.2,748.56,359.2,748.56z"/>
				<path class="st0" d="M362.07,558.65l-0.03,0.01l-11.19-19.17l7.36-9.36l0.1-0.13c0.33,1.53,0.63,3.11,0.89,4.74
					C359.88,539.08,360.08,547.77,362.07,558.65z"/>
				<path class="st0" d="M350.85,539.49l11.19,19.17c-51.27,1.11-68.33-31.42-72.48-59.2c-3.93-26.34,7.49-45.61,9.56-47.89
					l0.36-0.07l13.29,22.78c3.53-6.91,8.16-10.56,8.16-10.56l11.28,43.85l16.02,27.44c2.42-4.12,6.76-5.27,9.08-5.59l0.9,0.71
					L350.85,539.49z"/>
				<path class="st0" d="M347.92,381.31l13.03-3.96c-0.74,0.59-1.43,1.14-2.05,1.65L347.92,381.31z"/>
				<path class="st0" d="M358.16,529.32c-0.24,0.02-0.52,0.05-0.85,0.1c-2.32,0.32-6.66,1.47-9.08,5.59l-16.02-27.44l-11.28-43.85
					c0,0-4.63,3.65-8.16,10.56l-13.29-22.78c6.36-1.33,13.13-2.9,20.21-4.77l-0.08-0.34l21.9,58.94c0.77,2.08,2.7,3.52,4.91,3.67
					l4.68,0.15C352.3,511.51,355.87,519.09,358.16,529.32z"/>
				<path class="st0" d="M314.65,826.6l34.06,3.98c-5.4-0.53-8.98,0.1-8.98,0.1c-0.64,0-17.14,2.58-32.98,12.01L314.65,826.6z"/>
				<path class="st0" d="M346.97,828.34l-0.66,0.17l-16.67-22.24C329.64,806.27,342.84,812.22,346.97,828.34z"/>
				<path class="st0" d="M259.35,1064.08l80.31,21.08c-29.92,0.9-51.31,3.69-53.3,4.42c-5.83,2.16-19.66,4.76-21.18,3.46
					c-1.51-1.3-1.08-2.59-0.64-4.32c0.43-1.73,1.08-3.68,0.86-4.76c-0.22-1.08-2.16-1.3-3.89-4.11c-1.73-2.8,0.65-1.51,1.08-4.97
					c0.43-3.45-1.73-3.24-3.89-5.18C256.54,1067.75,259.35,1064.08,259.35,1064.08z"/>
			</g>
			<g>
			</g>
		</g>
	</g>
</g>
<g id="레이어_2">
	<g id="XMLID_1_">
		<g>
			<path class="st1" d="M736.65,316.78c-4.94,1.76-10.04,3.53-15.31,5.33c-56.57,19.32-223.33,74.01-242.89,78.58
				c-4.12-1.77-8.67-3.91-13.44-6.43c-14.78-7.82-28.77-25.59-46.17-32.85l0.03-0.08c0,0,177.39-58.51,234.33-70.12
				c34.69-7.07,75.53-21.12,109.91-36.52c-3.67-3.59-7.66-13.51-12.18-26.87c3.49-0.35,27.36-3.41,60.15-23.27
				c35.54-21.52,35.94-23.96,42.24-23.55c6.29,0.4,11.57,11.98,8.53,24.57c-3.05,12.58,2.03,32.48-21.73,56.44
				c-17.74,17.88-43.05,31.58-78.73,45.57C753.64,310.62,745.41,313.67,736.65,316.78z"/>
			<path class="st1" d="M823.23,743.24c-0.42-3.05-0.92-5.39-1.43-6.7c-2.42-6.18-22.58-29.31-25-35.62
				c-0.3-0.77-0.83-1.89-1.59-3.24c1.56,0.75,10.88,5.34,13.99,9.71c3.4,4.78,25.55,32.1,28.57,38.89
				c3.02,6.8,13.8,26.58,16.37,48.33c2.58,21.75-1.57,50.66-9.15,57.38c-7.59,6.73-3.15,8.3-13.74,12.45
				c-10.59,4.15-45.65,4.72-59.38-13.16c-1.68-2.19-3.34-4.37-4.97-6.58c-6.16-8.32-11.81-16.8-15.83-25.85
				c4.1,4.05,10.28,7.44,19.53,7.95c20.8,1.13,30.06,0.21,35.01-15.19c6.89-3.62,11.87-10.29,15.65-22.64
				C825.29,775.82,824.8,754.63,823.23,743.24z"/>
			<path class="st0" d="M849.9,1069.92c0.31,0.65-0.3,1.36-0.98,1.16c-0.82-0.25-1.91-0.57-3.28-0.94
				c-14.49-3.92-60.08-13.76-138.14-8.63c-31.54,2.08-58.82,8.96-81.24,17.29c-58.26-55.59-64.25-115.02-64.73-131.73
				c20.94-11.4,69.88-33.16,134.1-30.22c12.09,0.55,24.73,1.98,37.82,4.52C733.45,921.37,809.67,984.92,849.9,1069.92z"/>
			<path class="st2" d="M626.26,1078.8c22.42-8.33,49.7-15.21,81.24-17.29c78.06-5.13,123.65,4.71,138.14,8.63l-0.02,0.07
				c2.54,3-0.56,5.77-2.17,7.16c-1.62,1.38-0.7,2.08-0.23,4.38c0.46,2.31,0.69,4.62-2.31,6.7c-3,2.08-1.62,2.54-1.62,5.08
				c0,1.38-0.47,3.37-0.91,4.9c-0.32,1.13-1.6,1.66-2.63,1.1c-8.1-4.41-43.17-19.57-130.01-10.4
				c-96.47,10.18-124.98,41.1-124.98,41.1l-0.94,7.62c-0.25,2.11-2.04,3.69-4.16,3.69h-21.25v-4.48l-0.41-18.54
				c0.44,0.35,0.66,0.53,0.66,0.53S580.22,1095.89,626.26,1078.8z"/>
			<path class="st3" d="M784.41,810.49c-7.99,4.53-18.87,7.33-27.42,2.36c-13.55-7.89-5.41-19.47-5.41-19.47l-0.02-0.11
				c4.69-0.95,12.61-6.36,19.31-11.5c0.59,0.15,1.19,0.28,1.81,0.39c0.72,3.08,1.83,6.1,3.49,6.97c3.7,1.95,14.41,1.95,20.06-4.29
				c5.05-5.57,19.31-27.21,27-41.6c1.57,11.39,2.06,32.58-1.97,45.73c-3.78,12.35-8.76,19.02-15.65,22.64
				c-2.41,1.27-5.05,2.16-7.96,2.79c-11.22,2.45-13.16-3.76-13.16-3.76L784.41,810.49z"/>
			<path class="st4" d="M680.52,727.63c5.15-5.15,11.26-10.99,17.2-18.02c6.49-7.69,20.03-14.94,32.23-20.42
				c0.01,0,0.02-0.01,0.03-0.02c12.32-5.54,23.26-9.28,24.2-9.9c18.99-12.39,35.61,8.77,41.03,18.41c0.76,1.35,1.29,2.47,1.59,3.24
				c2.42,6.31,22.58,29.44,25,35.62c0.51,1.31,1.01,3.65,1.43,6.7c-7.69,14.39-21.95,36.03-27,41.6
				c-5.65,6.24-16.36,6.24-20.06,4.29c-1.66-0.87-2.77-3.89-3.49-6.97c-0.12-0.5-0.23-1.01-0.33-1.52
				c-0.49,0.37-0.98,0.75-1.48,1.13c-9.65-2.37-16.73-9.04-18.47-16.6c-1.11-4.85-0.59-11.33,0.16-16.44c1-0.87,1.99-1.69,2.95-2.47
				c-0.79-0.07-1.63-0.17-2.5-0.29c-6.91-0.89-16.01-2.82-21.84-5.74c-4.61-2.31-6.62-6.84-7.47-10.84c0.54-0.93,1.21-1.87,2-2.83
				c-0.74,0.11-1.55,0.25-2.39,0.41c-3.56,0.7-7.77,1.84-11.03,3.33c-6.82,3.12-21.24,9.35-30.2,10.91
				c-4.93,0.86-7.68-2.36-9.05-5.55c2.05-2.51,4.58-5.13,7.41-7.95C680.47,727.68,680.49,727.66,680.52,727.63z"/>
			<path class="st4" d="M734.25,537.4c2.95-2.38,6.88-5.56,10.48-8.8l2.08,1.26c23.79-18.3,29.37-41.22,28.59-56.09
				c1.68-3.14,3.53-5.85,7.57-7.26c4.24-1.48,10.42-2.85,15.23-3.81c0.86,5.03,1.15,10.94,0.67,17.9
				c-3.27,47.11-46.42,96.56-87.94,79.77l-0.45-0.13c0.69-2.37,1.33-4.71,1.95-7c3.14-0.43,6.9-1.34,9.68-4.03
				c5.33-5.16,6.7-6.53,7.56-7.91C729.93,540.89,731.73,539.43,734.25,537.4z"/>
			<path d="M797.65,814.4c2.91-0.63,5.55-1.52,7.96-2.79c-4.95,15.4-14.21,16.32-35.01,15.19c-9.25-0.51-15.43-3.9-19.53-7.95
				c-3.61-8.13-5.92-16.71-6.09-26.05l0.02-0.06c1.79,0.5,3.63,0.71,5.37,0.67c0.37-0.01,0.77-0.06,1.19-0.14l0.02,0.11
				c0,0-8.14,11.58,5.41,19.47c8.55,4.97,19.43,2.17,27.42-2.36l0.08,0.15C784.49,810.64,786.43,816.85,797.65,814.4z"/>
			<path class="st3" d="M798.2,462.7c-4.81,0.96-10.99,2.33-15.23,3.81c-4.04,1.41-5.89,4.12-7.57,7.26
				c-0.39-7.45-2.36-12.88-4.45-14.73c-6.53-5.77-13.36-2.58-13.36-2.58l-0.19-0.09l0.91-2c0.63-1.39,1.79-2.47,3.22-2.99l2.07-0.74
				c1.85-0.67,3.21-2.25,3.61-4.18l2.52-12.26C769.73,434.2,793.27,433.68,798.2,462.7z"/>
			<path class="st4" d="M775.4,473.77c0.78,14.87-4.8,37.79-28.59,56.09l-2.08-1.26c3.49-3.15,6.67-6.36,8.33-8.96
				c4.81-7.57,9.8-30.26,16.16-36.45C772.33,480.17,773.79,476.77,775.4,473.77z"/>
			<path class="st5" d="M772.35,780.64c0.1,0.51,0.21,1.02,0.33,1.52c-0.62-0.11-1.22-0.24-1.81-0.39
				C771.37,781.39,771.86,781.01,772.35,780.64z"/>
			<path class="st3" d="M770.95,459.04c2.09,1.85,4.06,7.28,4.45,14.73c-1.61,3-3.07,6.4-6.18,9.42
				c-6.36,6.19-11.35,28.88-16.16,36.45c-1.66,2.6-4.84,5.81-8.33,8.96c-3.6,3.24-7.53,6.42-10.48,8.8
				c-0.46-1.49-1.2-3.03-2.23-4.55c-4.45-6.57-13.18-0.98-13.76-0.6c1.37-4.32,2.83-8.08,4.53-11.09l1.83-0.06
				c2.16-0.06,4.09-1.35,4.98-3.32l27.8-61.41l0.19,0.09C757.59,456.46,764.42,453.27,770.95,459.04z"/>
			<path class="st3" d="M737.57,766.77c3.29-6.84,9.36-13.17,14.99-18.04c-0.75,5.11-1.27,11.59-0.16,16.44
				c1.74,7.56,8.82,14.23,18.47,16.6c-6.7,5.14-14.62,10.55-19.31,11.5c-0.42,0.08-0.82,0.13-1.19,0.14
				c-1.74,0.04-3.58-0.17-5.37-0.67c-6.88-1.93-12.93-8.24-9.1-21.64C736.32,769.64,736.88,768.2,737.57,766.77z"/>
			<path d="M520.68,420.69l72.38,2c3.1,2.16,6.13,3.88,8.25,4.19c5.07,0.74,11.91,5.13,33.74-3.03L748.99,427l15.36,0.42
				c1.41,0.03,2.76,0.6,3.77,1.58c1.4,1.34,2,3.31,1.61,5.2l-2.52,12.26c-0.4,1.93-1.76,3.51-3.61,4.18l-2.07,0.74
				c-1.43,0.52-2.59,1.6-3.22,2.99l-0.91,2l-27.8,61.41c-0.89,1.97-2.82,3.26-4.98,3.32l-1.83,0.06l-109.96,3.37l-7.06,0.22
				c-2.28,0.07-4.37-1.23-5.32-3.3l-30.78-67.51c-0.88-1.93-2.77-3.2-4.89-3.3l-36.98-1.68c-2.26-0.11-4.36,1.15-5.35,3.19
				l-11.39,23.69l-18.95,39.39c-1.01,2.08-3.17,3.34-5.48,3.18l-4.71-0.32l-130.74-8.77l-4.76-0.32c-2.21-0.15-4.14-1.59-4.91-3.67
				l-21.78-58.61l-1.49-4c-0.37-1-1.01-1.87-1.85-2.52l-1.13-0.87c-1.04-0.8-1.77-1.93-2.07-3.21l-2.98-13.04
				c-0.46-2.02,0.22-4.12,1.76-5.49l1.25-1.1c1.07-0.95,2.47-1.46,3.9-1.42l95.92,2.65l59.07,1.63L520.68,420.69z M729.12,491.41
				c2.07-5.35,7.94-23.81,6.56-28.82c0,0-1.56,2.42-4.32,8.63s-10.18,21.4-14.83,24.5c-4.66,3.11-15.53,9.66-32.44,11.73
				c-16.91,2.07-24.33,6.04-24.33,6.04s41.58,3.11,53.31-0.69C724.81,509.01,727.05,496.76,729.12,491.41z M355.23,441.72
				c10.01-13.46,21.91-14.32,21.91-14.32s-37.09-2.94-40.2,0.69c-3.11,3.62,10.87,67.63,21.91,72.63c3.28,1.9,5.7,2.25,5.52,1.73
				C364.2,501.93,345.22,455.17,355.23,441.72z"/>
			<path class="st1" d="M561.53,947.07c-7.26,3.95-11.15,6.65-11.15,6.65c-40.24-34.3-113.92-40.19-135.79-41.18
				c-3.57-0.17-5.76-0.2-6.2-0.21c-0.24-5.64-1.26-12.83-1.45-20.71c-0.34-13.58-1.8-23.91-8.87-33.45
				c-5.54-7.46-11.97-7.78-14.5-7.57c-0.51,0.04-0.86,0.11-1.02,0.14c-0.55-0.71-1.13-1.44-1.72-2.19
				c-10.31-13.04-22.83-16.9-31.32-17.88c-5.84-0.68-9.78,0.01-9.78,0.01c-0.96,0-37.59,5.78-54.17,31.81
				c-15.49,24.31-24.08,43.07-21.67,67.6h-0.04c0,0-5.39-7.59-8.39-14.41c-22-54.86,28.61-148.51,28.61-148.51
				C329.09,668.3,404.39,633.63,410.36,631c5.34,3.45,11.25,6.72,17.81,9.74c-1.28,2.37-22.83,43.17-18.09,76.99
				c0,0,17.66,20.49,34.69,25.54c0,0-20.97,31.85-22.54,40.52c-1.58,8.67,56.2,129.27,127.36,153.43
				c62.6-45.15,110.29-126.94,115.14-146.37l1.61,0.36l-2.64,11.84l0.11,1.77c0,0,0,0,0,0.01l1.53,25.63l1.71,28.73l4.19,0.84
				l14.73-24.21l13.48-22.16l0.56-2.27l14.56-59.17l-0.17-0.18c1.62-1.53,3.3-3.21,5.03-5.05c-0.38,9.21,3.1,18.2,18.14,19.78
				c-0.69,1.43-1.25,2.87-1.67,4.33c-3.83,13.4,2.22,19.71,9.1,21.64l-0.02,0.06c0.17,9.34,2.48,17.92,6.09,26.05
				c4.02,9.05,9.67,17.53,15.83,25.85l-0.06,0.04c-23.3-2.23-43.08-26.13-44.17-27.47c-3.53,30.02-11.05,69.9-27.04,99.47v0.11
				C631.41,913.91,582.47,935.67,561.53,947.07z"/>
			<path class="st5" d="M752.64,354.28c-0.1-11.85-0.61-21.4-1.67-24.92c-3.23-10.67-12.33-12.37-14.32-12.58
				c8.76-3.11,16.99-6.16,24.74-9.2c0.59,1.39,5.08,12.49,4.66,27.57c-0.46,15.99-2.26,65.03-16.21,87.26
				C751.49,409.76,752.84,377.58,752.64,354.28z"/>
			<path class="st5" d="M753.01,745.97c0.87,0.12,1.71,0.22,2.5,0.29c-0.96,0.78-1.95,1.6-2.95,2.47
				C752.7,747.75,752.86,746.83,753.01,745.97z"/>
			<path class="st4" d="M580.47,412.39c0.29,0.27,6.56,6.11,12.59,10.3l-72.38-2c52.71-20.22,178.01-67.32,211.79-71.49
				c0,0,5.91-1.27,7.22-1.27c0.93,0,8.57,4.01,12.95,6.35c0.2,23.3-1.15,55.48-2.8,68.13c-0.28,2.11-0.56,3.68-0.85,4.57V427
				l-113.94-3.15c5.42-2.02,11.76-4.81,19.23-8.63c37.56-19.19,67.86-28.09,84.84-17.17c0,0-2.2-8.5-12.03-11.57
				c-56.28-13.03-100.63,16.44-119.54,22.96C589.1,415.8,580.86,412.55,580.47,412.39z"/>
			<path class="st3" d="M719.43,746.99c0.23-5.53,1.85-11.13,3.2-15.27c0.25-0.76,0.61-1.54,1.07-2.33c0.85,4,2.86,8.53,7.47,10.84
				c5.83,2.92,14.93,4.85,21.84,5.74c-0.15,0.86-0.31,1.78-0.45,2.76c-5.63,4.87-11.7,11.2-14.99,18.04
				C722.53,765.19,719.05,756.2,719.43,746.99z"/>
			<path class="st3" d="M750.97,329.36c1.06,3.52,1.57,13.07,1.67,24.92c-4.38-2.34-12.02-6.35-12.95-6.35
				c-1.31,0-7.22,1.27-7.22,1.27c-33.78,4.17-159.08,51.27-211.79,71.49l-48.57-1.34l0.08-2.93c14.97,0.33,26.04-8.59,26.04-8.59
				s-8.17-2.14-19.78-7.14c19.56-4.57,186.32-59.26,242.89-78.58c5.27-1.8,10.37-3.57,15.31-5.33
				C738.64,316.99,747.74,318.69,750.97,329.36z"/>
			<path class="st6" d="M750.93,227.82c4.52,13.36,8.51,23.28,12.18,26.87c-34.38,15.4-75.22,29.45-109.91,36.52
				c-56.94,11.61-234.33,70.12-234.33,70.12l-0.03,0.08c-4.05-1.69-8.29-2.82-12.77-3.11c-18.8-1.23-40,14.71-47.95,21.35
				c-22.22,8.87-45.07,14.66-66.04,18.49c0.43-1.87,4.62-20.36,5.5-43.41c0.32-8.36,0.2-17.31-0.69-26.29
				c-0.37-3.72-0.7-8.33-0.96-13.67l0.35-0.02c0,0,343.41-97.01,440.56-130.51C742.11,200.19,746.75,215.47,750.93,227.82z"/>
			<path class="st1" d="M754.18,679.27c-0.94,0.62-11.88,4.36-24.2,9.9l6.37-26.96C736.35,662.21,751.89,676.1,754.18,679.27z"/>
			<path class="st7" d="M699.43,642.9l6.74-30.23c0,0,3.66-7.13,19.58-6.22c15.92,0.92,20.13,15.37,20.13,15.37l-9.53,40.39
				l-6.37,26.96c-0.01,0.01-0.02,0.02-0.03,0.02c-12.2,5.48-25.74,12.73-32.23,20.42c-5.94,7.03-12.05,12.87-17.2,18.02
				L699.43,642.9z"/>
			<path d="M727.09,386.48c9.83,3.07,12.03,11.57,12.03,11.57c-16.98-10.92-47.28-2.02-84.84,17.17
				c-7.47,3.82-13.81,6.61-19.23,8.63l-41.99-1.16c-6.03-4.19-12.3-10.03-12.59-10.3c0.39,0.16,8.63,3.41,27.08-2.95
				C626.46,402.92,670.81,373.45,727.09,386.48z"/>
			<path class="st0" d="M735.68,462.59c1.38,5.01-4.49,23.47-6.56,28.82s-4.31,17.6-16.05,21.39c-11.73,3.8-53.31,0.69-53.31,0.69
				s7.42-3.97,24.33-6.04c16.91-2.07,27.78-8.62,32.44-11.73c4.65-3.1,12.07-18.29,14.83-24.5S735.68,462.59,735.68,462.59z"/>
			<path class="st3" d="M732.02,532.85c1.03,1.52,1.77,3.06,2.23,4.55c-2.52,2.03-4.32,3.49-4.58,3.9
				c-0.86,1.38-2.23,2.75-7.56,7.91c-2.78,2.69-6.54,3.6-9.68,4.03c2.1-7.74,3.89-14.92,5.83-20.99
				C718.84,531.87,727.57,526.28,732.02,532.85z"/>
			<path class="st5" d="M725.7,726.56c-0.79,0.96-1.46,1.9-2,2.83c-0.18-0.84-0.3-1.65-0.39-2.42
				C724.15,726.81,724.96,726.67,725.7,726.56z"/>
			<path class="st3" d="M723.31,726.97c0.09,0.77,0.21,1.58,0.39,2.42c-0.46,0.79-0.82,1.57-1.07,2.33
				c-1.35,4.14-2.97,9.74-3.2,15.27c-1.73,1.84-3.41,3.52-5.03,5.05c-21.97,20.89-33.95,15.82-38.99,12.83
				c-0.92-0.54-1.82-1.23-2.67-2.03c-4.17-3.95-7.1-10.82-4.76-18.66c0.82-2.78,2.6-5.57,5.05-8.52c1.37,3.19,4.12,6.41,9.05,5.55
				c8.96-1.56,23.38-7.79,30.2-10.91C715.54,728.81,719.75,727.67,723.31,726.97z"/>
			<path class="st4" d="M428.17,640.74c-6.56-3.02-12.47-6.29-17.81-9.74c-33.86-21.92-44.43-51.26-48.28-72.35
				c-1.99-10.88-2.19-19.57-2.88-23.91c-0.3-1.88-0.65-3.69-1.04-5.42c-0.21-0.96-0.44-1.9-0.67-2.81l0.28-0.07
				c0,0,113.1,6.25,116.4,5.04c2.32-0.86,5.86-8.78,7.75-13.39l4.71,0.32c2.31,0.16,4.47-1.1,5.48-3.18l18.95-39.39
				c14.24,1.11,47.38,4.09,52.41,8.03c6.43,5.04,31.62,40.48,38.4,42.74c3.61,1.2,7.82-0.36,10.96-2.08l109.96-3.37
				c-1.7,3.01-3.16,6.77-4.53,11.09c-1.94,6.07-3.73,13.25-5.83,20.99c-0.62,2.29-1.26,4.63-1.95,7
				c-6.57,22.78-16.71,48.79-40.9,65.7c-0.59,0.42-1.2,0.83-1.81,1.24c-2.58,1.44-5.13,2.83-7.65,4.19
				c-10.17,3.17-88.16,27.39-101.96,26.89c0,0-10.32-3.21-10.5-11.22l-12.99,0.36c0,0-0.71,9.43-8.55,10.68
				c-7.33,1.16-80.13-12.01-89.43-13.7C433.74,643.21,430.9,642,428.17,640.74z M666.36,572.78c-15.6,5.4-59.19,20.42-71.48,23.74
				c-15.05,4.06-50.78,5.02-50.78,5.02s-24.14,0-36.69-0.6c-12.54-0.6-30.47-7.29-47.08-10.64c-14.97-3.01-16.18-1.83-16.27-1.57
				l0.19,0.01c0,0,6.92,0.8,10.16,5.95c3.25,5.15,11.45,16.79,19.18,20.51c7.72,3.72,28.04,9.64,58.66,9.83
				c30.63,0.19,53.33-3.25,61.82-5.73c8.49-2.48,26.33-11.16,32.34-17.74s13.64-15.74,16.5-16.98s23.46-11.76,23.46-11.76
				L666.36,572.78z M682.31,555.75c0.26,0.09,0.44-0.25,0.23-0.42c-2.66-2.04-9.13-6.98-16.31-12.24
				c-9.38-6.87-22.2-5.02-28.01-4.36c-5.81,0.66-30.52,9.91-40.96,14.27s-38.58,3.97-41.49,3.97c-2.91,0-2.12-0.4-3.57-1.59
				c-1.45-1.19-1.32,1.59-1.32,1.59l5.36,16.45c0.39,1.17,1.36,2.06,2.57,2.32c2.64,0.57,8.69,1.62,22.46,3.29
				c22.86,2.78,39.9-7.26,47.04-10.57c7.13-3.3,29.6-13.74,37.39-15.06C671.69,552.38,679.17,554.65,682.31,555.75z M524.15,565.04
				c0.13-0.4,0.53-9.68-0.8-10.34c-1.33-0.66-1.86,1.32-1.86,1.32h-0.39c0,0-32.89,1.06-41.9,0.67c-9.02-0.4-37.26-3.85-51.98,4.24
				c-12.8,7.03-18.28,30.72-19.49,36.77c-0.06,0.32,0.36,0.5,0.55,0.23c1.91-2.81,5.89-8.27,6.88-9.82
				c1.03-1.62,9.28-9.68,30.23-7.95c20.95,1.72,59.13-1.07,66.16-2.13c7.03-1.06,11.4-3.97,11.4-3.97S524.01,565.44,524.15,565.04z"
				/>
			<path class="st7" d="M680.82,803.64c-0.21-0.54-2.04-4.84-7.95-5.39c-4.97-0.47-8,4.47-9.06,6.57l-0.11-1.77l2.64-11.84
				l6.31-28.28l0.09-0.09c0.85,0.8,1.75,1.49,2.67,2.03c5.04,2.99,17.02,8.06,38.99-12.83l0.17,0.18l-14.56,59.17
				c-0.73-2.11-4.63-1.78-4.63-1.78s2.15-6.08-5.23-8.4c-7.37-2.31-9.31,2.48-9.31,2.48S680.83,803.67,680.82,803.64z"/>
			<path class="st1" d="M705.37,111.07c12.66,19.55,22.9,47.23,31.47,73.17c-97.15,33.5-440.56,130.51-440.56,130.51l-0.35,0.02
				c-2.19-45.1,1.17-141.25,37.66-172.37c40.82-34.81,78.47-18.35,131.94-33.86c53.48-15.5,106-74.04,135.74-74.67
				C631.01,33.24,676.26,66.14,705.37,111.07z"/>
			<path class="st8" d="M700.01,811.39l-0.56,2.27l-13.48,22.16c-0.96-1.42-1.98-2.58-3.01-3.52l0.01-0.01l12.41-22.68
				C695.38,809.61,699.28,809.28,700.01,811.39z"/>
			<path class="st1" d="M661.2,631.03c-0.07,0.02-0.44,0.14-1.08,0.34c2.52-1.36,5.07-2.75,7.65-4.19c0.61-0.41,1.22-0.82,1.81-1.24
				l0.05,0.07c0,0,23.92,9.63,29.8,16.89l-18.91,84.73c-0.03,0.03-0.05,0.05-0.08,0.08c-2.83,2.82-5.36,5.44-7.41,7.95
				c-2.45,2.95-4.23,5.74-5.05,8.52c-2.34,7.84,0.59,14.71,4.76,18.66l-0.09,0.09l-6.31,28.28l-1.61-0.36
				c0.24-0.96,0.37-1.77,0.4-2.41c0.61-13.7-20.71-47.51-20.71-47.51c15.23-10.05,31.37-29.54,31.37-29.54
				c-3.95-39.29-25.42-71.24-25.42-71.24l-0.07-0.11C654.24,637.36,657.91,634.38,661.2,631.03z"/>
			<path class="st8" d="M690.15,801.21c7.38,2.32,5.23,8.4,5.23,8.4l-12.41,22.68l-0.01,0.01c-2.23-2.04-4.57-3.08-6.79-3.53
				l4.65-25.13c0.01,0.03,0.02,0.05,0.02,0.05S682.78,798.9,690.15,801.21z"/>
			<path d="M676.17,828.77c2.22,0.45,4.56,1.49,6.79,3.53c1.03,0.94,2.05,2.1,3.01,3.52l-14.73,24.21l-4.19-0.84l-1.71-28.73
				l0.11-0.01C665.45,830.45,670.4,827.59,676.17,828.77z"/>
			<path d="M682.54,555.33c0.21,0.17,0.03,0.51-0.23,0.42c-3.14-1.1-10.62-3.37-16.61-2.35c-7.79,1.32-30.26,11.76-37.39,15.06
				c-7.14,3.31-24.18,13.35-47.04,10.57c-13.77-1.67-19.82-2.72-22.46-3.29c-1.21-0.26-2.18-1.15-2.57-2.32l-5.36-16.45
				c0,0-0.13-2.78,1.32-1.59c1.45,1.19,0.66,1.59,3.57,1.59c2.91,0,31.05,0.39,41.49-3.97s35.15-13.61,40.96-14.27
				c5.81-0.66,18.63-2.51,28.01,4.36C673.41,548.35,679.88,553.29,682.54,555.33z"/>
			<path class="st8" d="M680.82,803.64l-4.65,25.13c-5.77-1.18-10.72,1.68-10.72,1.68l-0.11,0.01l-1.53-25.63c0-0.01,0-0.01,0-0.01
				c1.06-2.1,4.09-7.04,9.06-6.57C678.78,798.8,680.61,803.1,680.82,803.64z"/>
			<path d="M666.36,572.78l0.01,0.04c0,0-20.6,10.52-23.46,11.76s-10.49,10.4-16.5,16.98s-23.85,15.26-32.34,17.74
				c-8.49,2.48-31.19,5.92-61.82,5.73c-30.62-0.19-50.94-6.11-58.66-9.83c-7.73-3.72-15.93-15.36-19.18-20.51
				c-3.24-5.15-10.16-5.95-10.16-5.95l-0.19-0.01c0.09-0.26,1.3-1.44,16.27,1.57c16.61,3.35,34.54,10.04,47.08,10.64
				c12.55,0.6,36.69,0.6,36.69,0.6s35.73-0.96,50.78-5.02C607.17,593.2,650.76,578.18,666.36,572.78z M602.99,613.45
				c0,0-28.49-10.2-63.11-8.13c-34.63,2.08-53.58,11.16-53.58,11.16s4.37,4.77,49.9,6.21C581.73,624.12,602.99,613.45,602.99,613.45
				z"/>
			<path class="st1" d="M618.08,720.43c2.79-15.11,4.92-28.43,6.49-39.2c2.66-18.19,3.74-29.12,3.74-29.12l-0.22-0.55
				c7.93-3.2,15.48-6.93,22.21-11.52l0.07,0.11c0,0,21.47,31.95,25.42,71.24c0,0-16.14,19.49-31.37,29.54
				c0,0,21.32,33.81,20.71,47.51c-0.03,0.64-0.16,1.45-0.4,2.41c-4.85,19.43-52.54,101.22-115.14,146.37
				c-0.45-0.77-0.9-1.55-1.34-2.32c16.78-30.28,30.28-64.32,41.06-98.02C602.76,794.87,611.99,753.4,618.08,720.43z"/>
			<path d="M660.12,631.37c0.64-0.2,1.01-0.32,1.08-0.34c-3.29,3.35-6.96,6.33-10.9,9.01c-6.73,4.59-14.28,8.32-22.21,11.52
				c-22.01,8.91-46.95,13.78-65.48,21.83c-5.79,2.51-10.63,3.97-15.34,4.55c-1.88,0.24-3.73,0.33-5.61,0.3
				c-10.62-0.16-22.14-4.33-43.66-10.37c-13.43-3.77-25.76-8.15-35.84-12.11c-0.05-1.39-0.07-2.39-0.08-2.98
				C540.77,676,588.24,670.05,660.12,631.37z"/>
			<path d="M593.06,422.69l41.99,1.16c-21.83,8.16-28.67,3.77-33.74,3.03C599.19,426.57,596.16,424.85,593.06,422.69z"/>
			<path class="st9" d="M628.09,651.56l0.22,0.55c0,0-1.08,10.93-3.74,29.12c-18.74,10.64-43.32,16.32-55.09,18.59
				c-11.15-12.55-22.17-21.59-22.17-21.59l-0.04-0.29c4.71-0.58,9.55-2.04,15.34-4.55C581.14,665.34,606.08,660.47,628.09,651.56z"
				/>
			<path class="st0" d="M578.84,711.36c-2.96-4.05-6.16-7.94-9.36-11.54c11.77-2.27,36.35-7.95,55.09-18.59
				c-1.57,10.77-3.7,24.09-6.49,39.2c-13.67,12.8-27.09,13.63-27.09,13.63C588.75,726.49,584.2,718.66,578.84,711.36z"/>
			<path d="M462.08,652.78c-4.54-1.34-9.19-2.77-13.96-4.31c-3.99-1.29-7.8-2.65-11.43-4.09c9.3,1.69,82.1,14.86,89.43,13.7
				c7.84-1.25,8.55-10.68,8.55-10.68l12.99-0.36c0.18,8.01,10.5,11.22,10.5,11.22c13.8,0.5,91.79-23.72,101.96-26.89
				C588.24,670.05,540.77,676,462.08,652.78z"/>
			<path class="st3" d="M605.77,524.75l7.06-0.22c-3.14,1.72-7.35,3.28-10.96,2.08c-6.78-2.26-31.97-37.7-38.4-42.74
				c-5.03-3.94-38.17-6.92-52.41-8.03l11.39-23.69c0.99-2.04,3.09-3.3,5.35-3.19l36.98,1.68c2.12,0.1,4.01,1.37,4.89,3.3
				l30.78,67.51C601.4,523.52,603.49,524.82,605.77,524.75z"/>
			<path class="st0" d="M618.08,720.43c-6.09,32.97-15.32,74.44-28.77,116.45l-0.67-0.22c-0.32-32.84-24.01-91.8-24.01-91.8
				c12.01-9.49,13.96-29.9,14.21-33.5c5.36,7.3,9.91,15.13,12.15,22.7C590.99,734.06,604.41,733.23,618.08,720.43z"/>
			<path class="st2" d="M626.26,1078.8c-46.04,17.09-71.6,40.25-71.6,40.25s-0.22-0.18-0.66-0.53l-3.62-164.8
				c0,0,3.89-2.7,11.15-6.65C562.01,963.78,568,1023.21,626.26,1078.8z"/>
			<path class="st10" d="M588.64,836.66l0.67,0.22c-10.78,33.7-24.28,67.74-41.06,98.02c-19.21-33.33-34.13-65.98-45.73-96.57
				l0.16-0.06c4.39-60.16,18.84-91.96,19.61-93.62c0.7,0.42,1.44,0.78,2.21,1.08c0,0,18.07,5.9,40.13-0.87
				C564.63,744.86,588.32,803.82,588.64,836.66z"/>
			<path class="st10" d="M522.29,744.65c-12.36-7.43-13.95-32.81-14.1-35.95c2.73-4.16,5.94-8.46,9.66-12.57
				c6.4-7.07,14.29-13.56,23.81-17.73v-0.16c1.88,0.03,3.73-0.06,5.61-0.3l0.04,0.29c0,0,11.02,9.04,22.17,21.59
				c3.2,3.6,6.4,7.49,9.36,11.54c-0.25,3.6-2.2,24.01-14.21,33.5c-22.06,6.77-40.13,0.87-40.13,0.87
				C523.73,745.43,522.99,745.07,522.29,744.65z"/>
			<path class="st2" d="M554.41,1137.06v4.48l-20.57,0.21c-1.67,0.02-3.04-1.33-3.04-3.01v-8.63
				c-64.38-62.62-238.6-42.69-244.44-40.53c-5.83,2.16-19.66,4.76-21.18,3.46c-1.51-1.3-1.08-2.59-0.64-4.32
				c0.43-1.73,1.08-3.68,0.86-4.76c-0.22-1.08-2.16-1.3-3.89-4.11c-1.73-2.8,0.65-1.51,1.08-4.97c0.43-3.45-1.73-3.24-3.89-5.18
				c-2.16-1.95,0.65-5.62,0.65-5.62l0.05-0.21c0.2,0.04,0.42,0.04,0.65-0.03c15.67-4.6,88.34-24.19,154.13-12.54
				c69.9,12.39,132.75,61.54,139.82,67.22L554.41,1137.06z"/>
			<path class="st0" d="M550.38,953.72l3.62,164.8c-7.07-5.68-69.92-54.83-139.82-67.22c-65.79-11.65-138.46,7.94-154.13,12.54
				c-0.23,0.07-0.45,0.07-0.65,0.03c-0.8-0.17-1.33-1.11-0.88-1.94l20.4-37.56c6.61,2.75,20.34,6.55,40.33,2.72
				c29.03-5.57,48.08-16.42,55.71-26.09c7.62-9.68,9.97-45.45,16.42-53.66c6.45-8.21,15.83-13.19,20.52-17.01
				c2.78-2.26,2.99-11.04,2.69-17.79C436.46,913.53,510.14,919.42,550.38,953.72z"/>
			<path class="st11" d="M539.88,605.32c34.62-2.07,63.11,8.13,63.11,8.13s-21.26,10.67-66.79,9.24c-45.53-1.44-49.9-6.21-49.9-6.21
				S505.25,607.4,539.88,605.32z"/>
			<path class="st1" d="M548.25,934.9c0.44,0.77,0.89,1.55,1.34,2.32c-71.16-24.16-128.94-144.76-127.36-153.43
				c1.57-8.67,22.54-40.52,22.54-40.52c-17.03-5.05-34.69-25.54-34.69-25.54c-4.74-33.82,16.81-74.62,18.09-76.99
				c2.73,1.26,5.57,2.47,8.52,3.64c-0.64-0.12-0.98-0.18-0.98-0.18s0.22,0.11,0.64,0.32c2.49,1.22,12.06,5.84,25.81,11.24
				c0.14,3.48,0.44,9.41,1.16,17.45c0.78,8.68,2.03,19.83,4.07,33c3.88,25.15,10.58,57.7,22.17,94.66
				c3.78,12.05,8.07,24.57,12.96,37.46C514.12,868.92,529.04,901.57,548.25,934.9z"/>
			<path class="st9" d="M541.66,678.24v0.16c-9.52,4.17-17.41,10.66-23.81,17.73c-27.81-5.67-45.1-15.73-54.53-22.92
				c-0.72-8.04-1.02-13.97-1.16-17.45c10.08,3.96,22.41,8.34,35.84,12.11C519.52,673.91,531.04,678.08,541.66,678.24z"/>
			<path d="M523.35,554.7c1.33,0.66,0.93,9.94,0.8,10.34c-0.14,0.4-1.2,9.02-1.2,9.02s-4.37,2.91-11.4,3.97
				c-7.03,1.06-45.21,3.85-66.16,2.13c-20.95-1.73-29.2,6.33-30.23,7.95c-0.99,1.55-4.97,7.01-6.88,9.82
				c-0.19,0.27-0.61,0.09-0.55-0.23c1.21-6.05,6.69-29.74,19.49-36.77c14.72-8.09,42.96-4.64,51.98-4.24
				c9.01,0.39,41.9-0.67,41.9-0.67h0.39C521.49,556.02,522.02,554.04,523.35,554.7z"/>
			<path class="st9" d="M522.29,744.65c-0.77,1.66-15.22,33.46-19.61,93.62l-0.16,0.06c-4.89-12.89-9.18-25.41-12.96-37.46
				c7.54-16.34,20.29-41.83,20.64-42.86c0.34-1.03-7.71-19.32-12.41-29.86c1.94-4.58,5.35-11.77,10.4-19.45
				C508.34,711.84,509.93,737.22,522.29,744.65z"/>
			<path class="st0" d="M497.79,728.15c4.7,10.54,12.75,28.83,12.41,29.86c-0.35,1.03-13.1,26.52-20.64,42.86
				c-11.59-36.96-18.29-69.51-22.17-94.66c2.56,4.02,15.36,23.28,28.43,26.99C495.82,733.2,496.46,731.29,497.79,728.15z"/>
			<path class="st0" d="M508.19,708.7c-5.05,7.68-8.46,14.87-10.4,19.45c-1.33,3.14-1.97,5.05-1.97,5.05
				c-13.07-3.71-25.87-22.97-28.43-26.99c-2.04-13.17-3.29-24.32-4.07-33c9.43,7.19,26.72,17.25,54.53,22.92
				C514.13,700.24,510.92,704.54,508.19,708.7z"/>
			<path d="M358.12,379.65c7.95-6.64,29.15-22.58,47.95-21.35c4.48,0.29,8.72,1.42,12.77,3.11c17.4,7.26,31.39,25.03,46.17,32.85
				c4.77,2.52,9.32,4.66,13.44,6.43c11.61,5,19.78,7.14,19.78,7.14s-11.07,8.92-26.04,8.59c-1.9-0.04-3.86-0.23-5.87-0.61
				c-7-1.31-13.44-3.52-20.03-6.98c-10.21-5.35-20.76-13.69-34.27-26.24c-21.51-19.98-56.23-0.64-57.13-0.14
				C355.05,382.31,356.2,381.24,358.12,379.65z"/>
			<path class="st3" d="M351.18,509.32l130.74,8.77c-1.89,4.61-5.43,12.53-7.75,13.39c-3.3,1.21-116.4-5.04-116.4-5.04l-0.28,0.07
				C355.28,517.93,352.34,511.62,351.18,509.32z"/>
			<path class="st3" d="M472.19,416.42l-0.08,2.93l-59.07-1.63l33.23-8.86l0.02-0.03c6.59,3.46,13.03,5.67,20.03,6.98
				C468.33,416.19,470.29,416.38,472.19,416.42z"/>
			<path class="st5" d="M462.08,652.78c0.01,0.59,0.03,1.59,0.08,2.98c-13.75-5.4-23.32-10.02-25.81-11.24
				c-0.42-0.21-0.64-0.32-0.64-0.32s0.34,0.06,0.98,0.18c3.63,1.44,7.44,2.8,11.43,4.09C452.89,650.01,457.54,651.44,462.08,652.78z
				"/>
			<path class="st1" d="M354.89,382.45c0.9-0.5,35.62-19.84,57.13,0.14c13.51,12.55,24.06,20.89,34.27,26.24l-0.02,0.03l-33.23,8.86
				l-95.92-2.65c-1.43-0.04-2.83,0.47-3.9,1.42l-1.25,1.1c-1.54,1.37-2.22,3.47-1.76,5.49l2.98,13.04c0.3,1.28,1.03,2.41,2.07,3.21
				l1.13,0.87c0.84,0.65,1.48,1.52,1.85,2.52l1.49,4l-0.04,0.01c-7.21,1.91-14.11,3.51-20.58,4.85c-29.2,6.07-49.56,6.88-49.56,6.88
				c-64.68,0.21-83.96-36.9-84.58-48.72c-0.63-11.81,33.37-21.14,65.92-29.85c30.87-8.26,63.42-23.6,66.69-25.16
				c-0.88,23.05-5.07,41.54-5.5,43.41c20.97-3.83,43.82-9.62,66.04-18.49C356.2,381.24,355.05,382.31,354.89,382.45z"/>
			<path class="st2" d="M414.59,912.54c0.3,6.75,0.09,15.53-2.69,17.79c-4.69,3.82-14.07,8.8-20.52,17.01
				c-6.45,8.21-8.8,43.98-16.42,53.66c-7.63,9.67-26.68,20.52-55.71,26.09c-19.99,3.83-33.72,0.03-40.33-2.72l20.97-38.58
				c8.58,1.91,19.29,1.66,32.71-1.66c8.48-2.7,15.23-11.38,15.23-11.38l-0.02-0.07c3.77-1.18,7.38-2.78,10.43-4.94
				c13.88-9.83,14.65-15.23,15.22-20.82c0.58-5.59-3.02-11.43-3.02-11.43l-0.02-0.11c3.04-0.64,5.53-1.65,7.48-3.69
				c1.79-1.87,3.91-4.9,5.49-8.63c1.93,9.62,20.63,3.81,23.66-1.24c1.27-2.12,1.52-5.39,1.34-9.49
				C408.83,912.34,411.02,912.37,414.59,912.54z"/>
			<path class="st3" d="M408.39,912.33c0.18,4.1-0.07,7.37-1.34,9.49c-3.03,5.05-21.73,10.86-23.66,1.24
				c2.01-4.73,3.15-10.59,1.64-16.62c-1-4-2.61-6.94-4.24-9.06c0.91-1.79,1.69-3.64,2.32-5.57c3.74-1.48,7.18-4.37,10.03-8.94
				c4.46-7.14,5.04-11.98-10.59-32.13c0.16-0.03,0.51-0.1,1.02-0.14c2.53-0.21,8.96,0.11,14.5,7.57c7.07,9.54,8.53,19.87,8.87,33.45
				C407.13,899.5,408.15,906.69,408.39,912.33z"/>
			<path class="st4" d="M382.55,850.74c15.63,20.15,15.05,24.99,10.59,32.13c-2.85,4.57-6.29,7.46-10.03,8.94
				c-2.29,0.9-4.7,1.27-7.16,1.15c1.02,0.6,2.95,1.95,4.84,4.42c-9.64,18.95-33.85,30.46-45.82,35.17
				c6.41,2.03,17.57,5.14,23.65,4.35c0.26-0.03,0.52-0.07,0.77-0.09c-3.8,4.99-9.89,10.24-17.27,14.34
				c-10.56,5.87-29.91,5.87-29.91,5.87c-6.43,13.59-19.19,19.24-27.82,21.57c-12.97-10.18-17.45-27.91-19.84-43.24
				c-0.28-1.78-0.5-3.54-0.66-5.26c-2.41-24.53,6.18-43.29,21.67-67.6c16.58-26.03,53.21-31.81,54.17-31.81c0,0,3.94-0.69,9.78-0.01
				c8.49,0.98,21.01,4.84,31.32,17.88C381.42,849.3,382,850.03,382.55,850.74z"/>
			<path class="st3" d="M383.39,923.06c-1.58,3.73-3.7,6.76-5.49,8.63c-1.95,2.04-4.44,3.05-7.48,3.69
				c-3.09,0.64-6.76,0.89-11.03,1.43c-0.25,0.02-0.51,0.06-0.77,0.09c-6.08,0.79-17.24-2.32-23.65-4.35
				c11.97-4.71,36.18-16.22,45.82-35.17c1.63,2.12,3.24,5.06,4.24,9.06C386.54,912.47,385.4,918.33,383.39,923.06z"/>
			<path class="st5" d="M383.11,891.81c-0.63,1.93-1.41,3.78-2.32,5.57c-1.89-2.47-3.82-3.82-4.84-4.42
				C378.41,893.08,380.82,892.71,383.11,891.81z"/>
			<path class="st3" d="M299.89,985.79c-6.21-1.38-11.3-3.89-15.5-7.2c8.63-2.33,21.39-7.98,27.82-21.57c0,0,19.35,0,29.91-5.87
				c7.38-4.1,13.47-9.35,17.27-14.34c4.27-0.54,7.94-0.79,11.03-1.43l0.02,0.11c0,0,3.6,5.84,3.02,11.43
				c-0.57,5.59-1.34,10.99-15.22,20.82c-3.05,2.16-6.66,3.76-10.43,4.94l0.02,0.07c0,0-6.75,8.68-15.23,11.38
				C319.18,987.45,308.47,987.7,299.89,985.79z"/>
			<path class="st0" d="M377.14,427.4c0,0-11.9,0.86-21.91,14.32c-10.01,13.45,8.97,60.21,9.14,60.73c0.18,0.52-2.24,0.17-5.52-1.73
				c-11.04-5-25.02-69.01-21.91-72.63C340.05,424.46,377.14,427.4,377.14,427.4z"/>
			<path class="st4" d="M346.99,538.06c1.93-7.41,8.91-8.56,11.17-8.74c0.39,1.73,0.74,3.54,1.04,5.42
				c0.69,4.34,0.89,13.03,2.88,23.91l-0.04,0.01c-50.86,1.1-68.06-30.91-72.38-58.54c1.52-0.66,12.89-5.4,20.14-0.92
				c0.39,1.82,0.92,3.7,1.6,5.64c5.56,15.9,14.41,23.02,20.56,26.16c1.94,2.58,3.78,4.61,5.48,5.69
				C342.7,540.04,345.66,539.02,346.99,538.06z"/>
			<path class="st3" d="M331.96,531c-6.78-9.05-14.6-24.9-20.41-30.45c-0.55-0.52-1.13-0.97-1.75-1.35
				c-7.25-4.48-18.62,0.26-20.14,0.92c-0.03-0.22-0.07-0.44-0.1-0.66c-3.92-26.28,7.45-45.53,9.55-47.88
				c6.47-1.34,13.37-2.94,20.58-4.85l0.04-0.01l21.78,58.61c0.77,2.08,2.7,3.52,4.91,3.67l4.76,0.32c1.16,2.3,4.1,8.61,6.31,17.19
				c0.23,0.91,0.46,1.85,0.67,2.81c-2.26,0.18-9.24,1.33-11.17,8.74c-1.33,0.96-4.29,1.98-9.55-1.37
				C335.74,535.61,333.9,533.58,331.96,531z"/>
			<path class="st3" d="M331.96,531c-6.15-3.14-15-10.26-20.56-26.16c-0.68-1.94-1.21-3.82-1.6-5.64c0.62,0.38,1.2,0.83,1.75,1.35
				C317.36,506.1,325.18,521.95,331.96,531z"/>
		</g>
		<g>
			<path class="st12" d="M413.04,417.72l-95.92-2.65c-1.43-0.04-2.83,0.47-3.9,1.42l-1.25,1.1c-1.54,1.37-2.22,3.47-1.76,5.49
				l2.98,13.04c0.3,1.28,1.03,2.41,2.07,3.21l1.13,0.87c0.84,0.65,1.48,1.52,1.85,2.52l1.49,4l21.78,58.61
				c0.77,2.08,2.7,3.52,4.91,3.67l4.76,0.32l130.74,8.77l4.71,0.32c2.31,0.16,4.47-1.1,5.48-3.18l18.95-39.39l11.39-23.69
				c0.99-2.04,3.09-3.3,5.35-3.19l36.98,1.68c2.12,0.1,4.01,1.37,4.89,3.3l30.78,67.51c0.95,2.07,3.04,3.37,5.32,3.3l7.06-0.22
				l109.96-3.37l1.83-0.06c2.16-0.06,4.09-1.35,4.98-3.32l27.8-61.41l0.91-2c0.63-1.39,1.79-2.47,3.22-2.99l2.07-0.74
				c1.85-0.67,3.21-2.25,3.61-4.18l2.52-12.26c0.39-1.89-0.21-3.86-1.61-5.2c-1.01-0.98-2.36-1.55-3.77-1.58L748.99,427
				l-113.94-3.15l-41.99-1.16l-72.38-2l-48.57-1.34L413.04,417.72z"/>
			<path class="st13" d="M350.69,508.37c0,0,0.18,0.33,0.49,0.95c1.16,2.3,4.1,8.61,6.31,17.19c0.23,0.91,0.46,1.85,0.67,2.81
				c0.39,1.73,0.74,3.54,1.04,5.42c0.69,4.34,0.89,13.03,2.88,23.91c3.85,21.09,14.42,50.43,48.28,72.35
				c5.34,3.45,11.25,6.72,17.81,9.74c2.73,1.26,5.57,2.47,8.52,3.64c3.63,1.44,7.44,2.8,11.43,4.09c4.77,1.54,9.42,2.97,13.96,4.31
				c78.69,23.22,126.16,17.27,198.04-21.41c2.52-1.36,5.07-2.75,7.65-4.19c0.61-0.41,1.22-0.82,1.81-1.24
				c24.19-16.91,34.33-42.92,40.9-65.7c0.69-2.37,1.33-4.71,1.95-7c2.1-7.74,3.89-14.92,5.83-20.99c1.37-4.32,2.83-8.08,4.53-11.09
				c0.18-0.33,0.38-0.65,0.57-0.97"/>
			<path class="st13" d="M299.38,451.34c-0.06,0.02-0.15,0.1-0.27,0.24c-2.1,2.35-13.47,21.6-9.55,47.88
				c0.03,0.22,0.07,0.44,0.1,0.66c4.32,27.63,21.52,59.64,72.38,58.54"/>
			<path class="st13" d="M358.87,529.29c0,0-0.26,0-0.71,0.03c-2.26,0.18-9.24,1.33-11.17,8.74c-0.48,1.84-0.65,4.08-0.35,6.79"/>
			<path class="st13" d="M320.93,463.72c0,0-16.08,12.66-11.13,35.48c0.39,1.82,0.92,3.7,1.6,5.64
				c5.56,15.9,14.41,23.02,20.56,26.16c4.04,2.06,6.91,2.41,6.91,2.41"/>
			<path class="st13" d="M769.73,434.2c0,0,23.54-0.52,28.47,28.5c0.86,5.03,1.15,10.94,0.67,17.9
				c-3.27,47.11-46.42,96.56-87.94,79.77"/>
			<path class="st13" d="M757.59,456.46c0,0,6.83-3.19,13.36,2.58c2.09,1.85,4.06,7.28,4.45,14.73c0.78,14.87-4.8,37.79-28.59,56.09
				c-1.49,1.15-3.06,2.28-4.7,3.39"/>
			<path class="st13" d="M718.23,532.27c0,0,0.01-0.01,0.03-0.02c0.58-0.38,9.31-5.97,13.76,0.6c1.03,1.52,1.77,3.06,2.23,4.55
				c1.58,5.21-0.29,9.98-5.87,11.91"/>
			<path class="st13" d="M580.46,412.38c0,0,0,0,0.01,0.01c0.39,0.16,8.63,3.41,27.08-2.95c18.91-6.52,63.26-35.99,119.54-22.96
				c9.83,3.07,12.03,11.57,12.03,11.57c-16.98-10.92-47.28-2.02-84.84,17.17c-7.47,3.82-13.81,6.61-19.23,8.63
				c-21.83,8.16-28.67,3.77-33.74,3.03c-2.12-0.31-5.15-2.03-8.25-4.19c-6.03-4.19-12.3-10.03-12.59-10.3"/>
			<path class="st13" d="M354.89,382.45c0.16-0.14,1.31-1.21,3.23-2.8c7.95-6.64,29.15-22.58,47.95-21.35
				c4.48,0.29,8.72,1.42,12.77,3.11c17.4,7.26,31.39,25.03,46.17,32.85c4.77,2.52,9.32,4.66,13.44,6.43
				c11.61,5,19.78,7.14,19.78,7.14s-11.07,8.92-26.04,8.59c-1.9-0.04-3.86-0.23-5.87-0.61c-7-1.31-13.44-3.52-20.03-6.98
				c-10.21-5.35-20.76-13.69-34.27-26.24C390.51,362.61,355.79,381.95,354.89,382.45c-0.01,0.02-0.02,0.02-0.02,0.02"/>
			<path class="st13" d="M736.3,316.76c0.06,0,0.18,0.01,0.35,0.02c1.99,0.21,11.09,1.91,14.32,12.58
				c1.06,3.52,1.57,13.07,1.67,24.92c0.2,23.3-1.15,55.48-2.8,68.13c-0.28,2.11-0.56,3.68-0.85,4.57"/>
			<path class="st13" d="M761.33,307.43c0,0,0.02,0.05,0.06,0.15c0.59,1.39,5.08,12.49,4.66,27.57
				c-0.46,15.99-2.26,65.03-16.21,87.26c-0.13,0.21-0.26,0.41-0.39,0.61"/>
			<path class="st13" d="M297.85,354.6c0,0-0.09,0.04-0.27,0.13c-3.27,1.56-35.82,16.9-66.69,25.16
				c-32.55,8.71-66.55,18.04-65.92,29.85c0.62,11.82,19.9,48.93,84.58,48.72c0,0,20.36-0.81,49.56-6.88
				c6.47-1.34,13.37-2.94,20.58-4.85"/>
			<path class="st13" d="M191.17,414.28c-0.17-0.69,4.28-6.34,18.68-7.71c9.31-0.89,42.4-1.13,82.23-8.43
				c20.97-3.83,43.82-9.62,66.04-18.49c0.84-0.33,1.67-0.67,2.5-1.01"/>
			<path class="st13" d="M418.87,361.33c0,0,177.39-58.51,234.33-70.12c34.69-7.07,75.53-21.12,109.91-36.52
				c22.05-9.88,41.43-20.32,54.83-29.82"/>
			<path class="st13" d="M750.49,227.86c0,0,0.15-0.01,0.44-0.04c3.49-0.35,27.36-3.41,60.15-23.27
				c35.54-21.52,35.94-23.96,42.24-23.55c6.29,0.4,11.57,11.98,8.53,24.57c-3.05,12.58,2.03,32.48-21.73,56.44
				c-17.74,17.88-43.05,31.58-78.73,45.57c-7.75,3.04-15.98,6.09-24.74,9.2c-4.94,1.76-10.04,3.53-15.31,5.33
				c-56.57,19.32-223.33,74.01-242.89,78.58c-0.38,0.09-0.7,0.16-0.97,0.21"/>
			<polyline class="st13" points="412.58,417.84 413.04,417.72 446.27,408.86 			"/>
			<path class="st13" d="M292.04,398.29c0,0,0.01-0.05,0.04-0.15c0.43-1.87,4.62-20.36,5.5-43.41c0.32-8.36,0.2-17.31-0.69-26.29
				c-0.37-3.72-0.7-8.33-0.96-13.67c-2.19-45.1,1.17-141.25,37.66-172.37c40.82-34.81,78.47-18.35,131.94-33.86
				c53.48-15.5,106-74.04,135.74-74.67c29.74-0.63,74.99,32.27,104.1,77.2c12.66,19.55,22.9,47.23,31.47,73.17
				c5.27,15.95,9.91,31.23,14.09,43.58c4.52,13.36,8.51,23.28,12.18,26.87c0.12,0.11,0.23,0.21,0.34,0.31"/>
			<path class="st13" d="M296.28,314.75c0,0,343.41-97.01,440.56-130.51c0.05-0.01,0.11-0.03,0.16-0.05"/>
			<path class="st13" d="M410.74,630.84c0,0-0.13,0.05-0.38,0.16c-5.97,2.63-81.27,37.3-126.29,136.17c0,0-50.61,93.65-28.61,148.51
				c3,6.82,8.39,14.41,8.39,14.41"/>
			<path class="st13" d="M359.2,748.56c0,0,0,39.05,14.03,50.08c0.01,0.02,0.03,0.03,0.04,0.04"/>
			<path class="st13" d="M370.77,733.91c0,0-0.2,33.05,2.46,64.73c1.8,21.57,4.92,42.51,10.34,51.96c0.1,0.19,0.21,0.37,0.32,0.55"
				/>
			<path class="st13" d="M285.18,823.16c0,0,26.34-17.73,61.97,5.9c0.78,0.51,1.57,1.05,2.36,1.61"/>
			<path class="st13" d="M347.83,972.75c0,0-6.75,8.68-15.23,11.38c-13.42,3.32-24.13,3.57-32.71,1.66
				c-6.21-1.38-11.3-3.89-15.5-7.2c-12.97-10.18-17.45-27.91-19.84-43.24c-0.28-1.78-0.5-3.54-0.66-5.26
				c-2.41-24.53,6.18-43.29,21.67-67.6c16.58-26.03,53.21-31.81,54.17-31.81c0,0,3.94-0.69,9.78-0.01
				c8.49,0.98,21.01,4.84,31.32,17.88c0.59,0.75,1.17,1.48,1.72,2.19c15.63,20.15,15.05,24.99,10.59,32.13
				c-2.85,4.57-6.29,7.46-10.03,8.94c-2.29,0.9-4.7,1.27-7.16,1.15c-0.01,0-0.01,0-0.02,0"/>
			<path class="st13" d="M318.91,975.84c0,0,15.5,1.05,28.9-3.16c3.77-1.18,7.38-2.78,10.43-4.94
				c13.88-9.83,14.65-15.23,15.22-20.82c0.58-5.59-3.02-11.43-3.02-11.43"/>
			<path class="st13" d="M330.09,930.92c0,0,1.94,0.7,4.88,1.63c6.41,2.03,17.57,5.14,23.65,4.35c0.26-0.03,0.52-0.07,0.77-0.09
				c4.27-0.54,7.94-0.79,11.03-1.43c3.04-0.64,5.53-1.65,7.48-3.69c1.79-1.87,3.91-4.9,5.49-8.63c2.01-4.73,3.15-10.59,1.64-16.62
				c-1-4-2.61-6.94-4.24-9.06c-1.89-2.47-3.82-3.82-4.84-4.42c-0.47-0.28-0.75-0.4-0.75-0.4s-25.25-1.93-33.54-12.72"/>
			<path class="st13" d="M316.35,856.4c0,0-9.54,8.31-6.46,18.93"/>
			<path class="st13" d="M382.46,850.76c0,0,0.03-0.01,0.09-0.02c0.16-0.03,0.51-0.1,1.02-0.14c2.53-0.21,8.96,0.11,14.5,7.57
				c7.07,9.54,8.53,19.87,8.87,33.45c0.19,7.88,1.21,15.07,1.45,20.71c0.18,4.1-0.07,7.37-1.34,9.49
				c-3.03,5.05-21.73,10.86-23.66,1.24c-0.01-0.01-0.01-0.01-0.01-0.02"/>
			<path class="st13" d="M329.64,806.27c0,0,13.6,6.12,17.51,22.79c0.08,0.28,0.14,0.56,0.2,0.84"/>
			<path class="st13" d="M462.07,652.16c0,0.05,0,0.26,0.01,0.62c0.01,0.59,0.03,1.59,0.08,2.98c0.14,3.48,0.44,9.41,1.16,17.45
				c0.78,8.68,2.03,19.83,4.07,33c3.88,25.15,10.58,57.7,22.17,94.66c3.78,12.05,8.07,24.57,12.96,37.46
				c11.6,30.59,26.52,63.24,45.73,96.57c0.44,0.77,0.89,1.55,1.34,2.32c-71.16-24.16-128.94-144.76-127.36-153.43
				c1.57-8.67,22.54-40.52,22.54-40.52c-17.03-5.05-34.69-25.54-34.69-25.54c-4.74-33.82,16.81-74.62,18.09-76.99
				c0.03-0.07,0.05-0.11,0.05-0.11"/>
			<path class="st13" d="M550.38,953.72l3.62,164.8l0.41,18.54v4.48h21.25c2.12,0,3.91-1.58,4.16-3.69l0.94-7.62
				c0,0,28.51-30.92,124.98-41.1c86.84-9.17,121.91,5.99,130.01,10.4c1.03,0.56,2.31,0.03,2.63-1.1c0.44-1.53,0.91-3.52,0.91-4.9
				c0-2.54-1.38-3,1.62-5.08c3-2.08,2.77-4.39,2.31-6.7c-0.47-2.3-1.39-3,0.23-4.38c1.61-1.39,4.71-4.16,2.17-7.16"/>
			<path class="st13" d="M300.19,985.23l-0.3,0.56l-20.97,38.58l-20.4,37.56c-0.45,0.83,0.08,1.77,0.88,1.94
				c0.2,0.04,0.42,0.04,0.65-0.03c15.67-4.6,88.34-24.19,154.13-12.54c69.9,12.39,132.75,61.54,139.82,67.22
				c0.44,0.35,0.66,0.53,0.66,0.53s25.56-23.16,71.6-40.25c22.42-8.33,49.7-15.21,81.24-17.29c78.06-5.13,123.65,4.71,138.14,8.63
				c1.37,0.37,2.46,0.69,3.28,0.94c0.68,0.2,1.29-0.51,0.98-1.16c-40.23-85-116.45-148.55-116.45-148.55
				c-13.09-2.54-25.73-3.97-37.82-4.52c-64.22-2.94-113.16,18.82-134.1,30.22c-7.26,3.95-11.15,6.65-11.15,6.65
				c-40.24-34.3-113.92-40.19-135.79-41.18c-3.57-0.17-5.76-0.2-6.2-0.21c-0.05,0-0.08,0-0.08,0"/>
			<path class="st13" d="M259.35,1064.08c0,0-2.81,3.67-0.65,5.62c2.16,1.94,4.32,1.73,3.89,5.18c-0.43,3.46-2.81,2.17-1.08,4.97
				c1.73,2.81,3.67,3.03,3.89,4.11c0.22,1.08-0.43,3.03-0.86,4.76c-0.44,1.73-0.87,3.02,0.64,4.32c1.52,1.3,15.35-1.3,21.18-3.46
				c5.84-2.16,180.06-22.09,244.44,40.53v8.63c0,1.68,1.37,3.03,3.04,3.01l20.57-0.21"/>
			<path class="st13" d="M661.22,631.02c-0.01,0.01-0.01,0.01-0.02,0.01c-0.07,0.02-0.44,0.14-1.08,0.34
				c-10.17,3.17-88.16,27.39-101.96,26.89c0,0-10.32-3.21-10.5-11.22l-12.99,0.36c0,0-0.71,9.43-8.55,10.68
				c-7.33,1.16-80.13-12.01-89.43-13.7c-0.64-0.12-0.98-0.18-0.98-0.18s0.22,0.11,0.64,0.32c2.49,1.22,12.06,5.84,25.81,11.24
				c10.08,3.96,22.41,8.34,35.84,12.11c21.52,6.04,33.04,10.21,43.66,10.37c1.88,0.03,3.73-0.06,5.61-0.3
				c4.71-0.58,9.55-2.04,15.34-4.55c18.53-8.05,43.47-12.92,65.48-21.83c7.93-3.2,15.48-6.93,22.21-11.52
				c3.94-2.68,7.61-5.66,10.9-9.01"/>
			<path class="st13" d="M466.93,705.47c0,0,0.16,0.26,0.46,0.74c2.56,4.02,15.36,23.28,28.43,26.99c0,0,0.64-1.91,1.97-5.05
				c1.94-4.58,5.35-11.77,10.4-19.45c2.73-4.16,5.94-8.46,9.66-12.57c6.4-7.07,14.29-13.56,23.81-17.73"/>
			<path class="st13" d="M547.31,678.23c0,0,11.02,9.04,22.17,21.59c3.2,3.6,6.4,7.49,9.36,11.54c5.36,7.3,9.91,15.13,12.15,22.7
				c0,0,13.42-0.83,27.09-13.63c0.04-0.04,0.07-0.08,0.11-0.11"/>
			<path class="st13" d="M628.31,652.11c0,0-1.08,10.93-3.74,29.12c-1.57,10.77-3.7,24.09-6.49,39.2
				c-6.09,32.97-15.32,74.44-28.77,116.45c-10.78,33.7-24.28,67.74-41.06,98.02c-0.04,0.08-0.09,0.16-0.13,0.24"/>
			<path class="st13" d="M650.37,640.15c0,0,21.47,31.95,25.42,71.24c0,0-16.14,19.49-31.37,29.54c0,0,21.32,33.81,20.71,47.51
				c-0.03,0.64-0.16,1.45-0.4,2.41c-4.85,19.43-52.54,101.22-115.14,146.37"/>
			<path class="st13" d="M508.17,708.38c0,0,0,0.11,0.02,0.32c0.15,3.14,1.74,28.52,14.1,35.95c0.7,0.42,1.44,0.78,2.21,1.08
				c0,0,18.07,5.9,40.13-0.87c12.01-9.49,13.96-29.9,14.21-33.5c0.03-0.36,0.04-0.55,0.04-0.55"/>
			<path class="st13" d="M522.32,744.58c0,0-0.01,0.02-0.03,0.07c-0.77,1.66-15.22,33.46-19.61,93.62"/>
			<path class="st13" d="M564.63,744.86c0,0,23.69,58.96,24.01,91.8"/>
			<path class="st13" d="M754.79,705.39c-0.86,0.34-20.89,11.15-29.09,21.17c-0.79,0.96-1.46,1.9-2,2.83
				c-0.46,0.79-0.82,1.57-1.07,2.33c-1.35,4.14-2.97,9.74-3.2,15.27c-0.38,9.21,3.1,18.2,18.14,19.78c0.07,0.01,0.14,0.01,0.21,0.02
				"/>
			<path class="st13" d="M765.44,739.15c0,0-4.44,2.71-9.93,7.11c-0.96,0.78-1.95,1.6-2.95,2.47c-5.63,4.87-11.7,11.2-14.99,18.04
				c-0.69,1.43-1.25,2.87-1.67,4.33c-3.83,13.4,2.22,19.71,9.1,21.64c1.79,0.5,3.63,0.71,5.37,0.67c0.37-0.01,0.77-0.06,1.19-0.14
				c4.69-0.95,12.61-6.36,19.31-11.5c0.5-0.38,0.99-0.76,1.48-1.13c5.92-4.62,10.57-8.73,10.57-8.73"/>
			<path class="st13" d="M751.58,793.38c0,0-8.14,11.58,5.41,19.47c8.55,4.97,19.43,2.17,27.42-2.36c4.69-2.65,8.38-5.9,10.02-8.53"
				/>
			<path class="st13" d="M784.49,810.64c0,0,1.94,6.21,13.16,3.76c2.91-0.63,5.55-1.52,7.96-2.79c6.89-3.62,11.87-10.29,15.65-22.64
				c4.03-13.15,3.54-34.34,1.97-45.73c-0.42-3.05-0.92-5.39-1.43-6.7c-2.42-6.18-22.58-29.31-25-35.62
				c-0.3-0.77-0.83-1.89-1.59-3.24c-5.42-9.64-22.04-30.8-41.03-18.41c-0.94,0.62-11.88,4.36-24.2,9.9
				c-0.01,0.01-0.02,0.02-0.03,0.02c-12.2,5.48-25.74,12.73-32.23,20.42c-5.94,7.03-12.05,12.87-17.2,18.02
				c-0.03,0.03-0.05,0.05-0.08,0.08c-2.83,2.82-5.36,5.44-7.41,7.95c-2.45,2.95-4.23,5.74-5.05,8.52
				c-2.34,7.84,0.59,14.71,4.76,18.66c0.85,0.8,1.75,1.49,2.67,2.03c5.04,2.99,17.02,8.06,38.99-12.83c1.62-1.53,3.3-3.21,5.03-5.05
				c0.06-0.06,0.13-0.13,0.19-0.2"/>
			<path class="st13" d="M680.5,727.72l0.02-0.09l18.91-84.73l6.74-30.23c0,0,3.66-7.13,19.58-6.22
				c15.92,0.92,20.13,15.37,20.13,15.37l-9.53,40.39l-6.37,26.96l-0.03,0.15"/>
			<polyline class="st13" points="663.81,804.82 663.7,803.05 666.34,791.21 672.65,762.93 			"/>
			<polyline class="st13" points="714.57,752.22 700.01,811.39 699.45,813.66 685.97,835.82 671.24,860.03 667.05,859.19 
				665.34,830.46 663.81,804.83 			"/>
			<path class="st14" d="M663.81,804.82c1.06-2.1,4.09-7.04,9.06-6.57c5.91,0.55,7.74,4.85,7.95,5.39c0.01,0.03,0.02,0.05,0.02,0.05
				s1.94-4.79,9.31-2.48c7.38,2.32,5.23,8.4,5.23,8.4s3.9-0.33,4.63,1.78c0.06,0.13,0.09,0.28,0.11,0.43"/>
			<path class="st13" d="M663.81,804.83c0-0.01,0-0.01,0-0.01"/>
			<path class="st14" d="M663.39,805.74c0,0,0.14-0.36,0.42-0.91"/>
			<polyline class="st14" points="680.86,803.41 680.82,803.64 676.17,828.77 676.17,828.79 			"/>
			<line class="st14" x1="695.38" y1="809.61" x2="682.97" y2="832.29"/>
			<path class="st14" d="M665.45,830.45c0,0,4.95-2.86,10.72-1.68c2.22,0.45,4.56,1.49,6.79,3.53c1.03,0.94,2.05,2.1,3.01,3.52
				c0.07,0.09,0.13,0.19,0.2,0.29"/>
			<path class="st13" d="M669.63,626.01c0,0,23.92,9.63,29.8,16.89c0.02,0.03,0.05,0.06,0.07,0.09"/>
			<path class="st13" d="M736.35,662.21c0,0,15.54,13.89,17.83,17.06"/>
			<path class="st13" d="M794.98,697.57c0,0,0.08,0.04,0.23,0.11c1.56,0.75,10.88,5.34,13.99,9.71c3.4,4.78,25.55,32.1,28.57,38.89
				c3.02,6.8,13.8,26.58,16.37,48.33c2.58,21.75-1.57,50.66-9.15,57.38c-7.59,6.73-3.15,8.3-13.74,12.45
				c-10.59,4.15-45.65,4.72-59.38-13.16c-1.68-2.19-3.34-4.37-4.97-6.58c-6.16-8.32-11.81-16.8-15.83-25.85
				c-3.61-8.13-5.92-16.71-6.09-26.05"/>
			<path class="st13" d="M725.77,774.44c0,0-0.2,18.06-3.1,42.83c-3.53,30.02-11.05,69.9-27.04,99.47"/>
			<path class="st13" d="M722.62,817.21c0,0,0.02,0.02,0.05,0.06c1.09,1.34,20.87,25.24,44.17,27.47"/>
			<path class="st13" d="M733.38,792.14c-0.4,0.47-4.04,16.61-10.45,23.57"/>
			<path class="st13" d="M550.88,556.97c0,0-0.13-2.78,1.32-1.59c1.45,1.19,0.66,1.59,3.57,1.59c2.91,0,31.05,0.39,41.49-3.97
				s35.15-13.61,40.96-14.27c5.81-0.66,18.63-2.51,28.01,4.36c7.18,5.26,13.65,10.2,16.31,12.24c0.21,0.17,0.03,0.51-0.23,0.42
				c-3.14-1.1-10.62-3.37-16.61-2.35c-7.79,1.32-30.26,11.76-37.39,15.06c-7.14,3.31-24.18,13.35-47.04,10.57
				c-13.77-1.67-19.82-2.72-22.46-3.29c-1.21-0.26-2.18-1.15-2.57-2.32L550.88,556.97z"/>
			<path class="st13" d="M521.49,556.02c0,0,0.53-1.98,1.86-1.32c1.33,0.66,0.93,9.94,0.8,10.34c-0.14,0.4-1.2,9.02-1.2,9.02
				s-4.37,2.91-11.4,3.97c-7.03,1.06-45.21,3.85-66.16,2.13c-20.95-1.73-29.2,6.33-30.23,7.95c-0.99,1.55-4.97,7.01-6.88,9.82
				c-0.19,0.27-0.61,0.09-0.55-0.23c1.21-6.05,6.69-29.74,19.49-36.77c14.72-8.09,42.96-4.64,51.98-4.24
				c9.01,0.39,41.9-0.67,41.9-0.67"/>
			<path class="st13" d="M444.05,588.78c0,0,0-0.02,0.01-0.05c0.09-0.26,1.3-1.44,16.27,1.57c16.61,3.35,34.54,10.04,47.08,10.64
				c12.55,0.6,36.69,0.6,36.69,0.6s35.73-0.96,50.78-5.02c12.29-3.32,55.88-18.34,71.48-23.74c3.51-1.22,5.6-1.95,5.6-1.95"/>
			<path class="st13" d="M444.25,588.74c0,0,6.92,0.8,10.16,5.95c3.25,5.15,11.45,16.79,19.18,20.51
				c7.72,3.72,28.04,9.64,58.66,9.83c30.63,0.19,53.33-3.25,61.82-5.73c8.49-2.48,26.33-11.16,32.34-17.74s13.64-15.74,16.5-16.98
				s23.46-11.76,23.46-11.76"/>
		</g>
	</g>
	<g>
		<path class="st15" d="M305.66,885.56c-1.95,1.02-3.67,2.32-5.21,3.8c-1.58,1.42-2.86,3.12-4.1,4.79
			c-2.37,3.46-4.01,7.38-5.12,11.44c-0.67,2-0.97,4.11-1.42,6.19c-0.39,2.09-0.53,4.23-0.85,6.36c-0.07,1.07-0.11,2.15-0.19,3.22
			c-0.07,1.08-0.2,2.16-0.22,3.24c-0.04,2.17-0.08,4.35-0.24,6.56c-0.5-2.14-0.86-4.31-1.23-6.5c-0.24-2.19-0.35-4.41-0.46-6.63
			c-0.01-1.11,0.07-2.22,0.13-3.34l0.09-1.67c0.02-0.56,0.06-1.12,0.16-1.67c0.36-2.21,0.64-4.44,1.35-6.6
			c0.57-2.18,1.48-4.28,2.42-6.33l1.69-2.96c0.66-0.93,1.33-1.85,2.04-2.74l1.16-1.25c0.39-0.41,0.75-0.85,1.21-1.19
			c0.87-0.73,1.71-1.48,2.68-2.08C301.43,886.97,303.48,885.95,305.66,885.56z"/>
	</g>
</g>
<g id="레이어_5">
	<g>
		<path d="M419.05,562.52c-1.63,1.89-3.21,3.76-4.73,5.66c-1.51,1.91-2.97,3.84-4.31,5.84l-1,1.51c-0.33,0.5-0.61,1.04-0.93,1.55
			c-0.33,0.51-0.62,1.03-0.89,1.57c-0.27,0.54-0.59,1.05-0.85,1.6c-1.09,2.16-1.93,4.41-2.75,6.78c-0.01-2.49,0.45-5.02,1.31-7.39
			c0.87-2.37,2.05-4.63,3.44-6.72c1.43-2.07,3.03-4.02,4.82-5.77C414.95,565.39,416.89,563.78,419.05,562.52z"/>
	</g>
	<g>
		<path d="M670.95,563.85c0.92-0.28,1.99-0.22,2.95,0.34c0.97,0.56,1.55,1.72,1.66,2.76c0.28,2.14-0.34,4.08-1.03,5.88
			c-0.72,1.74-1.54,3.44-2.49,5.09c-0.47,0.82-0.99,1.62-1.56,2.39c-0.6,0.73-1.18,1.57-2.06,2.01c0.56-0.75,0.85-1.65,1.21-2.5
			c0.35-0.86,0.67-1.73,1.01-2.59c0.67-1.73,1.33-3.46,2.05-5.17c0.64-1.66,1.3-3.36,1.33-4.98c0.02-0.81-0.16-1.57-0.71-2.13
			C672.76,564.37,671.89,564.01,670.95,563.85z"/>
	</g>
	<g>
		<path d="M661.89,537.39c1.47,0.15,2.86,0.55,4.21,1.03c1.35,0.49,2.66,1.08,3.91,1.79c1.25,0.71,2.45,1.53,3.54,2.5
			c1.08,0.96,2.1,2.07,2.73,3.41c-1.25-0.78-2.44-1.45-3.64-2.15l-3.62-2.03c-1.2-0.69-2.41-1.39-3.6-2.13
			C664.23,539.08,663.04,538.3,661.89,537.39z"/>
	</g>
	<g>
		<path d="M517.01,637.38c4,1.93,7.81,3.02,11.6,3.62c3.78,0.6,7.52,0.58,11.28,0.21l2.84-0.32c0.95-0.18,1.89-0.39,2.85-0.55
			c0.48-0.08,0.96-0.14,1.44-0.25c0.47-0.14,0.95-0.25,1.43-0.37c0.96-0.25,1.93-0.46,2.92-0.67c1.94-0.55,3.9-1.12,5.96-1.6
			c2-0.63,4.05-1.21,6.29-1.6c-1.39,1.73-2.97,3.27-4.61,4.77c-1.74,1.34-3.57,2.61-5.48,3.75c-1,0.5-2.01,0.99-3.03,1.45
			c-0.51,0.23-1.02,0.47-1.54,0.69c-0.53,0.2-1.08,0.35-1.62,0.52c-1.09,0.33-2.19,0.63-3.29,0.94c-1.13,0.19-2.28,0.34-3.42,0.5
			c-4.59,0.46-9.42-0.11-13.7-2c-1.07-0.48-2.11-0.97-3.07-1.64c-0.48-0.33-0.98-0.6-1.43-0.97l-1.33-1.1
			C519.41,641.23,517.89,639.47,517.01,637.38z"/>
	</g>
	<g>
		<path d="M449.97,584.89c-1.52,0.44-2.86,1.07-4.16,1.75c-1.29,0.7-2.5,1.52-3.67,2.38c-1.17,0.88-2.28,1.85-3.39,2.85
			c-0.55,0.51-1.08,1.04-1.65,1.55c-0.55,0.53-1.09,1.08-1.71,1.59c0.25-0.75,0.59-1.47,0.93-2.18c0.41-0.67,0.79-1.37,1.27-2
			c0.95-1.26,2.05-2.45,3.35-3.41c1.29-0.96,2.73-1.74,4.27-2.22C446.75,584.74,448.41,584.51,449.97,584.89z"/>
	</g>
	<g>
		<path d="M477.92,422.46c1.91-1.55,4.01-2.79,6.12-3.98c2.12-1.19,4.3-2.25,6.52-3.24c2.23-0.95,4.5-1.85,6.84-2.56
			c2.33-0.68,4.77-1.3,7.24-1.19c-2.34,0.71-4.49,1.71-6.7,2.65l-6.58,2.92c-2.21,0.95-4.41,1.92-6.65,2.81
			C482.49,420.81,480.22,421.65,477.92,422.46z"/>
	</g>
	<g>
		<path d="M473.9,428.51c1.91-1.55,4.01-2.79,6.12-3.98c2.12-1.19,4.3-2.25,6.52-3.24c2.23-0.95,4.5-1.85,6.84-2.56
			c2.33-0.68,4.77-1.3,7.24-1.19c-2.34,0.71-4.49,1.71-6.7,2.65l-6.58,2.92c-2.21,0.95-4.41,1.92-6.65,2.81
			C478.46,426.85,476.2,427.69,473.9,428.51z"/>
	</g>
	<g>
		<path d="M367.74,187.17c1.99,1.64,4.16,3.04,6.38,4.29c2.23,1.25,4.54,2.35,6.92,3.22c4.76,1.76,9.78,2.75,14.76,2.57
			c4.98-0.12,9.86-1.38,14.32-3.5c4.49-2.24,8.85-4.84,13.05-7.71c8.41-5.74,16.45-12.11,24.34-18.65
			c7.91-6.53,15.7-13.24,23.45-20.01l11.76-10.06c1.97-1.67,3.97-3.33,5.98-4.97l6-4.86c8.03-6.46,16.26-12.88,25.09-18.4
			c8.8-5.56,18.25-10.21,28.16-13.44c9.91-3.18,20.33-4.89,30.65-4.44c-10.3,0.66-20.36,3-29.83,6.75l-3.55,1.4
			c-1.17,0.51-2.31,1.07-3.47,1.6c-1.15,0.55-2.32,1.03-3.44,1.65l-3.37,1.8l-1.68,0.9l-1.64,0.97l-3.29,1.93
			c-2.16,1.35-4.3,2.73-6.41,4.15c-8.39,5.79-16.39,12.12-24.22,18.79l-5.95,4.94c-1.96,1.63-3.92,3.27-5.87,4.95l-11.65,10.11
			c-15.66,13.38-31.33,26.96-48.94,38.14c-2.23,1.36-4.44,2.74-6.77,3.96c-2.26,1.31-4.69,2.38-7.08,3.48
			c-4.95,2.04-10.32,3.14-15.66,2.97c-5.33-0.19-10.54-1.55-15.28-3.74C375.78,193.75,371.41,190.8,367.74,187.17z"/>
	</g>
</g>
<g id="레이어_7">
</g>
<g id="레이어_6">
</g>
<g id="레이어_4">
	<g>
		<path d="M272.71,1114.74c1.05,23.29-7.35,44.99-25.2,65.1c-3.15,3.53-6.92,6-11.29,7.41c-5.6,1.59-6.65-0.09-3.15-5.03
			c14.18-19.94,22.32-40.58,24.42-61.93c0.35-2.82-0.53-4.32-2.63-4.5c-12.95-0.88-28.71,3.8-47.26,14.03
			c-4.55-4.94-6.3-11.12-5.25-18.53c16.63-8.47,33.95-12.17,51.98-11.11c3.32,0.53,7.13,2.34,11.42,5.42
			C270.04,1108.7,272.35,1111.74,272.71,1114.74z M313.4,1187.52c5.6,0.53,9.8,3.27,12.6,8.2l-6.04,3.44
			c17.15,3,24.5,9.09,22.05,18.26c-2.8,10.76-9.58,19.19-20.35,25.27c-10.76,6.09-20.87,8.16-30.32,6.22
			c-10.15-2.47-14-8.56-11.55-18.26c2.45-10.06,7-18.96,13.65-26.73C300.1,1196.17,306.74,1190.7,313.4,1187.52z M313.92,1131.15
			c5.78-1.59,11.72-2.56,17.85-2.91c4.02-0.17,7.44,0.26,10.24,1.32c2.63-15.88,6.91-31.58,12.86-47.11
			c6.3,1.59,11.99,4.68,17.06,9.26c-10.15,23.29-18.03,51.96-23.63,86.01c-1.05,6.35-2.89,7.24-5.51,2.65
			c-2.28-4.06-3.41-9.79-3.41-17.2c0-8.64,0.52-17.2,1.57-25.67c-11.38,2.3-21.79,5.74-31.24,10.32c-1.75,7.24-3.15,14.73-4.2,22.49
			c-1.05,6.53-2.89,7.5-5.51,2.91c-2.45-4.06-3.68-9.35-3.68-15.88c-0.18-21.35,2.71-41.19,8.66-59.55
			c7.35,1.06,13.3,3.7,17.85,7.94C319.52,1113.86,316.55,1122.33,313.92,1131.15z M297.38,1231.72c-0.7,3.35,0.17,5.65,2.63,6.88
			c2.8,1.06,7.09-0.66,12.86-5.16c5.78-4.5,9.62-10.63,11.55-18.39c1.22-4.94-2.45-8.2-11.03-9.79
			C305,1211.96,299.66,1220.78,297.38,1231.72z"/>
		<path d="M387.96,1211.34c23.1-7.41,45.42-12.08,66.94-14.03c27.3-2.47,47.95-1.59,61.96,2.65c5.6,1.77,5.78,3.8,0.52,6.09
			c-5.43,2.3-11.12,2.74-17.06,1.32c-32.91,0.88-69.05,9-108.43,24.35C388.57,1225.54,387.25,1218.75,387.96,1211.34z
			 M491.92,1099.66c-33.78,25.06-60.21,54.43-79.28,88.13c-5.25,7.94-7.79,8.56-7.61,1.85c0.35-11.11,3.76-22.05,10.24-32.82
			c17.15-28.58,37.54-50.64,61.17-66.16C483.08,1091.01,488.24,1094.01,491.92,1099.66z M504.26,1164.23
			c0.7,6.35-1.66,7.06-7.09,2.12c-11.73-10.23-25.56-18.79-41.48-25.67c3.68-6.7,9.19-9.97,16.54-9.79
			c10.15,4.76,19.17,12.17,27.04,22.23C502.07,1156.65,503.73,1160.35,504.26,1164.23z"/>
		<path d="M625.02,1183.82c-14.18,10.59-29.84,18.62-46.99,24.08c-3.33,0.89-6.74,1.06-10.24,0.53c-5.25-1.41-9.45-4.85-12.6-10.32
			c0.52-11.64,2.01-22.67,4.46-33.08l-4.73,1.32c-2.98-4.94-3.94-9.7-2.89-14.29c4.02-0.7,7.96-1.32,11.81-1.85
			c2.97-8.47,6.65-16.67,11.03-24.61c-9.98,1.24-19.95,3.27-29.93,6.09c-2.8-4.59-3.76-9.79-2.89-15.61
			c12.08-2.12,25.95-3,41.61-2.65c15.66,0.36,27.43,1.5,35.31,3.44c5.6,1.59,5.86,3.62,0.79,6.09c-4.38,1.94-9.54,2.38-15.49,1.32
			h-6.56c-6.48,7.77-11.81,15.79-16.01,24.08c12.08-0.7,23.28-0.44,33.6,0.79c4.73,0.53,5.25,2.3,1.58,5.29
			c-4.38,3.18-9.54,4.33-15.49,3.44c-8.4,0.53-16.8,1.59-25.2,3.18c-3.85,10.24-6.21,20.91-7.09,32.02
			c-0.18,2.3,1.49,2.91,4.99,1.85c19.6-6,38.33-13.59,56.18-22.76c3.67-1.59,4.37-0.27,2.1,3.97
			C630.8,1178.79,628.34,1181.35,625.02,1183.82z M675.43,1147.29c-12.95,1.41-26.25,4.41-39.9,9c-5.08-3.35-8.05-7.85-8.93-13.5
			c15.58-4.41,32.64-7.06,51.19-7.94c2.45-11.29,5.34-22.49,8.66-33.61c7.88,0.18,13.91,3.35,18.11,9.53
			c-10.85,30.53-19.43,65.02-25.73,103.48c-1.05,5.29-2.72,6.18-4.99,2.65c-2.63-4.06-3.94-10.14-3.94-18.26
			C670.61,1181.35,672.45,1164.23,675.43,1147.29z"/>
		<path d="M830.06,1156.29c-11.2,10.41-24.41,20.64-39.64,30.7c-24.15,15.88-39.82,21.53-46.99,16.94
			c-4.38-2.82-7.53-6.44-9.45-10.85c0.17-22.58,5.42-43.14,15.75-61.66c-8.23,1.24-16.71,2.83-25.47,4.76
			c-2.98-4.41-3.94-9.88-2.89-16.41c12.08-1.94,27.13-2.82,45.16-2.65c18.02,0.18,31.85,1.5,41.48,3.97
			c5.07,1.41,5.42,3.27,1.05,5.56c-4.73,2.12-9.98,2.65-15.75,1.59c-6.13-0.17-12.43,0-18.9,0.53
			c-16.1,19.94-25.12,40.49-27.04,61.66c1.75,0.89,6.91-0.66,15.49-4.63c8.57-3.97,16.54-8.25,23.89-12.84
			c15.75-9.88,30.28-19.67,43.58-29.38c7.17-5.29,9.54-4.41,7.09,2.65C836.36,1149.41,833.9,1152.76,830.06,1156.29z
			 M870.49,1110.77c-10.85,30.53-19.43,65.02-25.73,103.48c-1.05,5.29-2.72,6.18-4.99,2.65c-2.63-4.06-3.94-10.14-3.94-18.26
			c1.4-32.82,6.91-65.28,16.54-97.39C860.25,1101.42,866.29,1104.6,870.49,1110.77z"/>
	</g>
</g>
</svg>
