<svg xmlns="http://www.w3.org/2000/svg" width="176" height="26.754" viewBox="0 0 176 26.754">
    <defs>
        <style>
            .cls-1{fill:#2552e6}
        </style>
    </defs>
    <g id="img_logo_txt" transform="translate(4231.991 4051.494)">
        <path id="패스_95" d="M-4207.771-4040.93a1.351 1.351 0 0 0-1.229-.986l-.036-.006a30.885 30.885 0 0 0-14.881 1.772l-.628.226-.017.666a4.31 4.31 0 0 0 1.474 3.458l.494.444.594-.3a29.291 29.291 0 0 1 5.557-2.159c-.152.541-.29 1.083-.412 1.622a12.281 12.281 0 0 1-4.151 3.411 8.575 8.575 0 0 1-5.788.873 9.1 9.1 0 0 1 .075-5.824c1.413-4.888 5.013-7.983 11-9.469l1.454-.36-.92-1.181a5.372 5.372 0 0 0-3.872-2.054l-.2-.019-.195.062c-6.816 2.213-10.974 6.755-12.36 13.523a10.27 10.27 0 0 0 .386 5.281 7.044 7.044 0 0 0 3.55 4.015c3.177 1.21 6.6.579 10.182-1.875.071-.047.137-.093.2-.142q.014.755.083 1.5a6.194 6.194 0 0 0 .421 1.671c.145.3.568 1.171 1.381 1.171a1.1 1.1 0 0 0 .192-.016c.982-.16 1.135-1.339 1.212-1.922a33.376 33.376 0 0 1 2.908-10.654l.2-.426a4.128 4.128 0 0 0 2.546-.739 1.527 1.527 0 0 0 .78-1.563zm-1.541.929l.008-.062.03-.014-.007.089z" class="cls-1" transform="translate(0 .64)"/>
        <path id="패스_96" d="M-4206.033-4047.913l-.162-.457-.46-.146-.078-.025c.134-.144.27-.288.406-.43l.641-.675-.645-.671a4.6 4.6 0 0 0-4.111-1.111l-.333.043-.235.237c-2.239 2.269-4.476 5.976-6.647 11.016a37.835 37.835 0 0 0-2.862 9.483 10.108 10.108 0 0 0 .092 3.858c.117.309.474 1.245 1.353 1.245h.027c.586-.014 1.014-.416 1.3-1.276a58.692 58.692 0 0 1 2.76-8.495 26.846 26.846 0 0 1 7.113-2.042c.4 2.022.832 5.056 1.283 9.068.152.91.637 1.187 1.021 1.259.883.167 1.4-.714 1.632-1.105a6.089 6.089 0 0 0 .6-2.542 47.986 47.986 0 0 0-.712-9.226 48.645 48.645 0 0 0-1.983-8.008zm-4.815 7.04q-.77.094-1.585.231a46.934 46.934 0 0 1 2.515-3.983 30 30 0 0 1 1.194 3.6 19.463 19.463 0 0 0-2.124.152z" class="cls-1" transform="translate(10.711)"/>
        <path id="패스_97" d="M-4191.714-4049c-.828-.539-1.75.175-2.146.479l-.06.052c-.781.71-1.453 2.062-2.125 4.25a54.479 54.479 0 0 0-2.046 10.31 42.686 42.686 0 0 1-2.741-4.33 42.4 42.4 0 0 1-3.662-8.734c.083-.3.177-.582.276-.861l.169-.475-.292-.412a4 4 0 0 0-3.527-1.766l-.708.016-.2.677a75.97 75.97 0 0 0-2.912 17.514 9.13 9.13 0 0 0 .412 3.821c.235.523.708 1.574 1.621 1.574a1.23 1.23 0 0 0 .187-.014c1.042-.157 1.2-1.432 1.279-2.067a91.656 91.656 0 0 1 1.758-10.866c.658 1.41 1.389 2.8 2.185 4.157a36.582 36.582 0 0 0 6.161 7.845l.417.4.557-.179a6.9 6.9 0 0 0 2.811-1.634l.254-.253.028-.356a99.757 99.757 0 0 1 2.769-17.262c.08-.341.331-1.374-.465-1.886z" class="cls-1" transform="translate(19.087 .947)"/>
        <path id="패스_98" d="M-4177.412-4040.932a1.352 1.352 0 0 0-1.229-.984l-.035-.006a30.879 30.879 0 0 0-14.88 1.772l-.628.226-.018.666a4.308 4.308 0 0 0 1.472 3.458l.5.444.592-.3a29.324 29.324 0 0 1 5.558-2.159c-.153.541-.292 1.083-.414 1.622a12.24 12.24 0 0 1-4.149 3.411 8.567 8.567 0 0 1-5.79.873 9.118 9.118 0 0 1 .075-5.824c1.416-4.887 5.014-7.983 11-9.469l1.456-.36-.92-1.181a5.39 5.39 0 0 0-3.873-2.054l-.2-.019-.2.062c-6.814 2.213-10.971 6.758-12.36 13.525a10.267 10.267 0 0 0 .389 5.279 7.028 7.028 0 0 0 3.547 4.015c3.174 1.21 6.6.579 10.183-1.875.068-.047.137-.1.2-.144.011.506.037 1.008.083 1.506a6.194 6.194 0 0 0 .419 1.671c.146.3.568 1.171 1.381 1.171a1.135 1.135 0 0 0 .194-.016c.982-.16 1.136-1.339 1.212-1.922a33.314 33.314 0 0 1 2.91-10.654l.2-.426a4.146 4.146 0 0 0 2.547-.739 1.524 1.524 0 0 0 .778-1.569zm-1.541.932l.008-.062.033-.014-.009.089z" class="cls-1" transform="translate(28.58 .64)"/>
        <path id="패스_99" d="M-4179.427-4040.313c-4.137-.939-4.316-1.79-4.318-1.79.518-2.255 3.826-3.844 9.568-4.593l1.342-.175-.6-1.218a5.212 5.212 0 0 0-3.612-2.982l-.193-.044-.193.036c-6.244 1.114-9.826 3.917-10.646 8.348-.535 3.153 2.071 5.462 7.775 6.865 2.515.546 3.337 1.219 3.279 1.523-.351 1.7-1.722 2.7-4.128 3.044a10.4 10.4 0 0 1-5.908-1.317c-.455-.2-1.522-.664-2.247-.007a1.438 1.438 0 0 0-.3 1.634 3.392 3.392 0 0 0 .926 1.451 10.34 10.34 0 0 0 6.738 2.51q.426 0 .857-.035c4.913-.6 7.844-2.7 8.72-6.262.503-2.342-.312-5.453-7.06-6.988z" class="cls-1" transform="translate(39.801 .359)"/>
        <path id="패스_100" d="M-4143.4-4047.8l-.326-.293a7.964 7.964 0 0 0-3.592-1.743l-1.487-.343.315 1.492a19.286 19.286 0 0 1 .07 6.283c-.779 5.575-2.189 9.107-4.16 10.479-1.884 1.21-3.393 1.412-4.535.675a2.658 2.658 0 0 1-.971-1.547c-.911-4.081-.265-8.86 1.922-14.2l.175-.428-.224-.407a10.211 10.211 0 0 0-2.264-2.771l-.987-.863-.54 1.194c-.154.341-.307.708-.461 1.08a2.11 2.11 0 0 0-1.106-.809h-.01a21.792 21.792 0 0 0-7.279-.961 62.708 62.708 0 0 0-11.346 1.087l-.808.156.021.823a6.688 6.688 0 0 0 1.057 3.493l.394.623.707-.213c1.932-.581 3.789-1.047 5.54-1.39a86.532 86.532 0 0 0-2.4 15.887 8.616 8.616 0 0 0 .421 3.754c.249.534.752 1.608 1.677 1.608a1.365 1.365 0 0 0 .189-.015c1.013-.155 1.178-1.359 1.255-1.909a97.488 97.488 0 0 1 4.106-20.034 24.277 24.277 0 0 1 3.914.064 4.582 4.582 0 0 0 2.942-.368l.029-.02-.037.093c-1.882 6.075-2.215 11.253-.974 15.436a7.471 7.471 0 0 0 3.417 4.19 7.467 7.467 0 0 0 3.556.941 9.55 9.55 0 0 0 6.274-2.812c3.607-3.377 5.465-9.36 5.521-17.787z" class="cls-1" transform="translate(47.968 .025)"/>
        <path id="패스_101" d="M-4153.737-4048.7l.153-.426-.294-.417a4.476 4.476 0 0 0-3.416-1.844l-.768-.07-.245.731a75.185 75.185 0 0 0-3.5 19.351 9.122 9.122 0 0 0 .412 3.823c.235.521.71 1.572 1.621 1.572a1.253 1.253 0 0 0 .189-.014 1.419 1.419 0 0 0 1.1-1.123 3.044 3.044 0 0 0 1.112.3 9.738 9.738 0 0 0 4.53-1 28.983 28.983 0 0 0 11.208-9.189l.122-.239a5.2 5.2 0 0 0-.421-4.793c-2.383-2.878-6.351-5.115-11.803-6.662zm-1.494 4.677a23.747 23.747 0 0 1 9.664 4.133c-2.346 3.916-6.406 7.3-12.093 10.086-.136.07-.314.16-.494.272a82.988 82.988 0 0 1 2.923-14.491z" class="cls-1" transform="translate(66.019 .036)"/>
        <path id="패스_102" d="M-4131.9-4049.371a4.491 4.491 0 0 0-3.522-1.582l-.421-.009-.294.3a47.655 47.655 0 0 0-7.152 9.7 19.386 19.386 0 0 1-1.772-2.75 14.836 14.836 0 0 1-1.854-6.205l-.056-.934-.936.02a4.929 4.929 0 0 0-3.7 1.636l-.37.409.16.527a23.545 23.545 0 0 0 6.8 11.044 31.278 31.278 0 0 0-.6 8.378 5.364 5.364 0 0 0 .861 2.785 1.763 1.763 0 0 0 1.323.806 1.223 1.223 0 0 0 .384-.064c.98-.321 1.031-1.6 1.057-2.218a40.06 40.06 0 0 1 1.37-9.353 47.913 47.913 0 0 1 8.64-11.169l.651-.626z" class="cls-1" transform="translate(75.334 .504)"/>
    </g>
</svg>
