<svg xmlns="http://www.w3.org/2000/svg" width="34" height="34" viewBox="0 0 34 34">
    <g transform="translate(-1334 -1372)">
        <circle cx="17" cy="17" r="17" fill="#2552e6" transform="translate(1334 1372)"/>
        <g>
            <g>
                <path fill="#fff" d="M257.5 253.633l-2.252-2.252a1.5 1.5 0 0 0-2.494.563 1.533 1.533 0 0 1-1.769.965 6.946 6.946 0 0 1-4.183-4.183 1.458 1.458 0 0 1 .965-1.769 1.5 1.5 0 0 0 .563-2.494l-2.252-2.253a1.608 1.608 0 0 0-2.172 0l-1.528 1.528c-1.528 1.609.161 5.872 3.941 9.653s8.044 5.55 9.652 3.941l1.528-1.528a1.607 1.607 0 0 0 .001-2.171z" transform="translate(1342.948 1380.947) translate(-241.82 -241.789)"/>
            </g>
        </g>
    </g>
</svg>
