<svg xmlns="http://www.w3.org/2000/svg" width="26" height="24.124" viewBox="0 0 26 24.124">
    <defs>
        <style>
            .cls-1{fill:#3f2620}
        </style>
    </defs>
    <g id="ic_kakao" transform="translate(-1101.579 2.397)">
        <path id="패스_282" d="M1114.578-2.4c-7.18 0-13 4.636-13 10.354 0 3.635 2.353 6.831 5.912 8.678l-.983 5.091 5.622-3.6a16.23 16.23 0 0 0 2.448.186c7.18 0 13-4.636 13-10.354S1121.758-2.4 1114.578-2.4zm-6.6 13.122a.55.55 0 0 1-.548.548h-.123a.55.55 0 0 1-.548-.548V6.2h-1.332a.586.586 0 0 1-.307-.086.523.523 0 0 1-.2-.222.457.457 0 0 1 0-.389.5.5 0 0 1 .117-.158.566.566 0 0 1 .387-.148h3.868a.58.58 0 0 1 .306.086.52.52 0 0 1 .2.221.481.481 0 0 1 .042.194.475.475 0 0 1-.042.194.527.527 0 0 1-.117.16.572.572 0 0 1-.388.148h-1.318zm6.48.281a.542.542 0 0 1-.235.206l-.114.051a.553.553 0 0 1-.518-.036.54.54 0 0 1-.206-.235l-.449-.984h-2.536l-.446.978a.538.538 0 0 1-.206.235.554.554 0 0 1-.52.036l-.112-.051a.534.534 0 0 1-.235-.206.549.549 0 0 1-.085-.294.534.534 0 0 1 .049-.225l2.2-4.818.016-.046a.561.561 0 0 1 .067-.156l.043-.06a.531.531 0 0 1 .167-.166.554.554 0 0 1 .294-.085.871.871 0 0 1 .09.006.553.553 0 0 1 .271.084.592.592 0 0 1 .139.123.55.55 0 0 1 .144.266l2.331 5.125zm4.662-.013a.5.5 0 0 1-.1.133.574.574 0 0 1-.387.147H1115.385a.6.6 0 0 1-.249-.083.523.523 0 0 1-.184-.191l-.056-.09V5.742a.549.549 0 0 1 .548-.547h.125a.549.549 0 0 1 .546.547v4.541h2.518a.587.587 0 0 1 .305.084.6.6 0 0 1 .12.1l.219.245zm5.108-.1a.541.541 0 0 1-.167.2l-.1.073a.564.564 0 0 1-.567.048.552.552 0 0 1-.2-.167l-1.72-2.344-.723.754v1.269a.55.55 0 0 1-.547.548h-.123a.548.548 0 0 1-.387-.161.571.571 0 0 1-.092-.122l-.069-.124V5.742a.549.549 0 0 1 .548-.547h.125a.548.548 0 0 1 .546.547v1.953l2.24-2.335a.535.535 0 0 1 .184-.126.561.561 0 0 1 .589.109l.09.086a.546.546 0 0 1 .126.183.564.564 0 0 1 .041.213.542.542 0 0 1-.151.378l-1.54 1.606 1.847 2.522a.543.543 0 0 1 .1.322.559.559 0 0 1-.053.247z" class="cls-1"/>
        <path id="패스_283" d="M1165 65.245h1.624l-.812-1.779z" class="cls-1" transform="translate(-54.145 -56.227)"/>
    </g>
</svg>
