<svg xmlns="http://www.w3.org/2000/svg" width="22" height="18.195" viewBox="0 0 22 18.195">
    <defs>
        <style>
            .normal { fill: #c2c5ce }
            .clicked { fill: #2552e6 }
            .active { fill: #000 }
        </style>
    </defs>
    <g id="ic_member" transform="translate(-246 -247.275)">
        <circle id="타원_34" cx="3.738" cy="3.738" r="3.738" class="paint normal" transform="translate(253.262 247.275)"/>
        <circle id="타원_35" cx="2.363" cy="2.363" r="2.363" class="paint normal" transform="translate(262.199 250.025)"/>
        <circle id="타원_36" cx="2.363" cy="2.363" r="2.363" class="paint normal" transform="translate(247.074 250.025)"/>
        <path id="패스_279" d="M251.766 256.062a3.822 3.822 0 0 0-2.849-.661A2.912 2.912 0 0 0 246 258.3v4.693a1.262 1.262 0 0 0 1.264 1.258c3.009 0 2.647.055 2.647-.129 0-3.322-.394-5.764 1.855-8.06z" class="paint normal" transform="translate(0 -.188)"/>
        <path id="패스_280" d="M257.553 255.42a6.382 6.382 0 0 0-4.92 1.165c-2.357 1.888-1.9 4.43-1.9 7.539a1.507 1.507 0 0 0 1.5 1.5c9.07 0 9.43.293 9.968-.9.176-.4.128-.275.128-4.128a5.21 5.21 0 0 0-4.777-5.183z" class="paint normal" transform="translate(.47 -.191)"/>
        <path id="패스_281" d="M263.607 255.4a3.819 3.819 0 0 0-2.849.661c2.233 2.279 1.856 4.552 1.856 8.06 0 .186-.3.13 2.6.13a1.307 1.307 0 0 0 1.309-1.3V258.3a2.912 2.912 0 0 0-2.916-2.9z" class="paint normal" transform="translate(1.476 -.188)"/>
    </g>
</svg>
