<svg xmlns="http://www.w3.org/2000/svg" width="36" height="36" viewBox="0 0 36 36">
    <defs>
        <style>
            .cls-3{fill:none;stroke:#2a2a2e;stroke-linecap:round;stroke-linejoin:round;stroke-width:1.5px}
        </style>
    </defs>
    <g id="ic_manual_04" transform="translate(-474 -459.574)">
        <path id="사각형_818" fill="none" d="M0 0H36V36H0z" transform="translate(474 459.574)"/>
        <g id="그룹_214" transform="translate(-281.961 3.56)">
            <path id="패스_305" fill="#2552e6" d="M778.289 485.693h11.154a1.172 1.172 0 0 0 1.015-1.758l-5.577-9.66-5.577-9.66a1.172 1.172 0 0 0-2.03 0l-5.577 9.66-5.577 9.66a1.172 1.172 0 0 0 1.015 1.758z" opacity="0.4" transform="translate(-2.656 -.834)"/>
            <path id="패스_306" d="M774.289 483.678h11.154a1.172 1.172 0 0 0 1.015-1.758l-5.577-9.66-5.581-9.66a1.172 1.172 0 0 0-2.03 0l-5.577 9.66-5.577 9.66a1.172 1.172 0 0 0 1.015 1.758z" class="cls-3"/>
            <path id="선_5" d="M0 0L0 0.348" class="cls-3" transform="translate(774.289 478.651)"/>
            <path id="선_6" d="M0 0L0 5.873" class="cls-3" transform="translate(774.289 469.782)"/>
        </g>
    </g>
</svg>
