<svg xmlns="http://www.w3.org/2000/svg" width="430" height="325.986" viewBox="0 0 430 325.986">
    <defs>
        <clipPath id="clip-path">
            <path id="사각형_642" d="M0 0h70.849a3.918 3.918 0 0 1 3.918 3.918v11.518a2.754 2.754 0 0 1-2.754 2.754H0V0z" class="cls-1"/>
        </clipPath>
        <clipPath id="clip-path-2">
            <path id="사각형_650" d="M0 0h61.255a2.5 2.5 0 0 1 2.5 2.5v3.769a6.914 6.914 0 0 1-6.914 6.914H0V0z" class="cls-1" transform="rotate(180 31.876 6.591)"/>
        </clipPath>
        <clipPath id="clip-path-3">
            <path id="사각형_657" d="M0 0h73.812a9.366 9.366 0 0 1 9.366 9.366v4.026a7.433 7.433 0 0 1-7.433 7.433H0V0z" class="cls-1" transform="rotate(-180 41.589 10.412)"/>
        </clipPath>
        <clipPath id="clip-path-4">
            <path id="패스_173" d="M-780.042 489.3l84.305-1.517s-.512-31.809.832-64.133c.575-14.415 3.312-30.042-.464-45.9-9.971-41.712-43.012-43.538-41-41.647l-26.148 14.865c-1.455 5.009-15.61 24.634-17.9 36.011-.187.849-.347 1.739-.492 2.608a57.485 57.485 0 0 0-.721 9.125 22.221 22.221 0 0 0 .132 2.688 37.226 37.226 0 0 0 .416 4.008 37.57 37.57 0 0 0 12.6 22.528l-.125.523-.028.118z" class="cls-1" transform="translate(781.631 -335.624)"/>
        </clipPath>
        <style>
            .cls-1{fill:none}.cls-2,.cls-4{fill:#f2f5f4}.cls-2{mix-blend-mode:multiply;isolation:isolate}.cls-3{fill:#fff}.cls-5{fill:#d57548}.cls-6{fill:#ffb72f}.cls-7{fill:#aabc95}.cls-8{fill:#f1f1f3}.cls-9{fill:#e3e9e7}.cls-10{fill:#eaa105}.cls-11{fill:#450000}.cls-12{fill:#c43f00}.cls-13{fill:#b22900}.cls-14{fill:#e9eeec}.cls-16{fill:#f1f4f6}.cls-17{fill:#dee5e3}.cls-19{fill:#5e2222}.cls-21{fill:#d7e0dd}.cls-22{fill:#efbfa9}.cls-24{fill:#e89076}.cls-26{fill:#e5ebea}
        </style>
    </defs>
    <g id="img_main" transform="translate(829.493 -187.621)">
        <g id="그룹_94" transform="translate(-805.485 306.448)">
            <rect id="사각형_617" width="207.071" height="163.942" class="cls-2" rx="8.665" transform="translate(0 10.745)"/>
            <g id="그룹_90" transform="translate(9.268)">
                <g id="그룹_89">
                    <rect id="사각형_618" width="207.071" height="163.942" class="cls-3" rx="8.665" transform="translate(.313 .313)"/>
                    <path id="패스_103" d="M-597.5 420.725h-189.739a8.988 8.988 0 0 1-8.978-8.979V265.135a8.988 8.988 0 0 1 8.978-8.979H-597.5a8.99 8.99 0 0 1 8.979 8.979v146.611a8.99 8.99 0 0 1-8.979 8.979zm-189.739-163.942a8.36 8.36 0 0 0-8.351 8.352v146.611a8.36 8.36 0 0 0 8.351 8.352H-597.5a8.361 8.361 0 0 0 8.352-8.352V265.135a8.361 8.361 0 0 0-8.352-8.352z" class="cls-4" transform="translate(796.217 -256.156)"/>
                </g>
                <path id="사각형_619" d="M8.665 0h189.741a8.665 8.665 0 0 1 8.665 8.665v6.728H0V8.665A8.665 8.665 0 0 1 8.665 0z" class="cls-2" transform="translate(.313 3.971)"/>
                <path id="사각형_620" d="M8.665 0h189.741a8.665 8.665 0 0 1 8.665 8.665v6.728H0V8.665A8.665 8.665 0 0 1 8.665 0z" class="cls-3" transform="translate(.313 .313)"/>
                <circle id="타원_21" cx="2.618" cy="2.618" r="2.618" class="cls-5" transform="translate(8.341 5.392)"/>
                <path id="패스_104" d="M-772.208 264.166a2.618 2.618 0 0 1-2.618 2.618 2.618 2.618 0 0 1-2.618-2.618 2.618 2.618 0 0 1 2.618-2.618 2.618 2.618 0 0 1 2.618 2.618z" class="cls-6" transform="translate(796.217 -256.156)"/>
                <path id="패스_105" d="M-761.776 264.166a2.618 2.618 0 0 1-2.618 2.618 2.618 2.618 0 0 1-2.618-2.618 2.618 2.618 0 0 1 2.618-2.618 2.618 2.618 0 0 1 2.618 2.618z" class="cls-7" transform="translate(796.217 -256.156)"/>
            </g>
            <g id="그룹_93" transform="translate(22.722 22.7)">
                <path id="패스_106" d="M-611.988 286.673h-39.923a1.567 1.567 0 0 1-1.568-1.567 1.568 1.568 0 0 1 1.568-1.568h39.923a1.567 1.567 0 0 1 1.567 1.568 1.566 1.566 0 0 1-1.567 1.567z" class="cls-4" transform="translate(782.763 -278.856)"/>
                <path id="패스_107" d="M-611.988 294.417h-39.923a1.567 1.567 0 0 1-1.568-1.567 1.567 1.567 0 0 1 1.568-1.567h39.923a1.566 1.566 0 0 1 1.567 1.567 1.566 1.566 0 0 1-1.567 1.567z" class="cls-4" transform="translate(782.763 -278.856)"/>
                <path id="패스_108" d="M-611.988 302.162h-39.923a1.568 1.568 0 0 1-1.568-1.568 1.568 1.568 0 0 1 1.568-1.567h39.923a1.567 1.567 0 0 1 1.567 1.567 1.567 1.567 0 0 1-1.567 1.568z" class="cls-4" transform="translate(782.763 -278.856)"/>
                <path id="패스_109" d="M-611.988 309.906h-39.923a1.568 1.568 0 0 1-1.568-1.568 1.567 1.567 0 0 1 1.568-1.567h39.923a1.566 1.566 0 0 1 1.567 1.567 1.567 1.567 0 0 1-1.567 1.568z" class="cls-4" transform="translate(782.763 -278.856)"/>
                <path id="패스_110" d="M-611.988 317.65h-39.923a1.568 1.568 0 0 1-1.568-1.568 1.568 1.568 0 0 1 1.568-1.567h39.923a1.567 1.567 0 0 1 1.567 1.567 1.567 1.567 0 0 1-1.567 1.568z" class="cls-4" transform="translate(782.763 -278.856)"/>
                <path id="패스_111" d="M-611.988 333.138h-168.443a1.568 1.568 0 0 1-1.569-1.567 1.568 1.568 0 0 1 1.569-1.571h168.443a1.567 1.567 0 0 1 1.567 1.568 1.567 1.567 0 0 1-1.567 1.57z" class="cls-4" transform="translate(782.763 -278.856)"/>
                <path id="패스_112" d="M-611.988 340.882h-168.443a1.568 1.568 0 0 1-1.569-1.567 1.568 1.568 0 0 1 1.568-1.568h168.443a1.567 1.567 0 0 1 1.567 1.568 1.567 1.567 0 0 1-1.566 1.567z" class="cls-4" transform="translate(782.763 -278.856)"/>
                <path id="패스_113" d="M-611.988 348.627h-168.443a1.568 1.568 0 0 1-1.569-1.568 1.567 1.567 0 0 1 1.568-1.567h168.443a1.566 1.566 0 0 1 1.567 1.567 1.567 1.567 0 0 1-1.566 1.568z" class="cls-4" transform="translate(782.763 -278.856)"/>
                <path id="패스_114" d="M-611.988 356.37h-168.443A1.567 1.567 0 0 1-782 354.8a1.567 1.567 0 0 1 1.568-1.567h168.443a1.566 1.566 0 0 1 1.567 1.567 1.566 1.566 0 0 1-1.566 1.57z" class="cls-4" transform="translate(782.763 -278.856)"/>
                <path id="패스_115" d="M-611.988 364.115h-168.443a1.568 1.568 0 0 1-1.569-1.567 1.568 1.568 0 0 1 1.568-1.568h168.443a1.567 1.567 0 0 1 1.567 1.568 1.567 1.567 0 0 1-1.566 1.567z" class="cls-4" transform="translate(782.763 -278.856)"/>
                <path id="패스_116" d="M-648.855 376.612h-60.222a1.567 1.567 0 0 1-1.567-1.568 1.567 1.567 0 0 1 1.567-1.567h60.222a1.568 1.568 0 0 1 1.568 1.567 1.568 1.568 0 0 1-1.568 1.568z" class="cls-4" transform="translate(782.763 -278.856)"/>
                <path id="패스_117" d="M-648.855 384.356h-60.222a1.567 1.567 0 0 1-1.567-1.568 1.567 1.567 0 0 1 1.567-1.567h60.222a1.568 1.568 0 0 1 1.568 1.567 1.568 1.568 0 0 1-1.568 1.568z" class="cls-4" transform="translate(782.763 -278.856)"/>
                <path id="패스_118" d="M-648.855 392.1h-60.222a1.566 1.566 0 0 1-1.567-1.567 1.567 1.567 0 0 1 1.567-1.568h60.222a1.568 1.568 0 0 1 1.568 1.568 1.567 1.567 0 0 1-1.568 1.567z" class="cls-4" transform="translate(782.763 -278.856)"/>
                <path id="패스_119" d="M-666.978 399.844h-42.1a1.567 1.567 0 0 1-1.567-1.567 1.567 1.567 0 0 1 1.567-1.568h42.1a1.568 1.568 0 0 1 1.567 1.568 1.568 1.568 0 0 1-1.567 1.567z" class="cls-4" transform="translate(782.763 -278.856)"/>
                <path id="패스_120" d="M-666.978 407.588h-42.1a1.567 1.567 0 0 1-1.567-1.567 1.567 1.567 0 0 1 1.567-1.568h42.1a1.568 1.568 0 0 1 1.567 1.568 1.568 1.568 0 0 1-1.567 1.567z" class="cls-4" transform="translate(782.763 -278.856)"/>
                <g id="그룹_91" transform="translate(80.565)">
                    <path id="패스_121" d="M-679.388 324.476a22.836 22.836 0 0 1-22.81-22.81 22.836 22.836 0 0 1 22.81-22.81 22.836 22.836 0 0 1 22.811 22.81 22.836 22.836 0 0 1-22.811 22.81zm0-42.486a19.7 19.7 0 0 0-19.675 19.676 19.7 19.7 0 0 0 19.675 19.676 19.7 19.7 0 0 0 19.676-19.676 19.7 19.7 0 0 0-19.676-19.676z" class="cls-4" transform="translate(702.198 -278.856)"/>
                    <path id="패스_122" d="M-663.791 317.65a1.56 1.56 0 0 1-1.063-.417l-15.6-14.416a1.565 1.565 0 0 1-.5-1.151v-21.243a1.567 1.567 0 0 1 1.567-1.567 1.567 1.567 0 0 1 1.568 1.567v20.557l15.094 13.951a1.569 1.569 0 0 1 .087 2.215 1.566 1.566 0 0 1-1.153.504z" class="cls-4" transform="translate(702.198 -278.856)"/>
                </g>
                <g id="그룹_92" transform="translate(0 89.598)">
                    <path id="패스_123" d="M-759.953 414.075a22.836 22.836 0 0 1-22.81-22.811 22.836 22.836 0 0 1 22.81-22.81 22.836 22.836 0 0 1 22.81 22.81 22.836 22.836 0 0 1-22.81 22.811zm0-42.486a19.7 19.7 0 0 0-19.676 19.675 19.7 19.7 0 0 0 19.676 19.676 19.7 19.7 0 0 0 19.675-19.676 19.7 19.7 0 0 0-19.675-19.675z" class="cls-4" transform="translate(782.763 -368.454)"/>
                    <path id="패스_124" d="M-744.356 407.248a1.562 1.562 0 0 1-1.063-.416l-15.6-14.417a1.564 1.564 0 0 1-.5-1.151v-21.243a1.567 1.567 0 0 1 1.567-1.567 1.567 1.567 0 0 1 1.567 1.567v20.558l15.094 13.951a1.567 1.567 0 0 1 .087 2.215 1.562 1.562 0 0 1-1.152.503z" class="cls-4" transform="translate(782.763 -368.454)"/>
                </g>
                <path id="패스_125" d="M-604.46 408.339h-38.29a1.567 1.567 0 0 1-1.567-1.568v-33.979a1.567 1.567 0 0 1 1.567-1.567h38.29a1.568 1.568 0 0 1 1.567 1.567v33.979a1.568 1.568 0 0 1-1.567 1.568zm-36.723-3.135h35.155V374.36h-35.155z" class="cls-4" transform="translate(782.763 -278.856)"/>
                <path id="패스_126" d="M-746.289 320.223h-34.9a1.568 1.568 0 0 1-1.568-1.568v-33.978a1.568 1.568 0 0 1 .958-1.444 1.567 1.567 0 0 1 1.7.321l34.9 33.978a1.569 1.569 0 0 1 .359 1.714 1.569 1.569 0 0 1-1.449.977zm-33.329-3.135h29.472l-29.472-28.7z" class="cls-4" transform="translate(782.763 -278.856)"/>
            </g>
        </g>
        <g id="그룹_114" transform="translate(-556.199 259.823)">
            <g id="그룹_100">
                <g id="그룹_99">
                    <rect id="사각형_621" width="99.161" height="65.826" class="cls-2" rx="8.665" transform="translate(0 6.993)"/>
                    <g id="그룹_98" transform="translate(7.393)">
                        <g id="그룹_95">
                            <rect id="사각형_622" width="99.161" height="65.826" class="cls-3" rx="8.665" transform="translate(.313 .314)"/>
                            <path id="패스_127" d="M-524.336 311.933h-81.831a8.988 8.988 0 0 1-8.978-8.978v-48.5a8.988 8.988 0 0 1 8.978-8.979h81.831a8.989 8.989 0 0 1 8.979 8.979v48.5a8.988 8.988 0 0 1-8.979 8.978zm-81.831-65.826a8.362 8.362 0 0 0-8.352 8.352v48.5a8.361 8.361 0 0 0 8.352 8.351h81.831a8.361 8.361 0 0 0 8.352-8.351v-48.5a8.362 8.362 0 0 0-8.352-8.352z" class="cls-8" transform="translate(615.145 -245.48)"/>
                        </g>
                        <path id="사각형_623" d="M8.665 0H90.5a8.665 8.665 0 0 1 8.665 8.665v6.728H0V8.665A8.665 8.665 0 0 1 8.665 0z" class="cls-2" transform="translate(.313 3.972)"/>
                        <g id="그룹_96">
                            <path id="사각형_624" d="M8.665 0H90.5a8.665 8.665 0 0 1 8.665 8.665v6.728H0V8.665A8.665 8.665 0 0 1 8.665 0z" class="cls-3" transform="translate(.313 .314)"/>
                            <path id="패스_128" d="M-515.357 261.5h-99.788v-7.042a8.988 8.988 0 0 1 8.978-8.979h81.831a8.989 8.989 0 0 1 8.979 8.979zm-99.162-.627h98.535v-6.415a8.362 8.362 0 0 0-8.352-8.352h-81.831a8.362 8.362 0 0 0-8.352 8.352z" class="cls-8" transform="translate(615.145 -245.48)"/>
                        </g>
                        <g id="그룹_97" transform="translate(41.928 6.443)">
                            <path id="패스_129" d="M-558.347 255.058h-13.3a1.568 1.568 0 0 1-1.568-1.567 1.568 1.568 0 0 1 1.568-1.568h13.3a1.568 1.568 0 0 1 1.568 1.568 1.568 1.568 0 0 1-1.568 1.567z" class="cls-9" transform="translate(573.217 -251.923)"/>
                            <path id="패스_130" d="M-525.077 255.058H-552.1a1.568 1.568 0 0 1-1.568-1.567 1.568 1.568 0 0 1 1.568-1.568h27.023a1.568 1.568 0 0 1 1.568 1.568 1.568 1.568 0 0 1-1.568 1.567z" class="cls-9" transform="translate(573.217 -251.923)"/>
                        </g>
                        <path id="패스_131" d="M-601.569 253.49a2.618 2.618 0 0 1-2.617 2.618 2.618 2.618 0 0 1-2.618-2.618 2.618 2.618 0 0 1 2.618-2.617 2.617 2.617 0 0 1 2.617 2.617z" class="cls-5" transform="translate(615.145 -245.48)"/>
                        <path id="패스_132" d="M-591.137 253.49a2.618 2.618 0 0 1-2.617 2.618 2.618 2.618 0 0 1-2.618-2.618 2.618 2.618 0 0 1 2.618-2.617 2.617 2.617 0 0 1 2.617 2.617z" class="cls-6" transform="translate(615.145 -245.48)"/>
                        <path id="패스_133" d="M-580.705 253.49a2.618 2.618 0 0 1-2.617 2.618 2.618 2.618 0 0 1-2.618-2.618 2.618 2.618 0 0 1 2.618-2.617 2.617 2.617 0 0 1 2.617 2.617z" class="cls-7" transform="translate(615.145 -245.48)"/>
                    </g>
                </g>
            </g>
            <g id="그룹_113" transform="translate(19.86 27.298)">
                <path id="패스_134" d="M-562.8 296.04l-.231-.257c-.082-.091-8.329-9.1-19.2-9.136h-.067c-6.4 0-12.451 3.074-17.993 9.138l-.463-.423c5.666-6.2 11.874-9.342 18.455-9.342h.075c10.109.037 17.976 7.61 19.42 9.094 5.91-6.4 12.253-9.563 18.914-9.436 10.985.223 18.974 9.6 19.053 9.694l-.48.4c-.078-.093-7.892-9.256-18.591-9.471-6.523-.123-12.815 3.059-18.66 9.48z" class="cls-10" transform="translate(602.678 -272.778)"/>
                <g id="그룹_101" transform="translate(1.842 18.79)">
                    <path id="사각형_625" d="M0 0H75.445V0.627H0z" class="cls-11" transform="translate(.313 3.692)"/>
                    <path id="사각형_626" d="M0 0H0.627V6.313H0z" class="cls-11" transform="translate(75.445)"/>
                    <path id="사각형_627" d="M0 0H0.627V6.313H0z" class="cls-11"/>
                </g>
                <path id="패스_135" d="M-524.265 289.331h-1.624a1.346 1.346 0 0 1-1.344-1.344v-1.624a1.345 1.345 0 0 1 1.344-1.343h1.624a1.344 1.344 0 0 1 1.343 1.343v1.624a1.345 1.345 0 0 1-1.343 1.344zm-1.624-3.684a.717.717 0 0 0-.717.716v1.624a.718.718 0 0 0 .717.717h1.624a.717.717 0 0 0 .716-.717v-1.624a.717.717 0 0 0-.716-.716z" class="cls-11" transform="translate(602.678 -272.778)"/>
                <path id="패스_136" d="M-599.71 289.331h-1.625a1.345 1.345 0 0 1-1.343-1.344v-1.624a1.344 1.344 0 0 1 1.343-1.343h1.625a1.345 1.345 0 0 1 1.343 1.343v1.624a1.345 1.345 0 0 1-1.343 1.344zm-1.625-3.684a.717.717 0 0 0-.716.716v1.624a.717.717 0 0 0 .716.717h1.625a.717.717 0 0 0 .716-.717v-1.624a.717.717 0 0 0-.716-.716z" class="cls-11" transform="translate(602.678 -272.778)"/>
                <path id="패스_137" d="M-561.988 302.274h-1.624a1.344 1.344 0 0 1-1.343-1.343v-1.624a1.345 1.345 0 0 1 1.343-1.344h1.624a1.346 1.346 0 0 1 1.344 1.344v1.624a1.345 1.345 0 0 1-1.344 1.343zm-1.624-3.684a.717.717 0 0 0-.716.717v1.624a.717.717 0 0 0 .716.716h1.624a.717.717 0 0 0 .717-.716v-1.624a.718.718 0 0 0-.717-.717z" class="cls-11" transform="translate(602.678 -272.778)"/>
                <path id="패스_138" d="M-562.8 305.952a5.84 5.84 0 0 1-5.833-5.833 5.84 5.84 0 0 1 5.833-5.833 5.839 5.839 0 0 1 5.833 5.833 5.839 5.839 0 0 1-5.833 5.833zm0-11.039a5.212 5.212 0 0 0-5.206 5.206 5.213 5.213 0 0 0 5.206 5.206 5.212 5.212 0 0 0 5.206-5.206 5.211 5.211 0 0 0-5.206-5.206z" class="cls-12" transform="translate(602.678 -272.778)"/>
                <g id="그룹_111" transform="translate(.371 1.384)">
                    <g id="그룹_102">
                        <path id="패스_139" d="M-599.1 279.511l-.763-1.18-.741 1.173a.745.745 0 0 1-.629.347h-.328a.744.744 0 0 1-.6-1.177l1.213-1.692-1.16-1.649a.744.744 0 0 1 .609-1.171h.327a.742.742 0 0 1 .616.327l.746 1.1.722-1.1a.743.743 0 0 1 .621-.334h.214a.743.743 0 0 1 .6 1.177l-1.129 1.57 1.259 1.767a.743.743 0 0 1-.6 1.175h-.347a.743.743 0 0 1-.63-.333z" class="cls-7" transform="translate(602.307 -274.162)"/>
                    </g>
                    <g id="그룹_103" transform="translate(13.478)">
                        <path id="패스_140" d="M-585.329 277.786v1.321a.744.744 0 0 1-.744.744h-.431a.744.744 0 0 1-.743-.744v-1.345l-1.476-2.476a.744.744 0 0 1 .639-1.124h.29a.744.744 0 0 1 .64.365l.947 1.6.954-1.6a.744.744 0 0 1 .639-.363h.126a.743.743 0 0 1 .64 1.122z" class="cls-7" transform="translate(588.829 -274.162)"/>
                    </g>
                    <g id="그룹_104" transform="translate(24.99)">
                        <path id="패스_141" d="M-572.091 279.107a.744.744 0 0 1-.744.744h-3.579a.9.9 0 0 1-.9-.9.744.744 0 0 1 .18-.485l2.421-2.814h-1.776a.743.743 0 0 1-.743-.744.743.743 0 0 1 .743-.743h3.368a.9.9 0 0 1 .9.9.744.744 0 0 1-.18.485l-2.421 2.814h1.987a.744.744 0 0 1 .744.743z" class="cls-7" transform="translate(577.317 -274.162)"/>
                    </g>
                    <g id="그룹_107" transform="translate(7.692 .848)">
                        <g id="그룹_105">
                            <rect id="사각형_628" width="4.373" height="1.606" class="cls-7" rx=".575"/>
                        </g>
                        <g id="그룹_106" transform="translate(0 2.588)">
                            <rect id="사각형_629" width="4.373" height="1.606" class="cls-7" rx=".575"/>
                        </g>
                    </g>
                    <g id="그룹_110" transform="translate(19.848 .848)">
                        <g id="그룹_108">
                            <rect id="사각형_630" width="4.373" height="1.606" class="cls-7" rx=".575" transform="rotate(45 .568 1.37)"/>
                        </g>
                        <g id="그룹_109">
                            <rect id="사각형_631" width="4.373" height="1.606" class="cls-7" rx=".575" transform="rotate(135 1.878 1.443)"/>
                        </g>
                    </g>
                </g>
                <g id="그룹_112" transform="translate(35.859)">
                    <path id="패스_142" d="M-525.077 275.913h-40.175a1.568 1.568 0 0 1-1.567-1.568 1.568 1.568 0 0 1 1.567-1.567h40.175a1.568 1.568 0 0 1 1.568 1.567 1.568 1.568 0 0 1-1.568 1.568z" class="cls-9" transform="translate(566.819 -272.778)"/>
                    <path id="패스_143" d="M-545.165 282.075h-20.087a1.567 1.567 0 0 1-1.567-1.567 1.568 1.568 0 0 1 1.567-1.568h20.087a1.568 1.568 0 0 1 1.568 1.568 1.567 1.567 0 0 1-1.568 1.567z" class="cls-9" transform="translate(566.819 -272.778)"/>
                </g>
            </g>
        </g>
        <g id="그룹_150" transform="translate(-829.493 432.355)">
            <g id="그룹_137" transform="translate(1.162 51.343)">
                <g id="그룹_135" transform="translate(0 .001)">
                    <path id="패스_209" d="M-656.253 438.682v29.907H-504.2a8.607 8.607 0 0 0 8.048-6.045 9.681 9.681 0 0 0 .5-3.09v-11.632a9.548 9.548 0 0 0-.566-3.268 8.577 8.577 0 0 0-7.979-5.872z" class="cls-13" transform="translate(660.021 -438.682)"/>
                    <path id="패스_210" d="M-592.67 443.724v17.99h86.051a9.677 9.677 0 0 0 .5-3.089V447a9.557 9.557 0 0 0-.566-3.274z" class="cls-12" transform="translate(670.5 -437.854)"/>
                    <circle id="타원_26" cx="6.634" cy="6.634" r="6.634" class="cls-6" transform="translate(98.136 8.233)"/>
                    <path id="사각형_634" d="M0 0h70.434a10.676 10.676 0 0 1 10.675 10.676v8.557a10.676 10.676 0 0 1-10.675 10.676H0V0z" class="cls-12" transform="translate(6.249)"/>
                    <path id="패스_211" d="M-657.39 438.682h13.107v4.486h-13.107a2.177 2.177 0 0 1-2.1-2.246 2.175 2.175 0 0 1 2.1-2.24z" class="cls-12" transform="translate(659.491 -438.682)"/>
                    <path id="사각형_635" d="M1.6 0h13.6v4.481H1.6a1.6 1.6 0 0 1-1.6-1.6V1.6A1.6 1.6 0 0 1 1.6 0z" class="cls-12" transform="translate(0 25.425)"/>
                    <g id="그룹_134" transform="translate(3.774 4.484)">
                        <path id="사각형_636" d="M0 0h70.732a7.475 7.475 0 0 1 7.475 7.475v5.991a7.475 7.475 0 0 1-7.475 7.475H0V0z" class="cls-14"/>
                        <path id="사각형_637" d="M0 0h68.721a6.046 6.046 0 0 1 6.046 6.046v8.087a4.057 4.057 0 0 1-4.057 4.057H0V0z" class="cls-3" transform="translate(0 2.751)"/>
                        <g id="그룹_133" transform="translate(0 2.751)">
                            <g id="그룹_132" clip-path="url(#clip-path)">
                                <g id="그룹_131" transform="translate(0 3.4)">
                                    <path id="사각형_638" d="M0 0H75.381V0.73H0z" class="cls-16"/>
                                    <path id="사각형_639" d="M0 0H77.949V0.73H0z" class="cls-16" transform="translate(0 3.703)"/>
                                    <path id="사각형_640" d="M0 0H77.949V0.73H0z" class="cls-16" transform="translate(0 7.406)"/>
                                    <path id="사각형_641" d="M0 0H77.949V0.73H0z" class="cls-16" transform="translate(0 11.109)"/>
                                </g>
                            </g>
                        </g>
                    </g>
                </g>
                <path id="패스_212" d="M-527.877 459.169h-8.464a8.6 8.6 0 0 1-8.043 6.039h16.138a8.587 8.587 0 0 0 8.037-6.039z" class="cls-10" transform="translate(678.452 -435.309)"/>
                <path id="패스_213" d="M-528.247 438.681h-16.138a8.583 8.583 0 0 1 7.98 5.866h16.137a8.589 8.589 0 0 0-7.979-5.866z" class="cls-10" transform="translate(678.452 -438.681)"/>
                <path id="패스_214" d="M-521.395 443.722h-16.137a9.665 9.665 0 0 1 .566 3.268v11.622a9.747 9.747 0 0 1-.5 3.1h16.131a9.752 9.752 0 0 0 .508-3.1V446.99a9.664 9.664 0 0 0-.568-3.268z" class="cls-6" transform="translate(679.582 -437.852)"/>
                <g id="그룹_136" transform="translate(57.076 10.955)">
                    <path id="패스_215" d="M-607.734 448.088V461l4.273-2.61 4.272 2.61v-12.91" class="cls-17" transform="translate(610.937 -448.088)"/>
                    <path id="패스_216" d="M-610.487 458.388l4.85-2.615 3.7 2.615 3.21-10.3h-8.545z" class="cls-10" transform="translate(610.487 -448.088)"/>
                </g>
            </g>
            <g id="그룹_143" transform="translate(12.933 29.741)">
                <g id="그룹_142">
                    <path id="패스_217" d="M-512.452 420.135v21.675H-642.1a7.269 7.269 0 0 1-6.859-4.382 6.069 6.069 0 0 1-.427-2.24v-8.43a6.276 6.276 0 0 1 .474-2.367 7.313 7.313 0 0 1 6.813-4.255z" class="cls-10" transform="translate(649.391 -420.135)"/>
                    <path id="패스_218" d="M-575.592 423.787v13.043h-73.371a6.077 6.077 0 0 1-.427-2.246v-8.424a6.286 6.286 0 0 1 .474-2.373z" class="cls-6" transform="translate(649.391 -419.534)"/>
                    <rect id="사각형_643" width="49.202" height="4.301" class="cls-12" rx="1.535" transform="translate(7.231 8.624)"/>
                    <path id="사각형_644" d="M0 0h61.423a7.737 7.737 0 0 1 7.737 7.737v6.2a7.737 7.737 0 0 1-7.737 7.737H0V0z" class="cls-6" transform="rotate(180 67.415 10.838)"/>
                    <path id="패스_219" d="M-529.009 420.134h-11.172v3.251h11.172a1.707 1.707 0 0 0 1.778-1.622 1.708 1.708 0 0 0-1.778-1.629z" class="cls-6" transform="translate(667.378 -420.134)"/>
                    <path id="사각형_645" d="M1.159 0h11.8v3.247h-11.8A1.159 1.159 0 0 1 0 2.088v-.929A1.159 1.159 0 0 1 1.159 0z" class="cls-6" transform="rotate(180 70.08 10.837)"/>
                    <g id="그룹_141" transform="translate(70.256 3.252)">
                        <path id="패스_220" d="M-522.384 422.926V438.1h-59.1a7.492 7.492 0 0 1-3.58-.912 7.582 7.582 0 0 1-4.007-6.681 7.588 7.588 0 0 1 2.229-5.364 7.529 7.529 0 0 1 5.358-2.223z" class="cls-14" transform="translate(589.07 -422.926)"/>
                        <path id="패스_221" d="M-522.787 424.639v13.175h-59.1a7.568 7.568 0 0 1-3.591-.906 3.32 3.32 0 0 1-1.074-2.448v-1.1a8.725 8.725 0 0 1 8.73-8.724z" class="cls-3" transform="translate(589.481 -422.644)"/>
                        <g id="그룹_140" transform="translate(2.933 1.992)">
                            <g id="그룹_139" clip-path="url(#clip-path-2)">
                                <g id="그룹_138" transform="translate(-2.713 2.364)">
                                    <path id="사각형_646" d="M0 0H64.275V0.73H0z" class="cls-16" transform="translate(2.19)"/>
                                    <path id="사각형_647" d="M0 0H66.465V0.73H0z" class="cls-16" transform="translate(0 2.683)"/>
                                    <path id="사각형_648" d="M0 0H66.465V0.73H0z" class="cls-16" transform="translate(0 5.367)"/>
                                    <path id="사각형_649" d="M0 0H66.465V0.73H0z" class="cls-16" transform="translate(0 8.05)"/>
                                </g>
                            </g>
                        </g>
                    </g>
                </g>
            </g>
            <g id="그룹_149">
                <g id="그룹_148">
                    <path id="패스_222" d="M-502.964 394.6v29.734H-645.62a14.842 14.842 0 0 1-11.951-6.01 14.844 14.844 0 0 1-2.921-8.863 14.813 14.813 0 0 1 2.921-8.857 15.533 15.533 0 0 1 1.432-1.651 14.806 14.806 0 0 1 10.519-4.353z" class="cls-11" transform="translate(660.492 -394.596)"/>
                    <path id="패스_223" d="M-568.656 399.757v17.725h-88.914a14.843 14.843 0 0 1-2.921-8.863 14.829 14.829 0 0 1 2.921-8.862z" class="cls-19" transform="translate(660.492 -393.75)"/>
                    <path id="사각형_651" d="M0 0h75.648a10.616 10.616 0 0 1 10.616 10.616v8.509a10.616 10.616 0 0 1-10.616 10.617H0V0z" class="cls-19" transform="rotate(180 77.445 14.871)"/>
                    <path id="패스_224" d="M-521.743 394.6h-13.937v4.451h13.938a2.225 2.225 0 0 0 2.229-2.223 2.223 2.223 0 0 0-2.23-2.228z" class="cls-19" transform="translate(681.045 -394.598)"/>
                    <path id="사각형_652" d="M1.591 0h14.578v4.456H1.59A1.59 1.59 0 0 1 0 2.865V1.591A1.591 1.591 0 0 1 1.591 0z" class="cls-19" transform="rotate(180 80.767 14.87)"/>
                    <g id="그룹_147" transform="translate(74.344 4.458)">
                        <path id="패스_225" d="M-513.484 398.426v20.825h-72.759a10.417 10.417 0 0 1-10.381-9.527q-.035-.433-.035-.883a10.344 10.344 0 0 1 3.048-7.361 10.38 10.38 0 0 1 7.367-3.054z" class="cls-4" transform="translate(596.659 -398.426)"/>
                        <path id="패스_226" d="M-513.488 401.322v17.448h-72.759a10.409 10.409 0 0 1-10.381-9.527 8.758 8.758 0 0 1 2.517-5.364 8.685 8.685 0 0 1 6.178-2.558z" class="cls-3" transform="translate(596.668 -397.947)"/>
                        <g id="그룹_146">
                            <g id="그룹_145" clip-path="url(#clip-path-3)">
                                <g id="그룹_144" transform="translate(.274 4.723)">
                                    <path id="사각형_653" d="M0 0H80.172V0.73H0z" class="cls-16" transform="translate(2.731)"/>
                                    <path id="사각형_654" d="M0 0H82.903V0.73H0z" class="cls-16" transform="translate(0 4.147)"/>
                                    <path id="사각형_655" d="M0 0H82.903V0.73H0z" class="cls-16" transform="translate(0 8.293)"/>
                                    <path id="사각형_656" d="M0 0H82.903V0.73H0z" class="cls-16" transform="translate(0 12.439)"/>
                                </g>
                            </g>
                        </g>
                        <path id="패스_227" d="M-574.959 402.795v14.18l-4.7-2.869-4.7 2.869v-14.18" class="cls-17" transform="translate(598.686 -397.708)"/>
                        <path id="패스_228" d="M-571.443 414.106l-5.329-2.87-4.059 2.87-3.528-11.311h9.4z" class="cls-12" transform="translate(598.686 -397.708)"/>
                    </g>
                    <path id="선_1" d="M0 0L8.778 0" class="cls-16" transform="translate(90.032 8.662)"/>
                </g>
                <path id="패스_229" d="M-623.46 424.335h-16.351a14.843 14.843 0 0 1-11.951-6.01 14.845 14.845 0 0 1-2.921-8.863 14.815 14.815 0 0 1 2.921-8.857 15.57 15.57 0 0 1 1.432-1.651 14.826 14.826 0 0 1 10.519-4.353h16.351a14.819 14.819 0 0 0-10.508 4.353 15.543 15.543 0 0 0-1.432 1.651 14.823 14.823 0 0 0-2.934 8.857 14.853 14.853 0 0 0 2.934 8.863 14.853 14.853 0 0 0 11.94 6.01z" class="cls-13" transform="translate(661.453 -394.596)"/>
                <path id="패스_230" d="M-615.352 424.335h-7.055a14.865 14.865 0 0 1-11.963-6.01 14.911 14.911 0 0 1-2.91-8.863 14.881 14.881 0 0 1 2.91-8.857 17.056 17.056 0 0 1 1.443-1.651 14.807 14.807 0 0 1 10.52-4.353h7.055a14.874 14.874 0 0 0-10.531 4.353 16.891 16.891 0 0 0-1.42 1.651 14.821 14.821 0 0 0-2.934 8.857 14.851 14.851 0 0 0 2.934 8.863 14.842 14.842 0 0 0 11.951 6.01z" class="cls-13" transform="translate(664.318 -394.596)"/>
                <path id="패스_231" d="M-638.333 408.619a14.853 14.853 0 0 0 2.934 8.863h-16.363a14.844 14.844 0 0 1-2.921-8.863 14.831 14.831 0 0 1 2.921-8.862h16.362a14.839 14.839 0 0 0-2.933 8.862z" class="cls-12" transform="translate(661.453 -393.75)"/>
                <path id="패스_232" d="M-630.237 408.619a14.85 14.85 0 0 0 2.934 8.863h-7.067a14.911 14.911 0 0 1-2.91-8.863 14.9 14.9 0 0 1 2.91-8.862h7.067a14.837 14.837 0 0 0-2.934 8.862z" class="cls-12" transform="translate(664.318 -393.75)"/>
                <path id="패스_233" d="M-590.07 424.335h-7.055a14.821 14.821 0 0 1-11.94-6.01 14.777 14.777 0 0 1-2.935-8.863 14.748 14.748 0 0 1 2.933-8.857 14.228 14.228 0 0 1 1.42-1.651 14.848 14.848 0 0 1 10.52-4.353h7.055a14.8 14.8 0 0 0-10.508 4.353 15.535 15.535 0 0 0-1.432 1.651 14.823 14.823 0 0 0-2.934 8.857 14.853 14.853 0 0 0 2.934 8.863 14.836 14.836 0 0 0 11.942 6.01z" class="cls-13" transform="translate(668.479 -394.596)"/>
                <path id="패스_234" d="M-604.943 408.619a14.853 14.853 0 0 0 2.934 8.863h-7.056a14.777 14.777 0 0 1-2.935-8.863 14.763 14.763 0 0 1 2.933-8.862h7.056a14.839 14.839 0 0 0-2.932 8.862z" class="cls-12" transform="translate(668.479 -393.75)"/>
            </g>
        </g>
        <path id="패스_235" d="M-612.835 336.9h51.563a5.847 5.847 0 0 0 5.847-5.847 5.847 5.847 0 0 0-5.847-5.847h-51.563a5.847 5.847 0 0 0-5.847 5.847 5.847 5.847 0 0 0 5.847 5.847z" class="cls-2" transform="translate(46.554 26.209)"/>
        <g id="그룹_157" transform="translate(-570.429 354.213)">
            <rect id="사각형_658" width="64.133" height="50.8" class="cls-2" rx="6.48" transform="translate(0 20.374)"/>
            <g id="그룹_155" transform="translate(9.071)">
                <g id="그룹_151" transform="translate(0 16.504)">
                    <rect id="사각형_659" width="64.133" height="50.8" class="cls-3" rx="6.48" transform="translate(.314 .313)"/>
                    <path id="패스_236" d="M-551.645 389.264h-51.171a6.8 6.8 0 0 1-6.8-6.794v-37.84a6.8 6.8 0 0 1 6.8-6.793h51.171a6.8 6.8 0 0 1 6.794 6.793v37.84a6.8 6.8 0 0 1-6.794 6.794zm-51.171-50.8a6.174 6.174 0 0 0-6.168 6.166v37.84a6.175 6.175 0 0 0 6.168 6.167h51.171a6.174 6.174 0 0 0 6.167-6.167v-37.84a6.173 6.173 0 0 0-6.167-6.166z" class="cls-8" transform="translate(609.611 -337.837)"/>
                </g>
                <g id="그룹_153">
                    <g id="그룹_152">
                        <path id="패스_237" d="M-603.45 333.34h51.563a5.847 5.847 0 0 0 5.847-5.847 5.847 5.847 0 0 0-5.847-5.847h-51.563a5.847 5.847 0 0 0-5.847 5.847 5.847 5.847 0 0 0 5.847 5.847z" class="cls-3" transform="translate(609.611 -321.333)"/>
                        <path id="패스_238" d="M-551.887 333.654h-51.563a6.168 6.168 0 0 1-6.161-6.161 6.167 6.167 0 0 1 6.161-6.16h51.563a6.167 6.167 0 0 1 6.16 6.16 6.167 6.167 0 0 1-6.16 6.161zm-51.563-11.694a5.539 5.539 0 0 0-5.534 5.533 5.54 5.54 0 0 0 5.534 5.534h51.563a5.539 5.539 0 0 0 5.533-5.534 5.539 5.539 0 0 0-5.533-5.533z" class="cls-8" transform="translate(609.611 -321.333)"/>
                    </g>
                    <path id="패스_239" d="M-599.407 327.493a2.619 2.619 0 0 1-2.618 2.618 2.618 2.618 0 0 1-2.618-2.618 2.618 2.618 0 0 1 2.618-2.617 2.618 2.618 0 0 1 2.618 2.617z" class="cls-5" transform="translate(609.611 -321.333)"/>
                    <path id="패스_240" d="M-588.975 327.493a2.619 2.619 0 0 1-2.618 2.618 2.618 2.618 0 0 1-2.618-2.618 2.618 2.618 0 0 1 2.618-2.617 2.618 2.618 0 0 1 2.618 2.617z" class="cls-6" transform="translate(609.611 -321.333)"/>
                    <path id="패스_241" d="M-578.544 327.493a2.618 2.618 0 0 1-2.617 2.618 2.618 2.618 0 0 1-2.618-2.618 2.618 2.618 0 0 1 2.618-2.617 2.617 2.617 0 0 1 2.617 2.617z" class="cls-7" transform="translate(609.611 -321.333)"/>
                </g>
                <g id="그룹_154" transform="translate(6.46 25.5)">
                    <path id="패스_242" d="M-553.753 349.968h-47.831a1.567 1.567 0 0 1-1.567-1.567 1.567 1.567 0 0 1 1.567-1.568h47.831a1.568 1.568 0 0 1 1.567 1.568 1.568 1.568 0 0 1-1.567 1.567z" class="cls-9" transform="translate(603.151 -346.833)"/>
                    <path id="패스_243" d="M-574.761 355.772h-26.823a1.567 1.567 0 0 1-1.567-1.568 1.566 1.566 0 0 1 1.567-1.567h26.823a1.567 1.567 0 0 1 1.567 1.567 1.568 1.568 0 0 1-1.567 1.568z" class="cls-9" transform="translate(603.151 -346.833)"/>
                </g>
            </g>
            <g id="그룹_156" transform="translate(17.619 37.874)">
                <path id="패스_244" d="M-591.663 383.138h-9.4v-9.4h9.4zm-7.519-1.881h5.638v-5.638h-5.638z" class="cls-6" transform="translate(601.063 -359.207)"/>
                <path id="패스_245" d="M-554.707 383.138h-45.415a.941.941 0 0 1-.941-.941v-22.05a.941.941 0 0 1 .442-.8.942.942 0 0 1 .909-.049l45.416 22.05a.941.941 0 0 1 .505 1.057.94.94 0 0 1-.916.733zm-44.475-1.881h40.382l-40.385-19.608z" class="cls-7" transform="translate(601.063 -359.207)"/>
            </g>
        </g>
        <g id="그룹_164" transform="translate(-579.676 208.852)">
            <g id="그룹_159" transform="translate(0 57.939)">
                <g id="그룹_158">
                    <path id="패스_246" d="M-626.391 267.435l-.026-.626c.42-.017.846-.023 1.275-.014l-.011.627q-.627-.012-1.238.013z" class="cls-10" transform="translate(646.015 -266.791)"/>
                    <path id="패스_247" d="M-643.295 299.416a17.275 17.275 0 0 1-1.2-2.362l.579-.241a16.7 16.7 0 0 0 1.159 2.275zm-1.668-3.6a19.948 19.948 0 0 1-.668-2.558l.616-.118a19.264 19.264 0 0 0 .647 2.477zm-.875-3.864a22.169 22.169 0 0 1-.177-2.634l.627-.005a21.568 21.568 0 0 0 .172 2.56zm.475-3.924l-.626-.03a24.231 24.231 0 0 1 .27-2.625l.619.1a23.713 23.713 0 0 0-.263 2.553zm.5-3.822l-.614-.131a25.039 25.039 0 0 1 .686-2.547l.6.2a24.218 24.218 0 0 0-.674 2.472zm1.1-3.694l-.585-.226a24.05 24.05 0 0 1 1.085-2.4l.556.289a23.347 23.347 0 0 0-1.057 2.335zm1.681-3.463l-.538-.321a22.79 22.79 0 0 1 1.476-2.187l.5.381a21.921 21.921 0 0 0-1.439 2.125zm2.246-3.121l-.474-.411a20.729 20.729 0 0 1 1.855-1.881l.417.468a19.99 19.99 0 0 0-1.799 1.822zm2.784-2.644l-.384-.494a18.8 18.8 0 0 1 2.2-1.476l.312.544a18.4 18.4 0 0 0-2.129 1.424zm3.254-2.024l-.273-.564a18.651 18.651 0 0 1 2.456-.981l.191.6a18.153 18.153 0 0 0-2.376.943zm3.605-1.294l-.148-.609a19.669 19.669 0 0 1 2.6-.45l.065.623a19.158 19.158 0 0 0-2.518.434z" class="cls-10" transform="translate(646.015 -266.791)"/>
                    <path id="패스_248" d="M-641.758 301.522c-.277-.32-.545-.657-.8-1l.506-.37c.241.33.5.654.764.962z" class="cls-10" transform="translate(646.015 -266.791)"/>
                </g>
                <path id="패스_249" d="M-640.9 297.81a3.562 3.562 0 0 1 2.8 4.19 3.562 3.562 0 0 1-4.187 2.8 3.562 3.562 0 0 1-2.8-4.187 3.562 3.562 0 0 1 4.187-2.803z" class="cls-10" transform="translate(646.015 -266.791)"/>
            </g>
            <g id="그룹_161" transform="translate(105.827 109.184)">
                <g id="그룹_160" transform="translate(0 3.379)">
                    <path id="패스_250" d="M-538.935 352.44q-.622-.1-1.253-.237l.133-.612q.613.133 1.218.23z" class="cls-7" transform="translate(540.188 -321.415)"/>
                    <path id="패스_251" d="M-535.78 352.691c-.608 0-1.228-.028-1.841-.085l.058-.625a19.254 19.254 0 0 0 2.558.067l.027.627q-.399.017-.802.016zm2.12-.117l-.069-.624a18.073 18.073 0 0 0 2.513-.462l.157.607a18.667 18.667 0 0 1-2.601.479zm3.869-.857l-.2-.594a18.588 18.588 0 0 0 2.363-.982l.279.561a19.083 19.083 0 0 1-2.442 1.015zm3.607-1.644l-.317-.542a19.752 19.752 0 0 0 2.121-1.435l.384.5a20.763 20.763 0 0 1-2.188 1.477zm3.208-2.321l-.414-.472a22.156 22.156 0 0 0 1.826-1.8l.465.42a22.637 22.637 0 0 1-1.877 1.852zm2.733-2.86l-.489-.393a23.086 23.086 0 0 0 1.5-2.088l.529.337a23.656 23.656 0 0 1-1.54 2.144zm2.216-3.275l-.546-.308a24.286 24.286 0 0 0 1.143-2.3l.575.249a24.694 24.694 0 0 1-1.172 2.359zm1.664-3.589l-.588-.216a23.672 23.672 0 0 0 .759-2.457l.609.152a24.435 24.435 0 0 1-.78 2.521zm1.065-3.812l-.616-.118a21.789 21.789 0 0 0 .334-2.543l.626.044a22.613 22.613 0 0 1-.346 2.617zm.395-3.938l-.627-.007v-.165a19.226 19.226 0 0 0-.148-2.39l.622-.078a19.706 19.706 0 0 1 .153 2.471zm-.98-3.825a16.434 16.434 0 0 0-.69-2.457l.589-.216a17.164 17.164 0 0 1 .716 2.55z" class="cls-7" transform="translate(540.188 -321.415)"/>
                    <path id="패스_252" d="M-517.06 322.817c-.174-.374-.362-.742-.561-1.093l.546-.309c.206.366.4.748.583 1.138z" class="cls-7" transform="translate(540.188 -321.415)"/>
                </g>
                <path id="패스_253" d="M-518.645 324.887a3.561 3.561 0 0 1-1.922-4.655 3.561 3.561 0 0 1 4.655-1.922 3.562 3.562 0 0 1 1.922 4.655 3.561 3.561 0 0 1-4.655 1.922z" class="cls-7" transform="translate(540.188 -318.036)"/>
            </g>
            <g id="그룹_163" transform="translate(39.314)">
                <g id="그룹_162" transform="translate(3.4 1.945)">
                    <path id="패스_254" d="M-574.973 238.263l-.6-.2c.131-.4.247-.794.351-1.188l.606.16q-.155.614-.357 1.228z" class="cls-21" transform="translate(603.301 -210.797)"/>
                    <path id="패스_255" d="M-574.317 235.749l-.615-.121a19.017 19.017 0 0 0 .323-2.54l.626.037a19.636 19.636 0 0 1-.334 2.624zm-.262-3.94a18.176 18.176 0 0 0-.21-2.547l.619-.1a18.679 18.679 0 0 1 .218 2.636zm-.45-3.8a18.524 18.524 0 0 0-.741-2.449l.586-.223a19.1 19.1 0 0 1 .766 2.533zm-1.236-3.631a20.015 20.015 0 0 0-1.217-2.254l.532-.332a20.444 20.444 0 0 1 1.254 2.325zm-1.93-3.32a21.779 21.779 0 0 0-1.612-2l.464-.422a22.564 22.564 0 0 1 1.659 2.054zm-2.5-2.922a23.51 23.51 0 0 0-1.929-1.7l.388-.492a23.9 23.9 0 0 1 1.98 1.742zm-2.959-2.466a24.477 24.477 0 0 0-2.178-1.367l.3-.548a24.829 24.829 0 0 1 2.234 1.4zm-3.319-1.962a23.607 23.607 0 0 0-2.368-1l.212-.59a24.394 24.394 0 0 1 2.431 1.028zm-3.591-1.4a21.55 21.55 0 0 0-2.5-.586l.107-.618a22.381 22.381 0 0 1 2.57.6zm-10.118-.353l-.157-.607a17.353 17.353 0 0 1 2.611-.458l.061.624a16.711 16.711 0 0 0-2.517.436zm6.351-.412a19.546 19.546 0 0 0-2.559-.108l-.016-.627a19.9 19.9 0 0 1 2.642.112z" class="cls-21" transform="translate(603.301 -210.797)"/>
                    <path id="패스_256" d="M-603.048 212.767l-.253-.574c.385-.169.786-.327 1.191-.467l.2.593c-.383.134-.768.281-1.138.448z" class="cls-21" transform="translate(603.301 -210.797)"/>
                </g>
                <path id="패스_257" d="M-600 214.1a3.562 3.562 0 0 1-4.824 1.448 3.563 3.563 0 0 1-1.448-4.824 3.562 3.562 0 0 1 4.824-1.448A3.562 3.562 0 0 1-600 214.1z" class="cls-21" transform="translate(606.701 -208.852)"/>
            </g>
        </g>
        <g id="그룹_168" transform="translate(-700.22 251.87)">
            <g id="그룹_165" transform="translate(0 4.125)">
                <path id="패스_258" d="M-751.315 241.645h-13.676a1.567 1.567 0 0 1-1.568-1.567 1.567 1.567 0 0 1 1.568-1.567h13.676a1.567 1.567 0 0 1 1.568 1.567 1.567 1.567 0 0 1-1.568 1.567z" class="cls-21" transform="translate(766.559 -238.511)"/>
                <path id="패스_259" d="M-757.36 248.656h-7.631a1.568 1.568 0 0 1-1.568-1.567 1.568 1.568 0 0 1 1.568-1.568h7.631a1.567 1.567 0 0 1 1.567 1.568 1.567 1.567 0 0 1-1.567 1.567z" class="cls-21" transform="translate(766.559 -238.511)"/>
            </g>
            <g id="그룹_166" transform="translate(122.027)">
                <path id="패스_260" d="M-595.916 237.521h-47.048a1.567 1.567 0 0 1-1.568-1.567 1.568 1.568 0 0 1 1.568-1.568h47.048a1.567 1.567 0 0 1 1.567 1.568 1.566 1.566 0 0 1-1.567 1.567z" class="cls-21" transform="translate(644.532 -234.386)"/>
                <path id="패스_261" d="M-625.947 244.281h-17.017a1.568 1.568 0 0 1-1.568-1.568 1.568 1.568 0 0 1 1.568-1.567h17.017a1.567 1.567 0 0 1 1.567 1.567 1.567 1.567 0 0 1-1.567 1.568z" class="cls-21" transform="translate(644.532 -234.386)"/>
            </g>
            <g id="그룹_167" transform="translate(228.217 132.4)">
                <path id="패스_262" d="M-515.848 369.92h-14.263a1.566 1.566 0 0 1-1.567-1.567 1.566 1.566 0 0 1 1.567-1.567h14.263a1.567 1.567 0 0 1 1.568 1.567 1.567 1.567 0 0 1-1.568 1.567z" class="cls-21" transform="translate(538.342 -366.786)"/>
                <path id="패스_263" d="M-534.885 369.92h-1.889a1.567 1.567 0 0 1-1.568-1.567 1.567 1.567 0 0 1 1.568-1.567h1.889a1.567 1.567 0 0 1 1.568 1.567 1.567 1.567 0 0 1-1.568 1.567z" class="cls-21" transform="translate(538.342 -366.786)"/>
                <path id="패스_264" d="M-515.848 375.56h-7.387a1.568 1.568 0 0 1-1.568-1.567 1.568 1.568 0 0 1 1.568-1.568h7.387a1.568 1.568 0 0 1 1.568 1.568 1.568 1.568 0 0 1-1.568 1.567z" class="cls-21" transform="translate(538.342 -366.786)"/>
            </g>
        </g>
        <g id="그룹_170" transform="translate(-451.329 187.621)">
            <path id="패스_265" d="M-658.7 205.96v8.84l-7.973 9.5h33.5a18.339 18.339 0 0 0 18.339-18.339 18.339 18.339 0 0 0-18.339-18.339h-7.185A18.339 18.339 0 0 0-658.7 205.96z" class="cls-21" transform="translate(666.668 -187.621)"/>
            <g id="그룹_169" transform="translate(15.587 19.197)">
                <path id="패스_266" d="M-644.562 210.077a3.26 3.26 0 0 1-3.26 3.259 3.259 3.259 0 0 1-3.259-3.259 3.259 3.259 0 0 1 3.259-3.259 3.26 3.26 0 0 1 3.26 3.259z" class="cls-4" transform="translate(651.081 -206.818)"/>
                <path id="패스_267" d="M-633.484 210.077a3.259 3.259 0 0 1-3.259 3.259 3.259 3.259 0 0 1-3.257-3.259 3.259 3.259 0 0 1 3.259-3.259 3.259 3.259 0 0 1 3.257 3.259z" class="cls-4" transform="translate(651.081 -206.818)"/>
                <path id="패스_268" d="M-622.405 210.077a3.259 3.259 0 0 1-3.259 3.259 3.26 3.26 0 0 1-3.26-3.259 3.26 3.26 0 0 1 3.26-3.259 3.259 3.259 0 0 1 3.259 3.259z" class="cls-4" transform="translate(651.081 -206.818)"/>
            </g>
        </g>
        <g id="그룹_174" transform="translate(-808.906 197.257)">
            <g id="그룹_171" transform="translate(13.002 28.547)">
                <circle id="타원_27" cx="5.369" cy="5.369" r="5.369" class="cls-21" transform="translate(152.838 261.836)"/>
                <circle id="타원_28" cx="3.505" cy="3.505" r="3.505" class="cls-21" transform="translate(313.279)"/>
                <circle id="타원_29" cx="4.906" cy="4.906" r="4.906" class="cls-21" transform="translate(0 6.227)"/>
                <path id="패스_269" d="M-758.849 439.46a3.071 3.071 0 0 0-3.071-3.071 3.071 3.071 0 0 0-3.071 3.071 3.071 3.071 0 0 0 3.071 3.071 3.071 3.071 0 0 0 3.071-3.071z" class="cls-21" transform="translate(795.904 -175.512)"/>
            </g>
            <g id="그룹_172">
                <path id="패스_270" d="M-708.316 431.484a2.1 2.1 0 0 1-2.1 2.1 2.1 2.1 0 0 1-2.1-2.1 2.1 2.1 0 0 1 2.1-2.1 2.1 2.1 0 0 1 2.1 2.1z" class="cls-7" transform="translate(830.61 -146.965)"/>
                <path id="패스_271" d="M-675.513 199.36a2.1 2.1 0 0 0-2.1-2.1 2.1 2.1 0 0 0-2.1 2.1 2.1 2.1 0 0 0 2.1 2.1 2.1 2.1 0 0 0 2.1-2.1z" class="cls-7" transform="translate(837.995 -197.257)"/>
                <path id="패스_272" d="M-561.033 218.085a2.109 2.109 0 0 0-2.109-2.109 2.109 2.109 0 0 0-2.109 2.109 2.11 2.11 0 0 0 2.109 2.11 2.11 2.11 0 0 0 2.109-2.11z" class="cls-7" transform="translate(875.245 -197.257)"/>
                <path id="패스_273" d="M-802.379 324.834a3.264 3.264 0 0 1-3.263 3.264 3.264 3.264 0 0 1-3.264-3.264 3.264 3.264 0 0 1 3.264-3.264 3.263 3.263 0 0 1 3.263 3.264z" class="cls-7" transform="translate(808.906 -170.051)"/>
                <path id="패스_274" d="M-510.083 382.985a1.816 1.816 0 0 1-1.817 1.815 1.817 1.817 0 0 1-1.817-1.817 1.817 1.817 0 0 1 1.817-1.817 1.816 1.816 0 0 1 1.817 1.819z" class="cls-7" transform="translate(875.245 -157.508)"/>
            </g>
            <g id="그룹_173" transform="translate(117.638 6.931)">
                <circle id="타원_30" cx="7.069" cy="7.069" r="7.069" class="cls-21" transform="translate(7.53)"/>
                <circle id="타원_31" cx="7.069" cy="7.069" r="7.069" class="cls-21" transform="rotate(-76.64 20.425 16.143)"/>
                <circle id="타원_32" cx="7.069" cy="7.069" r="7.069" class="cls-21" transform="rotate(-45 34.474 -20.598)"/>
                <path id="패스_275" d="M-754.106 218.8a1.552 1.552 0 0 1-.458-.069 1.566 1.566 0 0 1-1.042-1.956l6.089-19.973a1.568 1.568 0 0 1 1.956-1.042 1.566 1.566 0 0 1 1.042 1.956l-6.089 19.973a1.567 1.567 0 0 1-1.498 1.111z" class="cls-21" transform="translate(762.617 -190.188)"/>
                <path id="패스_276" d="M-727.96 210.1a1.562 1.562 0 0 1-.8-.219l-19.079-11.274a1.567 1.567 0 0 1-.552-2.147 1.567 1.567 0 0 1 2.146-.552l19.08 11.274a1.568 1.568 0 0 1 .552 2.147 1.567 1.567 0 0 1-1.347.771z" class="cls-21" transform="translate(762.617 -190.188)"/>
                <path id="패스_277" d="M-754.107 218.8a1.568 1.568 0 0 1-1.487-1.073 1.568 1.568 0 0 1 .992-1.982l26.149-8.7a1.566 1.566 0 0 1 1.982.992 1.568 1.568 0 0 1-.992 1.982l-26.149 8.7a1.555 1.555 0 0 1-.495.081z" class="cls-21" transform="translate(762.617 -190.188)"/>
            </g>
        </g>
        <g id="그룹_130" transform="translate(-717.659 204.337)">
            <path id="패스_144" d="M-785.647 468.8h103.324c22.968-2.335 18.457-27.624-7.414-39.645-.617-.3-1.254-.589-1.912-.866l-84.069-3.236c-1.455.8-2.979 1.7-4.51 2.716-.083.048-.153.1-.242.152-15.701 10.359-33.265 30.548-5.177 40.879z" class="cls-12" transform="translate(930.302 -193.793)"/>
            <path id="패스_145" d="M-674.4 496.416h-120.013c7.725-40.531 22.892-62.12 22.892-62.12l73.3-4.365c17.393 17.141 22.421 47.543 23.821 66.485z" transform="translate(928.42 -191.592)"/>
            <path id="패스_146" d="M-718.023 416.684c3.3 26.217 51.762 28.756 43.49-8.075z" class="cls-13" transform="translate(816.704 -201.224)"/>
            <path id="패스_147" d="M-748.366 434.182l30.353 28.026c9.907-10.247 46.649-64.3 53.536-89.564a21.482 21.482 0 0 0-13.469-25.891 21.444 21.444 0 0 0-13.212-.378 21.4 21.4 0 0 0-11.6 8.293z" class="cls-13" transform="translate(850.886 -229.728)"/>
            <g id="그룹_119" transform="translate(0 119.105)">
                <rect id="사각형_632" width="16.154" height="14.716" class="cls-11" rx="2.42" transform="rotate(-144.617 41.656 6.472)"/>
                <path id="패스_148" d="M-711.738 363.855c13.282 8.387 24.956 56.387 52.462 76.867a23.852 23.852 0 0 0 4.815 2.768c14.224 5.948 31.205-4.528 31.205-21.139l-20.376-18.613-45.9-41.924z" class="cls-22" transform="translate(757.248 -341.467)"/>
                <path id="패스_149" fill="#ecb298" d="M-711.738 430.446c14.225 5.948 31.206-4.531 31.206-21.142l-20.376-18.61c13.24 24.842 6.041 43.2-10.809 39.738-.007 0-.007 0-.021.014z" transform="translate(814.525 -328.418)"/>
                <g id="그룹_118">
                    <path id="패스_150" d="M-627.157 366.329l5.058 12.384c-22.026 10.888-37.732.655-47.467-.8l12.866-26.1z" class="cls-22" transform="translate(694.868 -345.985)"/>
                    <path id="패스_151" d="M-627.135 360.139a4.605 4.605 0 0 1 1.282 1.205 4.457 4.457 0 0 1 .256.409 4.6 4.6 0 0 1 .028 4.6 4.5 4.5 0 0 1-1.213 1.417l-3.2 2.477-4.524 3.485a4.5 4.5 0 0 1-2.127.9 4.466 4.466 0 0 1-3.036-.648 4.744 4.744 0 0 1-1.275-1.223 4.5 4.5 0 0 1 .534-5.806l.007-.014c.083-.083.18-.159.27-.239l7.532-6.218a1.887 1.887 0 0 1 .236-.173 4.631 4.631 0 0 1 5.23-.172z" class="cls-22" transform="translate(657.378 -342.553)"/>
                    <path id="패스_152" d="M-648.485 353.7a3.856 3.856 0 0 1 3.52-4.483l19.511-1.417 19.157 5.529-3.236 16.462-21.111-12.437-14.162-.447a3.847 3.847 0 0 1-3.679-3.207z" class="cls-22" transform="translate(648.539 -347.798)"/>
                    <path id="패스_153" d="M-627.261 351.962l-3.921-1.136-14.848 2.612-2.508 4.365 18.957 10.666z" class="cls-24" transform="translate(669.503 -346.431)"/>
                    <path id="패스_154" d="M-644.918 376.817a4.543 4.543 0 0 0 4.254 1.833l9.692-1.3a4.689 4.689 0 0 0 4.018-5.106 4.753 4.753 0 0 0-.686-1.957c-.062-.121-.132-.211-.187-.3a1.882 1.882 0 0 0-.2-.236 4.587 4.587 0 0 0-4.358-1.614l-9.623 1.611a4.53 4.53 0 0 0-3.152 2.221c-.083.166-.173.339-.249.516a4.09 4.09 0 0 0-.346 2.1 4.589 4.589 0 0 0 .837 2.232z" class="cls-22" transform="translate(665.161 -338.645)"/>
                    <path id="패스_155" d="M-645.291 372a4.37 4.37 0 0 0 2.446.953l9.728.745a4.738 4.738 0 0 0 5.342-4.652c-1.018-1.244-3.048-1.178-4.746-.876l-9.617 1.611a4.5 4.5 0 0 0-3.153 2.219z" class="cls-24" transform="translate(665.306 -338.68)"/>
                    <path id="패스_156" d="M-645.2 369.7a4.468 4.468 0 0 0 3.125 2.089l6.658.915a4.654 4.654 0 0 0 5.3-3.724 4.628 4.628 0 0 0-.478-3.038 1.948 1.948 0 0 0-.139-.267 4.641 4.641 0 0 0-3.395-2.193l-6.7-.624a4.5 4.5 0 0 0-3.145.8 4.41 4.41 0 0 0-1.815 2.782 4.456 4.456 0 0 0 .589 3.26z" class="cls-24" transform="translate(668.417 -341.008)"/>
                    <path id="패스_157" d="M-626.8 366.263c.048.08.118.166.166.26.069.1.118.215.18.312l-.007.01a4.565 4.565 0 0 1 .527 2.667 4.649 4.649 0 0 1-5 4.133l-9.728-.731a4.7 4.7 0 0 1-1.351-.322 4.494 4.494 0 0 1-1.94-1.524 4.493 4.493 0 0 1-.838-3.2 4.943 4.943 0 0 1 .637-1.826 4.547 4.547 0 0 1 .97-1.088 4.435 4.435 0 0 1 3.062-1.043l9.181.405.589.028a4.659 4.659 0 0 1 3.552 1.919z" class="cls-22" transform="translate(662.744 -340.519)"/>
                    <path id="패스_158" d="M-629.546 366.035l.6.024a4.634 4.634 0 0 1 3.54 1.919 2.106 2.106 0 0 1 .173.26c.069.1.125.211.18.312l-.007.014a4.645 4.645 0 0 1-5.134 2.259l-3.762-.894-8.141-1.954a2.885 2.885 0 0 1-.645-.218 4.454 4.454 0 0 1-1.642-1.129l.014-.007a3.024 3.024 0 0 1 .263-.239l7.538-6.221a2.638 2.638 0 0 1 .222-.17l6.776 1.445a4.6 4.6 0 0 1 .025 4.599z" class="cls-24" transform="translate(661.269 -342.288)"/>
                    <path id="패스_159" d="M-626.652 355.45a4.617 4.617 0 0 1 1.649 1.8 4.675 4.675 0 0 1-1.9 6.215l-2.762 1.535-5.792 3.177a4.444 4.444 0 0 1-2.744.52 4.264 4.264 0 0 1-1.85-.658 4.383 4.383 0 0 1-1.614-1.819 4.516 4.516 0 0 1 1.718-5.854l2.73-1.6 2.882-1.725 2.792-1.652a4.632 4.632 0 0 1 4.891.061z" class="cls-22" transform="translate(657.43 -344.671)"/>
                    <path id="패스_160" d="M-645.291 364.315a4.481 4.481 0 0 0 2.771 2.546l6.443 1.929a4.646 4.646 0 0 0 5.8-2.872 4.552 4.552 0 0 0 0-3.076 1.366 1.366 0 0 0-.1-.284 4.614 4.614 0 0 0-3.021-2.688l-6.526-1.642a4.5 4.5 0 0 0-3.229.312 4.428 4.428 0 0 0-2.217 2.473 4.414 4.414 0 0 0 .079 3.302z" class="cls-24" transform="translate(668.059 -343.163)"/>
                    <path id="패스_161" d="M-643.9 365.175a4.478 4.478 0 0 0 2.965 2.321l9.512 2.217a4.646 4.646 0 0 0 5.563-3.315 4.624 4.624 0 0 0-.242-3.066 2.236 2.236 0 0 0-.125-.277 4.636 4.636 0 0 0-3.208-2.442l-9.582-1.926a4.447 4.447 0 0 0-3.194.565 4.434 4.434 0 0 0-2.03 2.633 4.484 4.484 0 0 0 .341 3.29z" class="cls-22" transform="translate(661.94 -342.917)"/>
                    <g id="그룹_117" transform="translate(18.425 5.528)">
                        <g id="그룹_115" transform="translate(3.204 4.68)">
                            <path id="패스_162" d="M-625.742 367.3l-21.617-12.475-14.952 2.969 5.266 7.483 6.167.606s9.241 18.217 25.136 1.417z" class="cls-24" transform="translate(666.35 -354.83)"/>
                            <path id="패스_163" d="M-636.714 356.878l-3.707 8.027a3.508 3.508 0 0 0 1.663 4.642 3.518 3.518 0 0 0 4.379-1.115l2.93-4.07z" class="cls-24" transform="translate(640.749 -353.903)"/>
                        </g>
                        <g id="그룹_116">
                            <path id="패스_164" d="M-622.962 366.422l-25.469-14.817-17.654 3.447 6.18 8.851 7.275.745s10.83 21.534 29.668 1.774z" class="cls-22" transform="translate(672.253 -351.606)"/>
                            <path id="패스_165" d="M-634.644 356.314l5.758 5.647-1.095 2.318-1.434 3.031a4.136 4.136 0 0 1-.249.461 4.127 4.127 0 0 1-4.6 1.77 4.03 4.03 0 0 1-2.252-1.566 4.061 4.061 0 0 1-.665-3.461l1.649-6.478z" class="cls-24" transform="translate(639.318 -349.481)"/>
                            <path id="패스_166" d="M-635.825 353.981l-4.42 9.451a4.144 4.144 0 0 0 1.947 5.491 4.144 4.144 0 0 0 5.175-1.3l3.471-4.791z" class="cls-22" transform="translate(641.998 -350.534)"/>
                        </g>
                    </g>
                </g>
                <path id="패스_167" d="M-658.5 361.44l-12.63 18.914 4.081 6.357 15.4-19.8z" class="cls-11" transform="translate(726.676 -341.634)"/>
            </g>
            <path id="패스_168" d="M-791.925 499.006l79.393.139 28.843.052a275.964 275.964 0 0 1-9.838-29.563c-3.845-14.141-7.212-31.143-6.609-45.9.353-8.816 1.517-18.087 1.51-27.589-.021-6.031 5.03-47.751 0-51.593-11.619-8.851-44.987-10.258-42.977-8.366l-26.134 14.862c-1.462 5.009-15.616 24.634-17.9 36-.187.856-.346 1.746-.492 2.623a56.575 56.575 0 0 0-.707 9.121 18.761 18.761 0 0 0 .118 2.692 33.032 33.032 0 0 0 .423 4 37.53 37.53 0 0 0 12.6 22.521l-.125.527-.014.114-5.078 19.739-5.1 19.857-.139.523z" class="cls-12" transform="translate(934.098 -234.274)"/>
            <path id="패스_169" d="M-800.5 457.944l.1.367 68.744 20.612 2.889 9.766 1.982 6.713 5.307 3.419h19.122c22.968-2.335 18.457-27.624-7.414-39.648-3.845-14.137-7.212-31.143-6.61-45.9.36-8.816 1.517-18.087 1.51-27.585l-26.19-27.087.651 63.887-45.1 7.743-9.651 7.7-5.1 19.853c-.081.056-.15.108-.24.16z" class="cls-13" transform="translate(950.331 -223.815)"/>
            <g id="그룹_122" transform="translate(147.244 101.429)">
                <g id="그룹_121" clip-path="url(#clip-path-4)">
                    <g id="그룹_120" transform="translate(-15.675 46.736)">
                        <path id="패스_170" d="M-756.687 416.007l15.429-24.1-15.429-24.094-15.43 24.094zm14.341-24.1l-14.341 22.406-14.349-22.406 14.349-22.41z" class="cls-10" transform="translate(831.345 -367.816)"/>
                        <path id="패스_171" d="M-736.3 416.007l15.43-24.1-15.43-24.094-15.42 24.097zm14.349-24.1l-14.349 22.409-14.341-22.406 14.341-22.41z" class="cls-10" transform="translate(781.345 -367.816)"/>
                        <path id="패스_172" d="M-715.886 416.007l15.422-24.1-15.422-24.094-15.437 24.094zm14.341-24.1l-14.341 22.406-14.349-22.406 14.349-22.41z" class="cls-10" transform="translate(731.323 -367.816)"/>
                    </g>
                </g>
            </g>
            <g id="그룹_125" transform="translate(129.202)">
                <circle id="타원_22" cx="17.403" cy="17.403" r="17.403" class="cls-11" transform="translate(0 19.685)"/>
                <circle id="타원_23" cx="17.403" cy="17.403" r="17.403" class="cls-11" transform="translate(17.724)"/>
                <circle id="타원_24" cx="17.403" cy="17.403" r="17.403" class="cls-11" transform="translate(40.477 6.333)"/>
                <path id="패스_174" d="M-748.493 290.367c7.032 18 4.552 29.463-6.8 36.946l-10.753-11.736 6.43-28.227z" class="cls-11" transform="translate(828.204 -256.003)"/>
                <path id="패스_175" d="M-721.95 306.792l-4.088 43.836-32.653 22.072-.464-54.045z" class="cls-22" transform="translate(795.581 -247.218)"/>
                <path id="패스_176" d="M-750.256 315.233l-7.732 13.514-4.843-10.3z" class="cls-11" transform="translate(829.222 -243.409)"/>
                <path id="패스_177" d="M-747.7 347.678s20.134-3.631 20.716-26.366l-21.028 6.852z" class="cls-24" transform="translate(784.441 -240.659)"/>
                <path id="패스_178" d="M-718.664 284.811c-9.734 11.938-11.016 27.665-11.016 27.665l10.552 1.666 8.03-25.292z" class="cls-11" transform="translate(741.939 -257.15)"/>
                <path id="패스_179" d="M-696.3 299.539l-3.138 12.436-1.448 5.667-3.845 15.215a24.471 24.471 0 0 1-16.351 17.317l-12.562 3.96a17.829 17.829 0 0 1-23.106-15.5c-.748-8.349-.734-18.086 2.439-28.431a38.826 38.826 0 0 1 24.8-25.161l.042-.01 2.009-.6.222-.055c1.011-.26 2.044-.478 3.069-.648a37 37 0 0 1 7.552-.547l8.134.236a12.952 12.952 0 0 1 12.183 16.121z" class="cls-22" transform="translate(766.628 -257.893)"/>
                <path id="패스_180" d="M-714.046 322.842c6.091 0 11.044-5.467 11.044-12.187s-4.954-12.191-11.044-12.191-11.03 5.47-11.03 12.191 4.954 12.187 11.03 12.187zm0-23.47c5.592 0 10.137 5.065 10.137 11.283s-4.545 11.28-10.137 11.28-10.122-5.061-10.122-11.28 4.537-11.283 10.122-11.283z" class="cls-3" transform="translate(727.158 -250.984)"/>
                <g id="그룹_124" transform="translate(10.983 45.589)">
                    <path id="패스_181" d="M-723.589 310.164c-.284 2.986.582 5.5 1.94 5.636s2.7-2.179 2.979-5.158-.582-5.5-1.94-5.633-2.69 2.176-2.979 5.155z" transform="translate(729.703 -293.616)"/>
                    <path id="패스_182" d="M-720.154 305.509c-2.73 6.561-7.234 7.912-10.365 7.954a3.9 3.9 0 0 0-3.824 3.586 6.718 6.718 0 0 0 3.485 6.429l8.238 4.479a8.263 8.263 0 0 0 10.669-5.969l3.72-16.081z" class="cls-22" transform="translate(734.892 -293.389)"/>
                    <g id="그룹_123" transform="translate(0 11.918)">
                        <path id="패스_183" d="M-717.263 326.969l.506-.925-5.453-2.962a6.177 6.177 0 0 1-3.2-5.924 3.346 3.346 0 0 1 3.3-3.1c3.4-.052 8.031-1.531 10.843-8.279l-.97-.409c-2.591 6.228-6.8 7.586-9.88 7.635a4.4 4.4 0 0 0-4.337 4.07 7.221 7.221 0 0 0 3.746 6.925z" class="cls-24" transform="translate(726.481 -305.37)"/>
                    </g>
                    <path id="패스_184" d="M-736.044 312.024c-.284 2.983.582 5.5 1.94 5.633s2.7-2.179 2.979-5.158-.582-5.5-1.94-5.633-2.695 2.182-2.979 5.158z" transform="translate(760.241 -292.778)"/>
                    <path id="패스_185" d="M-738.5 303.784c6.776 2.823 8.633-.655 3.777-3.6-5.234-3.162-12.21.084-3.777 3.6z" class="cls-11" transform="translate(770.368 -296.376)"/>
                    <path id="패스_186" d="M-722.279 301.4c5.286-.859 3.817-4.185-.6-4.237-4.756-.057-5.982 5.302.6 4.237z" class="cls-11" transform="translate(734.623 -297.161)"/>
                    <path id="패스_187" d="M-732.83 322.055l12.194-.939s-1.372 7.039-4.912 7.8c-3.846.829-7.282-6.861-7.282-6.861z" class="cls-3" transform="translate(745.063 -286.34)"/>
                </g>
                <path id="패스_188" d="M-732.5 326.559c6.09 0 11.043-5.47 11.043-12.191s-4.954-12.184-11.043-12.184-11.031 5.463-11.031 12.184 4.945 12.191 11.031 12.191zm0-23.47c5.584 0 10.136 5.061 10.136 11.279s-4.552 11.28-10.136 11.28-10.123-5.061-10.123-11.28 4.542-11.279 10.123-11.279z" class="cls-3" transform="translate(772.395 -249.301)"/>
                <path id="사각형_633" d="M0 0H0.91V12.309H0z" class="cls-3" transform="rotate(-105.807 49.237 12.528)"/>
                <path id="패스_189" d="M-768.381 283.642c-6.4 15.107 5.647 35.779 30.894 34.272 10.635-21.475 10.178-40.688-30.894-34.272z" class="cls-11" transform="translate(821.131 -258.247)"/>
                <path id="패스_190" d="M-767.566 311.625c25.358-34.846 38.529 20.325 1.261 17.432z" class="cls-22" transform="translate(828.988 -250.269)"/>
                <path id="패스_191" d="M-758.19 292.649l-.464 29.266 2.446 1.639 9.236-28.14z" class="cls-11" transform="translate(819.877 -253.609)"/>
                <path id="패스_192" d="M-711.224 287.372a60.316 60.316 0 0 1-38.744 1.382s6.735-16.212 38.744-1.382z" class="cls-11" transform="translate(771.518 -258.817)"/>
                <path id="패스_193" d="M-774.726 289.56c0-10.306 11.384-5.366 3.569 1.3 13.7-1.85 3.326 15.142-2.98 9.2" class="cls-11" transform="translate(860.641 -257.681)"/>
            </g>
            <path id="패스_194" d="M-763.033 363.773c-4.4-23.907 18.09-28.975 35.085-35.955l9.354 12.021z" class="cls-3" transform="translate(927.87 -237.721)"/>
            <g id="그룹_126" transform="translate(216.779 193.531)">
                <path id="패스_195" d="M-761.185 400.1c-17.938-3.471-34.455 1.559-25.628 19.292L-759.5 421z" class="cls-12" transform="translate(789.264 -399.066)"/>
                <path id="패스_196" d="M-814.911 449.849c48.471 12.534 40.636-39.45 11.778-47.242z" class="cls-12" transform="translate(847.007 -397.467)"/>
            </g>
            <path id="패스_197" d="M-768.588 465.072l28.851 4.247c5.161-40.888-6.957-85.483-34.1-121.455a20.151 20.151 0 0 0-26.945-4.832 20.115 20.115 0 0 0-8.342 22.954z" class="cls-12" transform="translate(1015.295 -232.285)"/>
            <g id="그룹_129" transform="translate(102.958 164.627)">
                <g id="그룹_127">
                    <path id="패스_198" d="M-757.3 388.33l2.252-2.844.007.01a1.665 1.665 0 0 1 1.074-.6l43.268-5.712a3.685 3.685 0 0 1 3.332 1.316l46.469 56.906a1.737 1.737 0 0 1-.949 2.792l-29.813 6.949a3.661 3.661 0 0 1-3.395-.946l-59.426-57.877z" class="cls-26" transform="translate(757.671 -379.155)"/>
                    <path id="패스_199" d="M-661.2 439.33l-46.469-56.9a3.681 3.681 0 0 0-3.339-1.32l-43.254 5.712a1.739 1.739 0 0 0-.991 2.969l59.9 58.341a3.677 3.677 0 0 0 3.4.942l29.8-6.946a1.74 1.74 0 0 0 .953-2.798z" class="cls-3" transform="translate(755.778 -378.29)"/>
                    <ellipse id="타원_25" cx="9.688" cy="5.173" class="cls-26" rx="9.688" ry="5.173" transform="scale(-1) rotate(42.32 32.598 -82.45)"/>
                    <path id="패스_200" d="M-722.138 385.825a3.491 3.491 0 0 0 2.584 1.732c.845-.017 1.06-.821.471-1.794a3.463 3.463 0 0 0-2.591-1.732c-.838.016-1.053.82-.464 1.794z" class="cls-26" transform="translate(765.363 -376.954)"/>
                </g>
                <g id="그룹_128" transform="translate(13.3 22.197)">
                    <path id="패스_201" d="M-704.394 431.05l-39.354-26.861L-693.2 408l4.289 16.926z" class="cls-22" transform="translate(753.115 -390.042)"/>
                    <path id="패스_202" d="M-741.179 411.217l7.122-1a3.241 3.241 0 0 0 2.543-4.459l-.25-.606a6.818 6.818 0 0 0-9.492-3.416 6.822 6.822 0 0 0-3.61 6.489 3.244 3.244 0 0 0 3.687 2.992z" class="cls-22" transform="translate(797.113 -391.511)"/>
                    <path id="패스_203" d="M-686.983 413.842l-30.942-5.245-.367-.908a13.065 13.065 0 0 0-8.051-7.549 1.389 1.389 0 0 1-.942-1.348 1.273 1.273 0 0 1 .035-.277 5.2 5.2 0 0 1 5.175-4.07 5.892 5.892 0 0 1 1.233.184l1.836.634.187.066a10.187 10.187 0 0 1 6.471 6.9l24.561 11.248z" class="cls-22" transform="translate(727.286 -394.445)"/>
                    <path id="패스_204" d="M-695.281 414.884l-14.107-4.867c-2-6.031-5.376-8.352-9.041-9.554a1.393 1.393 0 0 1-.942-1.348 1.272 1.272 0 0 1 .035-.281 5.153 5.153 0 0 1 3.52-3.825l.194.066a10.182 10.182 0 0 1 6.471 6.9l2.674 6.544z" class="cls-24" transform="translate(724.1 -394.191)"/>
                    <path id="패스_205" d="M-723.609 408.716l-.374-.908a13.072 13.072 0 0 0-8.044-7.542 1.379 1.379 0 0 1-.908-1.621 5.192 5.192 0 0 1 6.4-3.894l2.023.7a10.232 10.232 0 0 1 6.485 6.908l25.358 11.608z" class="cls-22" transform="translate(741.232 -394.387)"/>
                </g>
                <path id="패스_206" d="M-729.662 408.741l-62.356 6.315-9.672 14s42.638 21.392 82.594 18.73c17.287-1.147 23.342-23.508 8.973-33.187l-2.252-1.517a26.222 26.222 0 0 0-17.287-4.341z" class="cls-22" transform="translate(863.708 -365.849)"/>
            </g>
            <path id="패스_207" d="M-717.29 463.5l-71.536 9.914-3.914-25.157 69.991-.014z" class="cls-3" transform="translate(968.883 -183.32)"/>
            <path id="패스_208" d="M-706.5 448.245l-4.532 25.164-25.919-9.914 5.46-15.25z" class="cls-3" transform="translate(877.106 -183.317)"/>
        </g>
    </g>
</svg>
